<?xml version="1.0" encoding="utf-8"?>
<!-- Generator: Adobe Illustrator 21.1.0, SVG Export Plug-In . SVG Version: 6.00 Build 0)  -->
<svg version="1.1" xmlns="http://www.w3.org/2000/svg" xmlns:xlink="http://www.w3.org/1999/xlink" x="0px" y="0px"
	 viewBox="0 0 1366 768" style="enable-background:new 0 0 1366 768;" xml:space="preserve">
<style type="text/css">
	.st0{fill:#FFFFFF;stroke:#345E5D;stroke-width:2;stroke-miterlimit:10;}
	.st1{fill:#345E5D;stroke:#FFFFFF;stroke-width:18;stroke-miterlimit:10;}
	.st2{fill:#FFFFFF;stroke:#6F6F6F;stroke-width:3;stroke-miterlimit:10;}
	.st3{fill:#FFFFFF;stroke:#6F6F6F;stroke-width:2;stroke-miterlimit:10;}
	.st4{fill:none;}
	.st5{fill:#FFFFFF;}
	.st6{font-family:'MicrosoftSansSerif';}
	.st7{font-size:36px;}
</style>
<g id="Layer_1">
	<g id="Street_name">
		<g id="Sign">
			<path id="blue_sign_2_" class="st0" d="M1344,745H27.3c-6.6,0-12-8.5-12-18.9V43.9c0-10.4,5.4-18.9,12-18.9H1344
				c6.6,0,12,8.5,12,18.9v682.2C1356,736.5,1350.6,745,1344,745z"/>
			<g id="green_line">
				<path class="st1" d="M1326.9,725H46.3c-6.7,0-12.1-8.9-12.1-19.8V60.8c0-10.9,5.5-19.8,12.1-19.8h1280.6
					c6.7,0,12.1,8.9,12.1,19.8v644.4C1339,716.1,1333.5,725,1326.9,725z"/>
			</g>
			<ellipse class="st2" cx="83.8" cy="101" rx="7" ry="13.5"/>
			<ellipse class="st2" cx="83.8" cy="686.6" rx="7" ry="13.6"/>
			<ellipse class="st2" cx="1296.9" cy="686.6" rx="6.8" ry="13.6"/>
			<ellipse class="st2" cx="1290.1" cy="101" rx="7.4" ry="15.5"/>
		</g>
	</g>
</g>
<g id="about">
	<path class="st2" d="M490.2,203.6c7.8-31.9,15.4-63.1,23-94.2c0.3-1.3,1-2.4,1.5-3.7c3-9,3.8-23.5,9.5-25.8
		c10.7-4.3,24.3-2.1,36.6-1.5c2.8,0.1,6.9,4.3,7.7,7.4c9.2,34.9,18.1,69.8,26.2,105c1,4.4-2,13.3-5.1,14.3
		c-7.7,2.6-15.7,1.5-16.4-10.5c-0.4-7.4-3.1-14.6-5-21.8c-0.5-2-1.8-5.4-3-5.5c-12.8-1.7-25.8-4.2-38.5-3.3
		c-3.8,0.3-7.2,10.3-10.1,16.3c-1.3,2.6-0.4,6.1-0.9,9.2C513,205.9,509.7,207.9,490.2,203.6z M525.9,146c9.4,0,15.6-0.6,21.6,0.1
		c10.2,1.2,12.6-3.5,10.6-12.5c-2.2-10.3-3.7-20.9-6.7-31c-1-3.3-5.6-7.1-9-7.7c-2.3-0.4-7.4,3.9-8.1,6.9
		C531.1,115.7,528.9,129.9,525.9,146z"/>
	<path class="st2" d="M626.1,121.4c27.3-11.7,42.8-3,45.8,25.2c1.4,13.2-0.7,27.4-3.9,40.4c-3.7,15.2-22.9,20.6-36.6,12.5
		c-2.9-1.7-8.8,2.4-11.9,3.8c-7.8,3.5-10.1-3.6-10.2-11.1c-0.1-33.5-0.2-67,0.4-100.5c0.1-3.1,4.5-8.1,7.8-8.9
		c6.9-1.6,8.7,3.7,8.6,9.7C626,101.6,626.1,110.8,626.1,121.4z M654.3,159.5c-0.4-6.3,0.5-12.9-1.7-18.1c-1.8-4.3-7.2-9.5-11.4-9.8
		c-3.9-0.3-11.3,5.1-11.7,8.5c-1.3,12.9-1.3,26.1,0.2,38.9c0.4,3.4,8.1,8.7,12,8.3c4-0.4,9.2-5.9,10.9-10.3
		C654.8,171.8,653.9,165.2,654.3,159.5z"/>
	<path id="o_2_" class="st2" d="M749.6,162.9c0,4.4-0.2,8.9,0.1,13.2c1.7,29.8-31.8,35.4-49.5,25.7c-1.4-0.8-2.8-1.7-4-2.6
		c-15.9-13.3-14.8-62.8,1.9-75.1c11.1-8.2,23.9-7.1,35.6-2.7c11,4.1,16.3,13.7,16.1,25.8C749.5,152.4,749.6,157.7,749.6,162.9z
		 M735.1,161.9c-1.2-6.5-1-13.6-4-18.8c-2.5-4.3-8.9-8.8-13.5-8.6c-4.4,0.1-11.9,5.6-12.4,9.5c-1.6,12.1-1.4,24.7,0.1,36.8
		c0.5,3.7,7.6,9.3,11.6,9.3c4.8,0,11.3-4.2,13.8-8.4C733.9,176.2,733.8,168.7,735.1,161.9z"/>
	<path id="u_1_" class="st3" d="M810.6,198.9c-11.1,7.5-20.4,6.1-28.7,5.5c-10-0.8-18.8-6.5-19.3-18.4c-0.8-19.6-1.7-39.2-1.5-58.8
		c0-2.8,5-8.8,9.1-8.5c3.8,0.2,7.1,5.6,7.1,8.6c0.8,15.1,0.7,30.2,0.3,45.3c-0.2,9.3,2.3,16.6,12.8,17.1
		c11.3,0.5,14.6-8.1,15.1-16.9c0.8-13.8,0.2-27.7,0.2-41.7c0-5.6-1.2-12,7.8-12.3c10.1-0.3,8.3,7,8.3,12.8c0.2,19.3,0.2,38.5,0,57.6
		c0,4.2,1,10.5-2.7,12.6C815.7,203.9,811.6,199.3,810.6,198.9z"/>
	<path id="t_1_" class="st3" d="M846.1,156.4c0-6.7,0.8-13.4-0.2-19.6c-0.6-4.3-3.2-8.9-6.5-11.5c-6.5-5.5-7.3-13-1.2-15.8
		c8.1-4,8.7-9.3,8.1-16.6c-0.6-7.1,1.8-10.3,8.9-10.3c6.9,0,11.1,2.2,10.5,10.5c-0.6,9.1,0.6,16,11.7,15c1.8-0.2,5.7,5.1,5.5,7.5
		c-0.2,3.2-3.2,9.3-5.3,9.3c-11.7,0-10.5,8.5-10.5,16.6c0,8.9,0.2,17.8-0.2,26.9c-0.4,9.5,0.2,17.4,10.9,20.8
		c2.4,0.8,4.5,8.1,4.3,12.3c-0.2,1.8-6.7,5.1-9.9,4.7c-17.2-2-26.1-13.6-26.3-32.4C846.1,167.7,846.1,162,846.1,156.4z"/>
</g>
<g id="text">
	<rect x="99" y="239" class="st4" width="1184" height="238"/>
	<text transform="matrix(1 0 0 1 101.2627 264.7695)"><tspan x="0" y="0" class="st5 st6 st7">I hold a bachelor in Marketing Management from IPS Portuguese universi</tspan><tspan x="1167.5" y="0" class="st5 st6 st7">-</tspan><tspan x="6.2" y="43.2" class="st5 st6 st7">ty and a bachelor in International Sales and Marketing from the Copenha</tspan><tspan x="1161.3" y="43.2" class="st5 st6 st7">-</tspan><tspan x="25.5" y="86.4" class="st5 st6 st7">gen Business Academy. Currently I am finishing the Multimedia Design </tspan><tspan x="18.3" y="129.6" class="st5 st6 st7">and Communication program at KEA, Copenhagen,  in order to broaden </tspan><tspan x="153.2" y="172.8" class="st5 st6 st7">my knowledge and skills in communication and design.</tspan></text>
</g>
<g id="mail">
	<path class="st5" d="M565.1,683c-31.1,0-62.2,0-93.3,0c-0.2-0.1-0.4-0.2-0.6-0.2c-7.7-1.5-13.2-8-13.2-15.9c0-18.6,0-37.1,0-55.7
		c0-6.6,3.2-11.5,9-14.5c1.5-0.8,3.2-1.1,4.7-1.6c31.1,0,62.2,0,93.3,0c0.2,0.1,0.5,0.2,0.7,0.2c7.5,1.4,13.1,8.2,13.1,15.8
		c0,18.6,0,37.2,0,55.8c0,6.7-4,12.6-10.2,15C567.6,682.3,566.3,682.6,565.1,683z M571.7,603.9c-2.6-3-5.7-4.3-9.5-4.3
		c-29.2,0-58.4,0-87.5,0c-0.9,0-1.8,0.1-2.6,0.2c-2.1,0.4-4,1.3-5.6,2.8c0.2,0.3,0.4,0.4,0.6,0.6c16.9,16.9,33.7,33.7,50.6,50.6
		c1.5,1.5,2.6,1.5,4.1,0c13.4-13.4,26.8-26.7,40.2-40.1C565.1,610.4,568.4,607.2,571.7,603.9z M466.1,675.1c2.3,2.2,5.2,3.3,8.5,3.3
		c20.4,0,40.8,0,61.1,0c8.9,0,17.9,0,26.8,0c3.4,0,6.3-1.3,8.6-3.7c-10.6-10.7-21.2-21.3-32-32.1c-0.2,0.3-0.4,0.7-0.7,1
		c-4.5,4.6-9.1,9.1-13.7,13.7c-3.1,3.1-7.2,3.1-10.3,0c-4.8-4.8-9.6-9.6-14.4-14.4c-0.3-0.3-0.6-0.6-0.9-0.8
		C488.2,653.1,477.2,664.1,466.1,675.1z M495.3,638.7c-10.5-10.6-21.1-21.2-32-32.1c-0.3,1.6-0.7,3.2-0.7,4.7c0,18.5,0,37,0,55.5
		c0,1.3,0.4,2.7,0.6,4.1C474,660,484.7,649.2,495.3,638.7z M574,608.3c-10.5,10.5-20.8,20.8-31,31c10.2,10.2,20.5,20.5,30.9,30.9
		c0.1-1.1,0.4-2.3,0.4-3.4c0-18.4,0-36.9,0-55.3C574.4,610.4,574.2,609.4,574,608.3z"/>
</g>
<g id="phone">
	<g>
		<path class="st5" d="M729.3,683c-9.4-1.6-20.2-5.1-29.9-11.1c-13.9-8.6-26-19.5-34.2-33.3c-4.6-7.7-7.8-16.2-10.4-24.7
			c-2.9-9.6,1.1-18.1,7.8-25.4c3.4-3.7,8.6-3.8,13.3-4.2c1-0.1,2.6,1.3,3.3,2.4c3.9,6.1,7.5,12.3,11.3,18.5c1.4,2.4,1,4.5-1,6.2
			c-2.7,2.4-5.6,4.7-8.4,7c-2.9,2.4-3.1,4.9-1.3,8.1c7.6,13.9,18.6,24.4,33.1,31.8c3.5,1.8,6.2,1.7,8.7-1.4c2.1-2.6,4.5-5.1,6.8-7.6
			c2-2.2,4.2-2.8,7-1.1c6.1,3.6,12.4,7,18.6,10.3c2.4,1.3,3.2,3,2.7,5.7C754.6,675.6,744.3,683.2,729.3,683z"/>
	</g>
</g>
<g id="linkedin">
	<g>
		<path class="st5" d="M886.3,607.6c13.9-7.6,28.9-5.3,37.7,5.5c4.3,5.2,6.5,11.4,6.7,18.1c0.3,14.2,0.2,28.4,0.3,42.6
			c0,3-1.4,4.1-4.3,4.1c-6.9-0.1-13.8,0-20.6,0c-4.3,0-4.8-0.5-4.8-4.8c0-11.8,0-23.5,0-35.3c0-1.7-0.2-3.3-0.5-4.9
			c-0.7-3.6-2.6-5.4-5.9-5.8c-4-0.4-6.7,1-7.9,4.6c-0.6,1.6-0.8,3.5-0.8,5.2c-0.1,12,0,24,0,35.9c0,4.4-0.6,5.1-5,5.1
			c-6.9,0-13.8-0.1-20.6,0c-3.1,0.1-4.4-1.3-4.4-4.4c0-22.1,0-44.1,0-66.2c0-3.1,1.6-4.3,4.6-4.3c6.8,0.1,13.5,0.1,20.3,0
			C884.2,603,886.2,604,886.3,607.6z M862.4,609.2c0,21.1,0,41.9,0,62.7c6,0,11.7,0,17.7,0c0-1.3,0-2.4,0-3.5c0-10.3,0-20.6,0-30.9
			c0-2.1,0.2-4.2,0.7-6.2c1.6-6.8,7.1-10.7,14-10.2c6.8,0.5,11.4,5.2,12,12.3c0.1,1.7,0.2,3.3,0.2,5c0,10,0,20,0,29.9
			c0,1.2,0.1,2.3,0.2,3.4c6.2,0,12,0,17.5,0c0-14.3,0.6-28.2-0.2-42.2c-0.5-9-5.2-16.4-14.5-19.3c-9.4-2.9-18-1.8-24.5,6.6
			c-0.6,0.8-2.3,1.4-3.1,1.1c-1-0.4-2-1.8-2.2-2.9c-0.4-1.9-0.1-3.9-0.1-6C874,609.2,868.3,609.2,862.4,609.2z"/>
		<path class="st5" d="M823.3,640.4c0-10.8,0-21.5,0-32.3c0-4.3,0.7-5,5-5c6.7,0,13.3,0,20,0c3.9,0,4.7,0.8,4.7,4.6
			c0,21.9,0,43.7,0,65.6c0,4-0.6,4.6-4.7,4.6c-6.8,0-13.5,0-20.3,0c-4.2,0-4.7-0.6-4.7-4.9C823.3,662.1,823.3,651.2,823.3,640.4z
			 M829.3,671.9c6.2,0,11.9,0,17.8,0c0-21,0-41.7,0-62.7c-6,0-11.8,0-17.8,0C829.3,630.2,829.3,650.9,829.3,671.9z"/>
		<path class="st5" d="M823.4,587.5c0-8.3,6.3-14.5,15-14.4c8.4,0.1,14.5,6,14.6,14.1c0.1,8.4-6.1,14.3-15,14.2
			C829.5,601.4,823.5,595.6,823.4,587.5z M838.2,579.1c-5.4,0-9.2,3.6-9,8.5c0.1,4.8,3.9,8.2,9.1,8.1c5.2-0.1,9-3.5,9-8.2
			C847.3,582.5,843.6,579.1,838.2,579.1z"/>
	</g>
</g>
</svg>
