<?xml version="1.0" encoding="utf-8"?>
<!-- Generator: Adobe Illustrator 21.1.0, SVG Export Plug-In . SVG Version: 6.00 Build 0)  -->
<svg version="1.1" xmlns="http://www.w3.org/2000/svg" xmlns:xlink="http://www.w3.org/1999/xlink" x="0px" y="0px"
	 viewBox="0 0 1366 768" style="enable-background:new 0 0 1366 768;" xml:space="preserve">
<style type="text/css">
	.st0{fill:#69A682;stroke:#FFFFFF;stroke-width:2;stroke-miterlimit:10;}
	.st1{fill:#69A682;stroke:#FFFFFF;stroke-width:18;stroke-miterlimit:10;}
	.st2{display:none;fill:#FFFFFF;stroke:#6F6F6F;stroke-width:3;stroke-miterlimit:10;}
	.st3{fill:#FCFCFD;stroke:#7C7C7C;stroke-width:2;stroke-miterlimit:10;}
	.st4{fill:none;}
	.st5{fill:#FFFFFF;}
	.st6{font-family:'MicrosoftSansSerif';}
	.st7{font-size:92px;}
	.st8{display:none;}
	.st9{display:inline;fill:#FFFFFF;stroke:#6F6F6F;stroke-width:3;stroke-miterlimit:10;}
	.st10{display:inline;fill:#FFFFFF;stroke:#6F6F6F;stroke-width:2;stroke-miterlimit:10;}
	.st11{font-size:36px;}
	.st12{fill:#69A682;}
	.st13{fill:#FFFFFF;stroke:#939393;stroke-miterlimit:10;}
</style>
<g id="Layer_1">
	<g id="Street_name">
		<g id="Sign">
			<path id="blue_sign_2_" class="st0" d="M1336,751H19.3c-6.6,0-12-8.5-12-18.9V49.9c0-10.4,5.4-18.9,12-18.9H1336
				c6.6,0,12,8.5,12,18.9v682.2C1348,742.5,1342.6,751,1336,751z"/>
			<g id="green_line">
				<path class="st1" d="M1318.9,731H38.3c-6.7,0-12.1-8.9-12.1-19.8V66.8c0-10.9,5.5-19.8,12.1-19.8h1280.6
					c6.7,0,12.1,8.9,12.1,19.8v644.4C1331,722.1,1325.5,731,1318.9,731z"/>
			</g>
			<ellipse class="st2" cx="75.8" cy="107" rx="7" ry="13.5"/>
			<ellipse class="st2" cx="75.8" cy="692.6" rx="7" ry="13.6"/>
			<ellipse class="st2" cx="1288.9" cy="692.6" rx="6.8" ry="13.6"/>
			<ellipse class="st2" cx="1282.1" cy="107" rx="7.4" ry="15.5"/>
		</g>
	</g>
</g>
<g id="arrow">
	<path id="arrow_1_" class="st3" d="M261.3,592.8c0-2.3,0-4.5,0-6.8c-0.4-1.9-1.6-0.6-2.5-0.6c-4.8,1.3-9.6,2.6-14.4,3.9
		c-2,0.5-3.9,0.6-5.3-0.9c-1.5-1.7-1.4-3.7-0.3-5.5c10.7-17.1,21.5-34.3,32.6-51.9c7.6,12,14.9,23.5,22.2,35.1
		c3.6,5.8,7.2,11.5,10.9,17.2c1.2,1.8,1.8,3.8,0,5.3c-1.6,1.4-3.4,2-6,1c-4.5-1.7-9.4-2.1-14-3.7c-3.1-1.1-2.7,0.3-2.7,2.1
		c0,11.9,0,23.8,0,35.6c0.4,0.2,0.7,0.5,0.9,0.4c10.6-6,22.3-5.5,34-5.4c5.5,0.1,5.5,0,4-4.7c-1.2-3.7-2.2-7.5-3.5-11.2
		c-0.8-2.1-0.7-4,1.1-5.3c2-1.4,4.2-1.1,6.2,0.1c8.3,4.7,16.7,9.4,25.1,14.2c9.6,5.4,19.2,10.8,29.1,16.4
		C359.8,639,341.4,649.5,323,660c-1.7,0.9-3.7,1.6-5.1,0.5c-1.8-1.4-1.8-3.7-1.2-5.8c1.1-4,2.4-8,3.6-12.1c0.4-1.3,0.8-2.7,1.2-4.3
		c-6.5,0-12.7-0.3-18.8,0.1c-9.5,0.6-16.9,7.1-19.7,16.7c-0.1,1.4-0.2,2.8-0.3,4.2c0,0.6,0,1.1,0,1.7c0,0.3,0,0.6,0,0.9
		c-0.1,5.9-0.4,11.7-0.3,17.6c0,2.6-0.5,3.8-3.6,3.6c-5.7-0.3-11.5-0.2-17.3-0.2c-0.1-19.1-0.1-38.1-0.2-57.2
		C261.3,614.7,261.3,603.7,261.3,592.8z"/>
</g>
<g id="about_sans_serif">
	<rect x="534.8" y="94.1" class="st4" width="296.5" height="108.9"/>
	<text transform="matrix(1 0 0 1 562.7893 159.9619)" class="st5 st6 st7">About</text>
</g>
<g id="about" class="st8">
	<path class="st9" d="M490.2,203.6c7.8-31.9,15.4-63.1,23-94.2c0.3-1.3,1-2.4,1.5-3.7c3-9,3.8-23.5,9.5-25.8
		c10.7-4.3,24.3-2.1,36.6-1.5c2.8,0.1,6.9,4.3,7.7,7.4c9.2,34.9,18.1,69.8,26.2,105c1,4.4-2,13.3-5.1,14.3
		c-7.7,2.6-15.7,1.5-16.4-10.5c-0.4-7.4-3.1-14.6-5-21.8c-0.5-2-1.8-5.4-3-5.5c-12.8-1.7-25.8-4.2-38.5-3.3
		c-3.8,0.3-7.2,10.3-10.1,16.3c-1.3,2.6-0.4,6.1-0.9,9.2C513,205.9,509.7,207.9,490.2,203.6z M525.9,146c9.4,0,15.6-0.6,21.6,0.1
		c10.2,1.2,12.6-3.5,10.6-12.5c-2.2-10.3-3.7-20.9-6.7-31c-1-3.3-5.6-7.1-9-7.7c-2.3-0.4-7.4,3.9-8.1,6.9
		C531.1,115.7,528.9,129.9,525.9,146z"/>
	<path class="st9" d="M626.1,121.4c27.3-11.7,42.8-3,45.8,25.2c1.4,13.2-0.7,27.4-3.9,40.4c-3.7,15.2-22.9,20.6-36.6,12.5
		c-2.9-1.7-8.8,2.4-11.9,3.8c-7.8,3.5-10.1-3.6-10.2-11.1c-0.1-33.5-0.2-67,0.4-100.5c0.1-3.1,4.5-8.1,7.8-8.9
		c6.9-1.6,8.7,3.7,8.6,9.7C626,101.6,626.1,110.8,626.1,121.4z M654.3,159.5c-0.4-6.3,0.5-12.9-1.7-18.1c-1.8-4.3-7.2-9.5-11.4-9.8
		c-3.9-0.3-11.3,5.1-11.7,8.5c-1.3,12.9-1.3,26.1,0.2,38.9c0.4,3.4,8.1,8.7,12,8.3c4-0.4,9.2-5.9,10.9-10.3
		C654.8,171.8,653.9,165.2,654.3,159.5z"/>
	<path id="o_2_" class="st9" d="M749.6,162.9c0,4.4-0.2,8.9,0.1,13.2c1.7,29.8-31.8,35.4-49.5,25.7c-1.4-0.8-2.8-1.7-4-2.6
		c-15.9-13.3-14.8-62.8,1.9-75.1c11.1-8.2,23.9-7.1,35.6-2.7c11,4.1,16.3,13.7,16.1,25.8C749.5,152.4,749.6,157.7,749.6,162.9z
		 M735.1,161.9c-1.2-6.5-1-13.6-4-18.8c-2.5-4.3-8.9-8.8-13.5-8.6c-4.4,0.1-11.9,5.6-12.4,9.5c-1.6,12.1-1.4,24.7,0.1,36.8
		c0.5,3.7,7.6,9.3,11.6,9.3c4.8,0,11.3-4.2,13.8-8.4C733.9,176.2,733.8,168.7,735.1,161.9z"/>
	<path id="u_1_" class="st10" d="M810.6,198.9c-11.1,7.5-20.4,6.1-28.7,5.5c-10-0.8-18.8-6.5-19.3-18.4c-0.8-19.6-1.7-39.2-1.5-58.8
		c0-2.8,5-8.8,9.1-8.5c3.8,0.2,7.1,5.6,7.1,8.6c0.8,15.1,0.7,30.2,0.3,45.3c-0.2,9.3,2.3,16.6,12.8,17.1
		c11.3,0.5,14.6-8.1,15.1-16.9c0.8-13.8,0.2-27.7,0.2-41.7c0-5.6-1.2-12,7.8-12.3c10.1-0.3,8.3,7,8.3,12.8c0.2,19.3,0.2,38.5,0,57.6
		c0,4.2,1,10.5-2.7,12.6C815.7,203.9,811.6,199.3,810.6,198.9z"/>
	<path id="t_1_" class="st10" d="M846.1,156.4c0-6.7,0.8-13.4-0.2-19.6c-0.6-4.3-3.2-8.9-6.5-11.5c-6.5-5.5-7.3-13-1.2-15.8
		c8.1-4,8.7-9.3,8.1-16.6c-0.6-7.1,1.8-10.3,8.9-10.3c6.9,0,11.1,2.2,10.5,10.5c-0.6,9.1,0.6,16,11.7,15c1.8-0.2,5.7,5.1,5.5,7.5
		c-0.2,3.2-3.2,9.3-5.3,9.3c-11.7,0-10.5,8.5-10.5,16.6c0,8.9,0.2,17.8-0.2,26.9c-0.4,9.5,0.2,17.4,10.9,20.8
		c2.4,0.8,4.5,8.1,4.3,12.3c-0.2,1.8-6.7,5.1-9.9,4.7c-17.2-2-26.1-13.6-26.3-32.4C846.1,167.7,846.1,162,846.1,156.4z"/>
</g>
<g id="text">
	<rect x="130.7" y="206.1" class="st4" width="1117.2" height="321.4"/>
	<text transform="matrix(1 0 0 1 137.6522 231.8706)"><tspan x="0" y="0" class="st5 st6 st11">I hold a bachelor in Marketing Management from IPS Portuguese uni</tspan><tspan x="1091.3" y="0" class="st5 st6 st11">-</tspan><tspan x="13.8" y="43.2" class="st5 st6 st11">versity and a bachelor in International Sales and Marketing from the </tspan><tspan x="-6.6" y="86.4" class="st5 st6 st11">Copenhagen Business Academy. Currently I am finishing the Multime</tspan><tspan x="1097.9" y="86.4" class="st5 st6 st11">-</tspan><tspan x="27.8" y="129.6" class="st5 st6 st11">dia Design and Communication program at KEA, Copenhagen,  in </tspan><tspan x="40.6" y="172.8" class="st5 st6 st11">order to broaden my knowledge and skills in communication and </tspan><tspan x="493.5" y="216" class="st5 st6 st11">design.</tspan><tspan x="39.9" y="259.2" class="st5 st6 st11">I have 7 years of professional experience in sales and marketing</tspan></text>
</g>
<g id="mail">
	<rect x="479" y="589" class="st12" width="152" height="94"/>
	<path class="st13" d="M582.9,666c-22.9,0-45.8,0-68.7,0c-0.2-0.1-0.3-0.1-0.5-0.2c-5.7-1.1-9.7-5.9-9.7-11.7c0-13.7,0-27.4,0-41
		c0-4.9,2.3-8.5,6.7-10.7c1.1-0.6,2.3-0.8,3.5-1.2c22.9,0,45.8,0,68.7,0c0.2,0.1,0.4,0.1,0.5,0.2c5.5,1.1,9.6,6,9.6,11.6
		c0,13.7,0,27.4,0,41.1c0,4.9-2.9,9.3-7.5,11.1C584.7,665.5,583.8,665.7,582.9,666z M587.8,607.7c-1.9-2.2-4.2-3.2-7-3.2
		c-21.5,0-43,0-64.5,0c-0.6,0-1.3,0-1.9,0.2c-1.6,0.3-3,1-4.2,2.1c0.2,0.2,0.3,0.3,0.4,0.4c12.4,12.4,24.8,24.8,37.2,37.3
		c1.1,1.1,1.9,1.1,3,0c9.9-9.8,19.7-19.7,29.6-29.5C582.9,612.5,585.3,610.2,587.8,607.7z M510,660.2c1.7,1.7,3.8,2.4,6.2,2.4
		c15,0,30,0,45,0c6.6,0,13.2,0,19.8,0c2.5,0,4.7-0.9,6.3-2.7c-7.8-7.8-15.6-15.7-23.6-23.7c-0.2,0.2-0.3,0.5-0.5,0.8
		c-3.4,3.4-6.7,6.7-10.1,10.1c-2.3,2.3-5.3,2.3-7.6,0c-3.5-3.5-7.1-7.1-10.6-10.6c-0.2-0.2-0.5-0.5-0.6-0.6
		C526.2,644,518.1,652.1,510,660.2z M531.5,633.3c-7.8-7.8-15.6-15.6-23.6-23.7c-0.2,1.2-0.5,2.3-0.5,3.5c0,13.6,0,27.3,0,40.9
		c0,1,0.3,2,0.4,3C515.8,649,523.7,641.1,531.5,633.3z M589.5,611c-7.7,7.7-15.3,15.3-22.8,22.8c7.5,7.5,15.1,15.1,22.7,22.7
		c0.1-0.8,0.3-1.7,0.3-2.5c0-13.6,0-27.1,0-40.7C589.7,612.5,589.6,611.8,589.5,611z"/>
</g>
<g id="phone">
	<rect x="662.2" y="586.6" class="st12" width="105.8" height="94"/>
	<path class="st13" d="M726,667c-6.6-1.1-14.3-3.6-21.1-7.8c-9.8-6.1-18.3-13.7-24.1-23.5c-3.2-5.4-5.5-11.4-7.3-17.4
		c-2.1-6.8,0.8-12.8,5.5-17.9c2.4-2.6,6-2.7,9.4-2.9c0.7-0.1,1.8,0.9,2.3,1.7c2.7,4.3,5.3,8.7,8,13c1,1.7,0.7,3.1-0.7,4.4
		c-1.9,1.7-3.9,3.3-5.9,5c-2,1.7-2.2,3.4-0.9,5.7c5.4,9.8,13.1,17.2,23.3,22.4c2.4,1.2,4.4,1.2,6.1-1c1.5-1.8,3.2-3.6,4.8-5.3
		c1.4-1.5,2.9-1.9,5-0.8c4.3,2.5,8.7,4.9,13.1,7.3c1.7,0.9,2.2,2.1,1.9,4C743.8,661.8,736.6,667.2,726,667z"/>
</g>
<g id="linkedin">
	<rect x="787.1" y="589" class="st12" width="108.5" height="94"/>
	<g>
		<path class="st13" d="M846.4,620c9.1-5,18.9-3.5,24.6,3.6c2.8,3.4,4.3,7.5,4.4,11.8c0.2,9.3,0.1,18.5,0.2,27.8
			c0,2-0.9,2.7-2.8,2.7c-4.5-0.1-9,0-13.5,0c-2.8,0-3.2-0.4-3.2-3.1c0-7.7,0-15.3,0-23c0-1.1-0.1-2.2-0.3-3.2
			c-0.4-2.4-1.7-3.5-3.8-3.8c-2.6-0.3-4.4,0.7-5.2,3c-0.4,1.1-0.5,2.3-0.5,3.4c0,7.8,0,15.6,0,23.4c0,2.9-0.4,3.3-3.2,3.3
			c-4.5,0-9,0-13.5,0c-2,0-2.9-0.9-2.9-2.8c0-14.4,0-28.8,0-43.2c0-2,1-2.8,3-2.8c4.4,0,8.8,0.1,13.2,0
			C845.1,617,846.3,617.7,846.4,620z M830.8,621.1c0,13.8,0,27.3,0,40.9c3.9,0,7.6,0,11.6,0c0-0.8,0-1.5,0-2.3c0-6.7,0-13.5,0-20.2
			c0-1.4,0.1-2.8,0.5-4.1c1.1-4.4,4.6-7,9.1-6.6c4.5,0.3,7.4,3.4,7.8,8.1c0.1,1.1,0.1,2.2,0.1,3.3c0,6.5,0,13,0,19.5
			c0,0.8,0.1,1.5,0.1,2.2c4,0,7.8,0,11.4,0c0-9.3,0.4-18.4-0.1-27.5c-0.3-5.9-3.4-10.7-9.4-12.6c-6.1-1.9-11.7-1.2-16,4.3
			c-0.4,0.5-1.5,0.9-2,0.7c-0.6-0.3-1.3-1.2-1.4-1.9c-0.2-1.2-0.1-2.5-0.1-3.9C838.4,621.1,834.7,621.1,830.8,621.1z"/>
		<path class="st13" d="M805.3,641.4c0-7,0-14,0-21.1c0-2.8,0.4-3.3,3.3-3.3c4.3,0,8.7,0,13,0c2.6,0,3.1,0.5,3.1,3
			c0,14.3,0,28.5,0,42.8c0,2.6-0.4,3-3.1,3c-4.4,0-8.8,0-13.2,0c-2.7,0-3.1-0.4-3.1-3.2C805.3,655.6,805.3,648.5,805.3,641.4z
			 M809.2,662c4,0,7.7,0,11.6,0c0-13.7,0-27.2,0-40.9c-3.9,0-7.7,0-11.6,0C809.2,634.8,809.2,648.3,809.2,662z"/>
		<path class="st13" d="M805.4,606.9c0-5.4,4.1-9.4,9.8-9.4c5.5,0.1,9.5,3.9,9.5,9.2c0.1,5.5-4,9.3-9.8,9.3
			C809.4,616,805.4,612.2,805.4,606.9z M815,601.4c-3.5,0-6,2.3-5.9,5.5c0.1,3.1,2.6,5.3,5.9,5.3c3.4,0,5.9-2.3,5.9-5.3
			C821,603.7,818.5,601.4,815,601.4z"/>
	</g>
</g>
</svg>
