<?xml version="1.0" encoding="utf-8"?>
<!-- Generator: Adobe Illustrator 21.1.0, SVG Export Plug-In . SVG Version: 6.00 Build 0)  -->
<svg version="1.1" xmlns="http://www.w3.org/2000/svg" xmlns:xlink="http://www.w3.org/1999/xlink" x="0px" y="0px"
	 viewBox="0 0 1366 768" style="enable-background:new 0 0 1366 768;" xml:space="preserve">
<style type="text/css">
	.st0{fill:#FFFFFF;stroke:#345E5D;stroke-width:2;stroke-miterlimit:10;}
	.st1{fill:#FFFFFF;stroke:#345E5D;stroke-width:18;stroke-miterlimit:10;}
	.st2{fill:#345E5D;stroke:#6F6F6F;stroke-width:3;stroke-miterlimit:10;}
	.st3{display:none;}
	.st4{display:inline;fill:#345E5D;stroke:#6F6F6F;stroke-width:2;stroke-miterlimit:10;}
	.st5{display:inline;}
	.st6{fill:#345E5D;stroke:#6F6F6F;stroke-width:2;stroke-miterlimit:10;}
	.st7{display:inline;fill:#345E5D;stroke:#6F6F6F;stroke-width:3;stroke-miterlimit:10;}
	.st8{fill:none;}
	.st9{font-family:'MicrosoftSansSerif';}
	.st10{font-size:36px;}
</style>
<g id="Layer_1">
	<g id="Street_name">
		<g id="Sign">
			<path id="blue_sign_2_" class="st0" d="M1344,745H27.3c-6.6,0-12-8.5-12-18.9V43.9c0-10.4,5.4-18.9,12-18.9H1344
				c6.6,0,12,8.5,12,18.9v682.2C1356,736.5,1350.6,745,1344,745z"/>
			<g id="green_line">
				<path class="st1" d="M1326.9,725H46.3c-6.7,0-12.1-8.9-12.1-19.8V60.8c0-10.9,5.5-19.8,12.1-19.8h1280.6
					c6.7,0,12.1,8.9,12.1,19.8v644.4C1339,716.1,1333.5,725,1326.9,725z"/>
			</g>
			<ellipse class="st2" cx="83.8" cy="101" rx="7" ry="13.5"/>
			<ellipse class="st2" cx="83.8" cy="686.6" rx="7" ry="13.6"/>
			<ellipse class="st2" cx="1296.9" cy="686.6" rx="6.8" ry="13.6"/>
			<ellipse class="st2" cx="1290.1" cy="101" rx="7.4" ry="15.5"/>
		</g>
		<g id="Marketer" class="st3">
			<path id="M" class="st4" d="M224.4,453.8c-1.7,5-3.5,9.9-5.1,14.9c-1.8,5.5-3.2,11.2-5,16.7c-2.5,7.8-9.4,5.2-14.1,5.5
				c-2.1,0.1-4.7,0-6.2-7c-2.1-9.7-6.1-20.1-9-29.7c-0.2-0.5-0.6-0.5-2.2-1c-0.4,2.4-0.7,4.1-0.7,5.7c0,14.8,0.1,29.5,0.1,44.3
				c0,9.5-0.2,9.7-11,8c0-3,0-6.2,0-9.4c0-17.1,0.1-34.2-0.1-51.3c-0.1-4.7,1.4-6,6-6c15.3-0.1,15.3-0.3,19.8,15.6
				c1,3.4,2.2,6.6,3.2,10c1.1,3.3,2.2,6.6,3.8,11.5c1.5-3.2,2.8-5.1,3.5-7.3c2.3-7.5,4.5-15.1,6.5-22.7c1.4-5.3,4.2-7.3,10-7.1
				c15,0.5,13-0.9,13,12.7c0.1,15.9,0,31.9,0.1,47.8c0,3.7,0.3,7.1-5.1,7.3c-5.6,0.2-5.1-3.4-5.1-7c0-16.8,0-33.7,0-50.5
				C226.1,454.3,225.3,454,224.4,453.8z"/>
			<path id="B" class="st4" d="M575,476c8.4,7.2,10.4,15.4,7.1,25c-2.3,6.7-7.6,10.8-15,10.9c-7.9,0.2-15.9-0.1-23.8,0.1
				c-4.3,0.1-5.9-1.5-5.9-5.7c0.2-18.9,0.1-37.8,0-56.8c0-3.9,1.6-4.9,5.1-4.9c8.7,0.1,17.3-0.3,26,0.1c10.7,0.5,17.3,15.4,11.2,25
				C578.5,471.8,576.9,473.5,575,476z M547.9,491.7c0.1,12.7-1.2,11.5,10.5,11.5c9.9,0.1,14-3.1,14.2-10.8c0.1-8.9-3.5-11.4-16-11.4
				C547.9,481.1,547.9,481.1,547.9,491.7z M558.3,453.3c-10.4,0-10.4,0-10.4,7.3c0,11.4,0,11.4,9.4,11.4c10.8,0,13.1-1.7,13-10
				C570.2,455,568,453.3,558.3,453.3z"/>
			<path id="k" class="st4" d="M338,485.6c2.8-4.1,5.6-8.1,8.3-12.3c2.8-4.4,6.4-5.6,12.5-3.4c-3.5,5.1-6.5,10-10.1,14.4
				c-3.4,4-2.8,7.1,0.4,10.9c3.9,4.6,7.1,9.7,10.9,15c-6.8,3.3-10.5,1.2-13.6-4.2c-2.5-4.4-5.8-8.5-8.8-12.7
				c-0.6,0.1-1.2,0.3-1.8,0.4c0,4,0,8,0,12.1c0,3,0.4,6.1-4.2,6.1c-4.2,0-3.9-2.9-3.9-5.7c0-16.8-0.1-33.7,0.2-50.5
				c0-1.8,1.9-4.7,3.5-5.1c3.7-1,4.4,1.9,4.4,5c0,8.8,0,17.7,0.1,26.5c0,1,0.3,1.9,0.4,2.9C336.9,485.1,337.5,485.4,338,485.6z"/>
			<path id="u" class="st4" d="M621.3,508.4c-6.7,4.5-12.3,3.7-17.3,3.3c-6-0.5-11.3-3.9-11.6-11.1c-0.5-11.8-1-23.6-0.9-35.4
				c0-1.7,3-5.3,5.5-5.1c2.3,0.1,4.3,3.4,4.3,5.2c0.5,9.1,0.4,18.2,0.2,27.3c-0.1,5.6,1.4,10,7.7,10.3c6.8,0.3,8.8-4.9,9.1-10.2
				c0.5-8.3,0.1-16.7,0.1-25.1c0-3.4-0.7-7.2,4.7-7.4c6.1-0.2,5,4.2,5,7.7c0.1,11.6,0.1,23.2,0,34.7c0,2.5,0.6,6.3-1.6,7.6
				C624.4,511.4,621.9,508.6,621.3,508.4z"/>
			<path id="n" class="st4" d="M709.9,465.1c3.9-6,10.8-6.2,17.5-3.6c7.5,3,9.7,9.8,9.6,17.5c-0.1,8.6-0.2,17.2,0,25.8
				c0.1,4.3-0.7,7.3-5.8,7.2c-5.2-0.1-5.6-3.4-5.6-7.5c0.1-8.8,0-17.7,0-26.5c0-5.2-2-8.8-7.8-8.3c-5.3,0.4-7.6,3.6-7.5,8.9
				c0.1,8.8-0.1,17.7,0.1,26.5c0.1,4.6-1.3,7-6.2,6.9c-4.8-0.1-5.5-2.9-5.4-6.9c0.1-11.6-0.1-23.1,0.1-34.7c0.1-2.7,1.3-6.7,2-9.4
				C708.4,457.8,705.7,465.4,709.9,465.1z"/>
			<path id="t" class="st4" d="M411.4,487.5c0-3.3,0.4-6.6-0.1-9.7c-0.3-2.1-1.6-4.4-3.2-5.7c-3.2-2.7-3.6-6.4-0.6-7.8
				c4-2,4.3-4.6,4-8.2c-0.3-3.5,0.9-5.1,4.4-5.1c3.4,0,5.5,1.1,5.2,5.2c-0.3,4.5,0.3,7.9,5.8,7.4c0.9-0.1,2.8,2.5,2.7,3.7
				c-0.1,1.6-1.6,4.6-2.6,4.6c-5.8,0-5.2,4.2-5.2,8.2c0,4.4,0.1,8.8-0.1,13.3c-0.2,4.7,0.1,8.6,5.4,10.3c1.2,0.4,2.2,4,2.1,6.1
				c-0.1,0.9-3.3,2.5-4.9,2.3c-8.5-1-12.9-6.7-13-16C411.4,493.1,411.4,490.3,411.4,487.5z"/>
			<path id="dot" class="st4" d="M516.8,508.2c0.3,2.5-1.3,3.8-4.3,3.8c-3.1,0-5.1-1.1-5.1-4.3c0-3,1.8-4.7,4.8-4.8
				C515.2,502.8,516.8,504.7,516.8,508.2z"/>
			<path id="a2" class="st4" d="M272.9,506.7c-7,5.7-13.1,6.5-20.2,2.4c-6.8-3.9-7.2-10.3-6.2-16.8c0.9-6.1,8.5-11.3,16-12.5
				c3.4-0.6,6.6-2.5,9.6-4.3c0.2-0.1-1.8-5.6-2.5-5.5c-3.7,0.3-7.3,1.8-11,2.5c-2.8,0.6-5.7,0.7-8.6,1c0.6-3,0.3-6.7,2-8.8
				c5.4-6.4,13.2-5.4,20.2-4c6.1,1.2,10.1,6,10.4,12.2c0.7,10.9,0.8,21.9,0.8,32.8c0,1.3-2.2,3.8-3.2,3.8
				C277.9,509.3,275.8,507.9,272.9,506.7z M272.5,491.5c-0.6-0.6-2.4-3.8-3.9-3.6c-5.1,0.5-11.5,1-11.6,7.8c0,2.3,3.5,6.1,6,6.8
				C268,503.8,272,499.4,272.5,491.5z"/>
			<path id="r2" class="st4" d="M302.9,464c4.3-1.6,8.1-3.6,12.1-4.1c1.6-0.2,4.7,2.9,5.2,5c0.9,3.7-1.6,4.7-5.3,4.6
				c-7.7-0.2-9.8,2.3-9.9,10.2c-0.1,8.2-0.2,16.4,0,24.7c0.1,4.2-0.3,7.3-5.6,7.4c-5.1,0.1-6.1-2.6-6.1-7
				c0.1-12.2-0.1-24.4,0.2-36.6c0.1-2.4,0.3-6.1,2.6-7.1C298.4,460.1,300.9,463.2,302.9,464z"/>
			<path id="e2" class="st4" d="M375.4,488.8c-0.6,5.9-2.1,11.6,4.6,13.5c2.2,0.6,5-1.1,7.4-2.1c3-1.1,5.8-2.6,9.2-4.1
				c1.4,7.1,0,11.2-4.7,13.1c-14.1,5.8-25.7,2.5-27.8-16.3c-0.8-7.7,0.8-16,2.6-23.7c1.6-6.9,8.6-9.9,17.4-9.1
				c6.7,0.6,11.4,5,12.8,11.8c3.3,16.8,3.3,16.8-13.3,17C381,488.9,378.3,488.8,375.4,488.8z M390.3,479.6c-2.4-4.3-3.5-7.9-5.9-9.9
				c-1.2-1.1-5.5-0.6-6.7,0.7c-1.9,2.1-2.3,5.6-3.6,9.2C380,479.6,384,479.6,390.3,479.6z"/>
			<path id="e3" class="st4" d="M449.4,488.7c-0.6,5.9-2.2,11.7,4.9,13.6c2.3,0.6,5.2-1.1,7.8-2.1c3.1-1.2,6.1-2.6,9.6-4.1
				c1.4,7.1,0,11.3-4.9,13.2c-14.7,5.8-26.9,2.5-29-16.5c-0.9-7.8,0.9-16.1,2.7-23.9c1.6-6.9,9-10,18.2-9.2c7,0.6,11.9,5,13.3,11.9
				c3.5,16.9,3.5,16.9-13.9,17.1C455.2,488.7,452.4,488.7,449.4,488.7z M465,479.3c-2.5-4.4-3.7-7.9-6.1-10c-1.3-1.1-5.7-0.6-7,0.7
				c-2,2.1-2.4,5.7-3.8,9.3C454.2,479.3,458.4,479.3,465,479.3z"/>
			<path id="r3" class="st4" d="M494.2,463.9c4.4-1.6,8.3-3.6,12.4-4.1c1.6-0.2,4.8,2.9,5.3,5c0.9,3.7-1.6,4.7-5.4,4.6
				c-7.9-0.2-10,2.3-10.1,10.2c-0.1,8.2-0.2,16.4,0,24.7c0.1,4.2-0.3,7.3-5.7,7.4c-5.2,0.1-6.3-2.6-6.2-7
				c0.1-12.2-0.1-24.4,0.2-36.6c0.1-2.4,0.3-6.1,2.6-7.1C489.6,459.9,492.1,463,494.2,463.9z"/>
			<path id="s2" class="st4" d="M652.2,511.6c-4.9-0.6-9.6-3.2-13.6-6c-1.8-1.3-3.9-6.2-2-8.4c1.9-2.1,5.6,0.4,8.3,1
				c1.2,0.3,2.2,2.5,3.2,2.4c3.6-0.3,8.5,0,10.5-2.1c3.2-3.4-0.9-5.7-3.8-7.7c-5.8-4-12-7.7-16.7-12.8c-1.9-2.1-1.4-8,0.3-11
				c5.2-9.4,23.9-9.4,28.8-0.4c1,1.9,2.5,5.1,0.9,6.7c-2.1,2.2-6.2-0.2-9.1-0.9c-2-0.5-3.6-3-5.5-3.2s-5.1,0.3-5.9,2.2
				c-0.9,2.1,1.3,4.8,2.9,6.1c2.6,2.2,6,3.4,9.1,5c8.4,4.4,12.2,11,10.2,18.3C668.3,506.7,661.9,512.8,652.2,511.6z"/>
			<g id="i2" class="st5">
				<path class="st6" d="M689.6,490.1c0,5.8,0.4,11.5-0.2,17.2c-0.2,1.8-3,4.6-4.4,4.5c-1.8-0.1-4.9-2.7-5-4.2
					c-0.4-12.2-0.4-24.3,0-36.5c0.1-1.5,3.3-3.7,5.3-3.9c1.2-0.2,3.9,2.7,4.1,4.3C689.9,477.7,689.6,483.9,689.6,490.1z"/>
				<path class="st6" d="M686.6,446.2c2.2,1.2,3.1,4.2,3.5,6.6c0.6,3.6-1.3,5.9-5.4,5.6c-3.6-0.2-5.9-1.4-6-5.5
					C678.7,448.6,681.3,443.4,686.6,446.2z"/>
			</g>
			<path id="e4" class="st4" d="M757.3,488.8c-0.6,5.9-2.2,11.6,4.8,13.5c2.2,0.6,5.2-1.1,7.7-2.1c3.1-1.1,6.1-2.6,9.6-4.1
				c1.4,7.1,0,11.2-4.9,13.2c-14.6,5.8-26.8,2.5-28.9-16.4c-0.9-7.8,0.9-16,2.7-23.8c1.6-6.9,9-10,18.1-9.2
				c6.9,0.6,11.9,5,13.3,11.8c3.5,16.8,3.5,16.8-13.9,17.1C763.1,488.8,760.3,488.8,757.3,488.8z M772.8,479.5
				c-2.5-4.4-3.7-7.9-6.1-10c-1.3-1.1-5.7-0.6-7,0.7c-2,2.1-2.4,5.6-3.8,9.3C762.1,479.5,766.2,479.5,772.8,479.5z"/>
			<path id="s3" class="st4" d="M806.3,511.7c-4.9-0.6-9.6-3.2-13.6-6c-1.8-1.3-3.9-6.2-2-8.4c1.9-2.1,5.6,0.4,8.3,1
				c1.2,0.3,2.2,2.5,3.2,2.4c3.6-0.3,8.5,0,10.5-2.1c3.2-3.4-0.9-5.7-3.8-7.7c-5.8-4-12-7.7-16.7-12.8c-1.9-2.1-1.4-8,0.3-11
				c5.2-9.4,23.9-9.4,28.8-0.4c1,1.9,2.5,5.1,0.9,6.7c-2.1,2.2-6.2-0.2-9.1-0.9c-2-0.5-3.6-3-5.5-3.2s-5.1,0.3-5.9,2.2
				c-0.9,2.1,1.3,4.8,2.9,6.1c2.6,2.2,6,3.4,9.1,5c8.4,4.4,12.2,11,10.2,18.3C822.3,506.9,816,512.9,806.3,511.7z"/>
			<path id="s4" class="st4" d="M849.8,511.7c-4.9-0.6-9.6-3.2-13.6-6c-1.8-1.3-3.9-6.2-2-8.4c1.9-2.1,5.6,0.4,8.3,1
				c1.2,0.3,2.2,2.5,3.2,2.4c3.6-0.3,8.5,0,10.5-2.1c3.2-3.4-0.9-5.7-3.8-7.7c-5.8-4-12-7.7-16.7-12.8c-1.9-2.1-1.4-8,0.3-11
				c5.2-9.4,23.9-9.4,28.8-0.4c1,1.9,2.5,5.1,0.9,6.7c-2.1,2.2-6.2-0.2-9.1-0.9c-2-0.5-3.6-3-5.5-3.2s-5.1,0.3-5.9,2.2
				c-0.9,2.1,1.3,4.8,2.9,6.1c2.6,2.2,6,3.4,9.1,5c8.4,4.4,12.2,11,10.2,18.3C865.8,506.9,859.5,513,849.8,511.7z"/>
			<path id="e5" class="st4" d="M903.1,488.8c-0.6,5.9-2.2,11.6,4.8,13.5c2.2,0.6,5.2-1.1,7.7-2.1c3.1-1.1,6-2.6,9.6-4.1
				c1.4,7.1,0,11.2-4.9,13.1c-14.6,5.8-26.7,2.5-28.8-16.3c-0.9-7.7,0.9-16,2.7-23.7c1.6-6.9,8.9-9.9,18-9.1
				c6.9,0.6,11.8,5,13.2,11.8c3.5,16.8,3.5,16.8-13.8,17C908.9,488.8,906.1,488.8,903.1,488.8z M918.6,479.5
				c-2.5-4.3-3.7-7.9-6.1-9.9c-1.3-1.1-5.7-0.6-6.9,0.7c-1.9,2.1-2.4,5.6-3.8,9.2C907.9,479.5,912.1,479.5,918.6,479.5z"/>
			<path id="x" class="st4" d="M955.6,490.4c-2.9,5.8-4.7,10.5-7.4,14.6c-1.8,2.7-4.6,5.7-7.5,6.5c-4.3,1.2-6.2-1.4-4-5.8
				c0.7-1.3,1.5-2.6,2.5-3.8c9.6-11.6,8.3-22.9-0.3-34.5c-1.3-1.7-0.4-5-0.5-7.5c3.3,1.3,7.7,1.7,9.5,4.1c3.3,4.3,4.9,9.9,8,16.4
				c2.7-4.4,4.8-7.9,6.8-11.3c1.4-2.4,2.3-5.5,4.3-7.1c1.8-1.4,4.9-1.1,7.4-1.6c0,2,0,4.1-0.1,6.1c0,0.4-0.5,0.9-0.8,1.3
				c-10.5,12.5-8.2,24.5,0.9,36.6c1.2,1.6,0.3,4.6,0.4,7c-2.9-0.8-6.9-0.7-8.4-2.6C962.5,503.6,959.6,497.5,955.6,490.4z"/>
			<path id="p_2_" class="st4" d="M996.8,508.1c0,5.2,0.5,9.5-0.2,13.7c-0.4,2.3-2.9,4.3-4.5,6.4c-1.9-1.9-5.3-3.9-5.3-5.8
				c-0.4-18.7-0.3-37.3-0.2-56c0-1.6,1.7-4.6,2.5-4.5c2.2,0.2,4.4,1.5,6.9,2.6c10.6-6.8,20.4-6.1,24.6,3.1c5.4,12,5.3,24.8,0.2,36.9
				C1017.2,512.8,1008.2,514.1,996.8,508.1z M1013.7,486.3C1013.8,486.3,1013.7,486.3,1013.7,486.3c-0.2-3.6,0.3-7.4-0.9-10.6
				c-1.1-2.7-4-5.9-6.5-6.3c-2.2-0.3-6.9,2.7-7.2,4.7c-0.9,7.8-1.1,15.8-0.3,23.5c0.2,2,5.4,5.3,7.7,4.9c2.6-0.4,5.3-4.2,6.6-7.1
				C1014.2,492.9,1013.7,489.4,1013.7,486.3z"/>
			<path id="l" class="st4" d="M1034.6,477.6c0-7.1,0-14.2,0-21.3c0-3.2,0.4-5.8,4.6-6c4.5-0.1,4.4,2.9,4.4,5.9
				c0,12.7,0.1,25.5,0,38.2c0,4.1,0.4,7.7,4.2,10.5c1.2,0.9,2.3,3.7,1.1,5.5c-1.3,2-3.7,1.8-5.3,1.1c-5-2-8.3-4.7-8.5-10.1
				C1034.8,493.5,1034.6,485.5,1034.6,477.6C1034.4,477.6,1034.7,477.6,1034.6,477.6z"/>
			<path id="o2" class="st4" d="M1096.1,486.4c0,2.6-0.1,5.2,0,7.8c1,17.6-18.8,20.9-29.2,15.2c-0.8-0.5-1.6-1-2.4-1.6
				c-9.4-7.8-8.7-37.1,1.1-44.3c6.6-4.8,14.1-4.2,21-1.6c6.5,2.4,9.6,8.1,9.5,15.2C1096,480.2,1096,483.3,1096.1,486.4z
				 M1087.5,485.8c0-3.9-0.6-8-2.4-11.1c-1.5-2.5-5.3-5.2-7.9-5.1s-7,3.3-7.3,5.6c-0.9,7.1-0.8,14.6,0.1,21.7
				c0.3,2.2,4.5,5.5,6.9,5.5c2.8,0,6.7-2.4,8.1-5C1086.8,494.2,1087.5,489.9,1087.5,485.8z"/>
			<path id="r4_1_" class="st4" d="M1115.6,464.2c4.3-1.5,8.2-3.6,12.3-4.1c1.6-0.2,4.8,2.9,5.3,5c0.9,3.7-1.6,4.7-5.4,4.6
				c-7.8-0.2-10,2.3-10,10.2c-0.1,8.2-0.2,16.4,0,24.6c0.1,4.2-0.3,7.3-5.7,7.4c-5.2,0.1-6.2-2.6-6.2-7c0.1-12.2-0.1-24.3,0.2-36.5
				c0.1-2.4,0.3-6,2.6-7C1111,460.3,1113.5,463.3,1115.6,464.2z"/>
			<path id="e6" class="st4" d="M1148,488.9c-0.6,5.9-2.2,11.6,4.8,13.4c2.2,0.6,5.2-1.1,7.7-2.1c3.1-1.1,6-2.6,9.6-4.1
				c1.4,7.1,0,11.2-4.9,13.1c-14.6,5.8-26.6,2.5-28.8-16.3c-0.9-7.7,0.9-16,2.7-23.7c1.6-6.8,8.9-9.9,18-9.1
				c6.9,0.6,11.8,5,13.2,11.8c3.5,16.7,3.5,16.7-13.8,17C1153.8,488.9,1151,488.9,1148,488.9z M1163.5,479.7
				c-2.5-4.3-3.7-7.8-6.1-9.9c-1.3-1.1-5.7-0.6-6.9,0.7c-1.9,2.1-2.4,5.6-3.8,9.2C1152.8,479.7,1156.9,479.7,1163.5,479.7z"/>
			<path id="r5" class="st4" d="M1188.4,463.9c4.4-1.6,8.3-3.6,12.4-4.1c1.6-0.2,4.8,2.9,5.3,5c0.9,3.7-1.6,4.7-5.4,4.6
				c-7.9-0.2-10,2.3-10.1,10.2c-0.1,8.2-0.2,16.5,0,24.7c0.1,4.2-0.3,7.3-5.7,7.4c-5.2,0.1-6.3-2.6-6.2-7
				c0.1-12.2-0.1-24.4,0.2-36.6c0.1-2.4,0.3-6.1,2.6-7.1S1186.3,463.1,1188.4,463.9z"/>
			<path id="dot2" class="st4" d="M1212.3,508.2c0.3,2.4-1.4,3.8-4.6,3.8s-5.4-1.1-5.4-4.2c0-2.9,1.9-4.7,5-4.7
				C1210.6,502.9,1212.3,504.7,1212.3,508.2z"/>
		</g>
		<g id="Rosa_Pires" class="st3">
			<path id="R_1_" class="st7" d="M286.4,400.4c-18,6-30.1,5.3-37.1-12.7c-5.4-13.9-14.2-26.6-19.7-40.5
				c-5.2-13.1-15.3-14.6-25.3-11.3c-4.3,1.4-7.4,11.2-8,17.5c-1.3,12.7-0.8,25.6-0.5,38.4c0.2,9.3-4.8,13.8-12.8,11.3
				c-4.9-1.5-11.7-7.9-11.7-12.2c-0.8-47.1-0.3-94.2-0.7-141.3c-0.1-10.9,4.5-14.1,14.7-13.8c19.2,0.5,38.4-0.1,57.6,0.1
				c18,0.2,30.6,9.8,35.6,27.3c7.3,25.6,6.9,49.4-17.7,66.7c-9.7,6.8-4.8,14-0.9,21.2C268.6,367.2,277.2,383.3,286.4,400.4z
				 M196,312.4c15.7,0,29.1,1.5,42.1-0.4c16.1-2.3,18.5-15.6,17.7-29.2c-0.7-13-4.4-24.1-20.3-25.5c-40.3-3.4-40.3-3.4-39.5,36.7
				C196,299.2,196,304.3,196,312.4z"/>
			<path id="s_3_" class="st7" d="M475.1,403.3c-12.4-1.6-24.2-7.8-34.2-14.7c-4.5-3.1-9.9-15.2-4.9-20.5c4.7-5.1,14.1,0.9,20.9,2.5
				c3.1,0.7,5.6,6.1,8.1,5.9c9.1-0.7,21.4,0,26.4-5.2c8.1-8.4-2.1-13.9-9.7-19c-14.6-9.8-30.2-19-41.9-31.4
				c-4.7-5.1-3.5-19.7,0.7-27.1c13.1-23,60-23.2,72.4-1c2.6,4.6,6.4,12.5,2.4,16.5c-5.3,5.4-15.6-0.4-22.9-2.2
				c-5-1.3-9.1-7.3-13.9-7.8c-4.7-0.4-9.9,3.5-14.9,5.5c2.3,5.1,3.2,11.8,7.2,15c6.6,5.3,15.2,8.4,23,12.3
				c21.3,10.8,30.6,27.1,25.6,44.9C515.5,391.5,499.6,406.3,475.1,403.3z"/>
			<path id="a_1_" class="st7" d="M607.8,391.5c-16.8,14-31.4,15.8-48.2,5.8c-16.2-9.6-17.3-25-14.9-41
				c2.2-14.9,20.2-27.4,38.1-30.4c8.1-1.4,15.8-6.1,23-10.5c0.6-0.4-4.3-13.6-6-13.5c-8.8,0.7-17.4,4.3-26.2,6.1
				c-6.7,1.4-13.7,1.6-20.5,2.3c1.5-7.2,0.7-16.3,4.9-21.3c12.8-15.6,31.6-13.1,48.3-9.8c14.5,2.8,24,14.5,24.9,29.8
				c1.6,26.6,1.9,53.2,1.9,79.8c0,3.3-5.2,9.3-7.7,9.2C619.9,397.8,614.7,394.3,607.8,391.5z M606.9,354.3c-1.5-1.5-5.8-9.2-9.4-8.8
				c-12.2,1.1-27.4,2.3-27.7,19c-0.1,5.7,8.2,14.8,14.4,16.5C596.1,384.4,605.8,373.6,606.9,354.3z"/>
			<path id="o_1_" class="st7" d="M407.9,341.2c0,6.4-0.3,12.8,0.1,19.1c2.4,43.1-45.9,51.2-71.6,37.2c-2-1.1-4-2.4-5.8-3.8
				c-23-19.2-21.4-90.8,2.7-108.5c16.1-11.8,34.5-10.2,51.4-3.9c15.9,5.9,23.5,19.8,23.2,37.3C407.8,326.1,407.9,333.7,407.9,341.2z
				 M386.9,339.8c-1.8-9.4-1.4-19.6-5.8-27.1c-3.6-6.2-12.9-12.7-19.5-12.4c-6.4,0.2-17.2,8.1-17.9,13.7c-2.3,17.5-2,35.7,0.2,53.2
				c0.7,5.4,11,13.5,16.8,13.5c6.9,0,16.4-6,19.9-12.1C385.2,360.4,385,349.6,386.9,339.8z"/>
			<path id="e_1_" class="st7" d="M1031.9,347.5c-1.5,14.5-5.4,28.6,11.9,33.2c5.5,1.5,12.8-2.8,19-5.1c7.6-2.8,14.9-6.3,23.6-10.1
				c3.5,17.5,0,27.5-12,32.3c-35.9,14.2-65.7,6.1-70.9-40.2c-2.1-19,2.1-39.4,6.6-58.4c4-16.9,22-24.4,44.5-22.5
				c17,1.5,29.2,12.2,32.6,29c8.5,41.3,8.5,41.3-34,41.9C1046.3,347.5,1039.4,347.5,1031.9,347.5z M1070,324.6
				c-6.2-10.7-9-19.4-15-24.5c-3.2-2.7-14-1.6-17.1,1.8c-4.8,5.2-5.9,13.8-9.3,22.7C1043.8,324.6,1053.9,324.6,1070,324.6z"/>
			<path id="r_1_" class="st7" d="M941.8,286.2c10.7-3.8,20.3-8.9,30.3-10c4-0.4,11.7,7.2,12.9,12.3c2.2,9.2-3.9,11.6-13.3,11.4
				c-19.3-0.4-24.5,5.6-24.7,25c-0.2,20.2-0.4,40.3,0,60.5c0.2,10.3-0.8,18-14,18.2c-12.8,0.2-15.3-6.4-15.2-17.3
				c0.3-29.9-0.2-59.9,0.4-89.8c0.1-5.8,0.7-14.9,6.4-17.3C930.6,276.6,936.7,284.2,941.8,286.2z"/>
			<path id="s_2_" class="st7" d="M1161.7,403.3c-12.1-1.6-23.7-7.8-33.4-14.7c-4.4-3.1-9.7-15.2-4.8-20.5
				c4.6-5.1,13.8,0.9,20.4,2.5c3,0.7,5.5,6.1,8,5.9c8.9-0.7,20.9,0,25.8-5.2c7.9-8.4-2.1-14-9.5-19c-14.3-9.8-29.6-19-41-31.5
				c-4.6-5.1-3.4-19.7,0.7-27.1c12.8-23.1,58.7-23.2,70.8-1c2.5,4.6,6.2,12.5,2.3,16.5c-5.2,5.4-15.2-0.4-22.4-2.2
				c-4.9-1.3-8.9-7.3-13.6-7.8c-4.6-0.4-9.7,3.5-14.6,5.5c2.2,5.1,3.1,11.8,7,15c6.5,5.3,14.8,8.4,22.5,12.3
				c20.8,10.8,29.9,27.1,25.1,45C1201.2,391.4,1185.6,406.3,1161.7,403.3z"/>
			<g id="i_1_" class="st5">
				<path class="st2" d="M884.9,350.9c0,14,0.9,28-0.5,41.9c-0.4,4.3-7.4,11.1-11,11c-4.5-0.2-12.3-6.4-12.4-10.3
					c-1-29.5-1-59.1,0.1-88.6c0.1-3.6,8.3-8.9,13.3-9.6c3-0.4,9.8,6.5,10.1,10.5C885.6,320.7,884.9,335.8,884.9,350.9z"/>
				<path class="st2" d="M877.3,244.2c5.5,2.8,7.8,10.3,8.7,15.9c1.5,8.8-3.3,14.2-13.4,13.7c-8.8-0.5-14.8-3.5-14.9-13.4
					C857.7,250.1,864.2,237.4,877.3,244.2z"/>
			</g>
			<path id="P_1_" class="st7" d="M726.8,318c0-22.6,0.4-45.2-0.2-67.7c-0.3-10.5,3.2-14.6,13.5-14.3c18.6,0.5,37.3,1.1,55.8,0
				c19.2-1.2,29.8,10.4,36.6,25.3c18.2,40-7.1,79-50.2,79.1c-33.9,0.1-28.2-4-28.8,29.2c-0.1,6.4-0.4,12.8,0,19.1
				c0.6,9.7-1.7,15.5-12.9,14.9c-9.6-0.5-14.3-3.5-14-14.4C727.1,365.5,726.8,341.8,726.8,318L726.8,318z M753.4,257.8
				c0,11.5-0.1,20.6,0,29.7c0.6,32.7-5.1,29,29.1,28c23.8-0.7,26.8-4.3,27.6-29.3c0.6-20.5-4-31.2-27.5-28.5
				C773.9,258.7,764.9,257.8,753.4,257.8z"/>
		</g>
	</g>
</g>
<g id="about">
	<path class="st2" d="M490.2,203.6c7.8-31.9,15.4-63.1,23-94.2c0.3-1.3,1-2.4,1.5-3.7c3-9,3.8-23.5,9.5-25.8
		c10.7-4.3,24.3-2.1,36.6-1.5c2.8,0.1,6.9,4.3,7.7,7.4c9.2,34.9,18.1,69.8,26.2,105c1,4.4-2,13.3-5.1,14.3
		c-7.7,2.6-15.7,1.5-16.4-10.5c-0.4-7.4-3.1-14.6-5-21.8c-0.5-2-1.8-5.4-3-5.5c-12.8-1.7-25.8-4.2-38.5-3.3
		c-3.8,0.3-7.2,10.3-10.1,16.3c-1.3,2.6-0.4,6.1-0.9,9.2C513,205.9,509.7,207.9,490.2,203.6z M525.9,146c9.4,0,15.6-0.6,21.6,0.1
		c10.2,1.2,12.6-3.5,10.6-12.5c-2.2-10.3-3.7-20.9-6.7-31c-1-3.3-5.6-7.1-9-7.7c-2.3-0.4-7.4,3.9-8.1,6.9
		C531.1,115.7,528.9,129.9,525.9,146z"/>
	<path class="st2" d="M626.1,121.4c27.3-11.7,42.8-3,45.8,25.2c1.4,13.2-0.7,27.4-3.9,40.4c-3.7,15.2-22.9,20.6-36.6,12.5
		c-2.9-1.7-8.8,2.4-11.9,3.8c-7.8,3.5-10.1-3.6-10.2-11.1c-0.1-33.5-0.2-67,0.4-100.5c0.1-3.1,4.5-8.1,7.8-8.9
		c6.9-1.6,8.7,3.7,8.6,9.7C626,101.6,626.1,110.8,626.1,121.4z M654.3,159.5c-0.4-6.3,0.5-12.9-1.7-18.1c-1.8-4.3-7.2-9.5-11.4-9.8
		c-3.9-0.3-11.3,5.1-11.7,8.5c-1.3,12.9-1.3,26.1,0.2,38.9c0.4,3.4,8.1,8.7,12,8.3c4-0.4,9.2-5.9,10.9-10.3
		C654.8,171.8,653.9,165.2,654.3,159.5z"/>
	<path id="o_2_" class="st2" d="M749.6,162.9c0,4.4-0.2,8.9,0.1,13.2c1.7,29.8-31.8,35.4-49.5,25.7c-1.4-0.8-2.8-1.7-4-2.6
		c-15.9-13.3-14.8-62.8,1.9-75.1c11.1-8.2,23.9-7.1,35.6-2.7c11,4.1,16.3,13.7,16.1,25.8C749.5,152.4,749.6,157.7,749.6,162.9z
		 M735.1,161.9c-1.2-6.5-1-13.6-4-18.8c-2.5-4.3-8.9-8.8-13.5-8.6c-4.4,0.1-11.9,5.6-12.4,9.5c-1.6,12.1-1.4,24.7,0.1,36.8
		c0.5,3.7,7.6,9.3,11.6,9.3c4.8,0,11.3-4.2,13.8-8.4C733.9,176.2,733.8,168.7,735.1,161.9z"/>
	<path id="u_1_" class="st6" d="M810.6,198.9c-11.1,7.5-20.4,6.1-28.7,5.5c-10-0.8-18.8-6.5-19.3-18.4c-0.8-19.6-1.7-39.2-1.5-58.8
		c0-2.8,5-8.8,9.1-8.5c3.8,0.2,7.1,5.6,7.1,8.6c0.8,15.1,0.7,30.2,0.3,45.3c-0.2,9.3,2.3,16.6,12.8,17.1
		c11.3,0.5,14.6-8.1,15.1-16.9c0.8-13.8,0.2-27.7,0.2-41.7c0-5.6-1.2-12,7.8-12.3c10.1-0.3,8.3,7,8.3,12.8c0.2,19.3,0.2,38.5,0,57.6
		c0,4.2,1,10.5-2.7,12.6C815.7,203.9,811.6,199.3,810.6,198.9z"/>
	<path id="t_1_" class="st6" d="M846.1,156.4c0-6.7,0.8-13.4-0.2-19.6c-0.6-4.3-3.2-8.9-6.5-11.5c-6.5-5.5-7.3-13-1.2-15.8
		c8.1-4,8.7-9.3,8.1-16.6c-0.6-7.1,1.8-10.3,8.9-10.3c6.9,0,11.1,2.2,10.5,10.5c-0.6,9.1,0.6,16,11.7,15c1.8-0.2,5.7,5.1,5.5,7.5
		c-0.2,3.2-3.2,9.3-5.3,9.3c-11.7,0-10.5,8.5-10.5,16.6c0,8.9,0.2,17.8-0.2,26.9c-0.4,9.5,0.2,17.4,10.9,20.8
		c2.4,0.8,4.5,8.1,4.3,12.3c-0.2,1.8-6.7,5.1-9.9,4.7c-17.2-2-26.1-13.6-26.3-32.4C846.1,167.7,846.1,162,846.1,156.4z"/>
</g>
<g id="text">
	<rect x="99" y="239" class="st8" width="1184" height="238"/>
	<text transform="matrix(1 0 0 1 101.2627 264.7695)"><tspan x="0" y="0" class="st9 st10">I hold a bachelor in Marketing Management from IPS Portuguese universi</tspan><tspan x="1167.5" y="0" class="st9 st10">-</tspan><tspan x="6.2" y="43.2" class="st9 st10">ty and a bachelor in International Sales and Marketing from the Copenha</tspan><tspan x="1161.3" y="43.2" class="st9 st10">-</tspan><tspan x="25.5" y="86.4" class="st9 st10">gen Business Academy. Currently I am finishing the Multimedia Design </tspan><tspan x="18.3" y="129.6" class="st9 st10">and Communication program at KEA, Copenhagen,  in order to broaden </tspan><tspan x="153.2" y="172.8" class="st9 st10">my knowledge and skills in communication and design.</tspan></text>
</g>
<g id="mail">
	<path d="M565.1,683c-31.1,0-62.2,0-93.3,0c-0.2-0.1-0.4-0.2-0.6-0.2c-7.7-1.5-13.2-8-13.2-15.9c0-18.6,0-37.1,0-55.7
		c0-6.6,3.2-11.5,9-14.5c1.5-0.8,3.2-1.1,4.7-1.6c31.1,0,62.2,0,93.3,0c0.2,0.1,0.5,0.2,0.7,0.2c7.5,1.4,13.1,8.2,13.1,15.8
		c0,18.6,0,37.2,0,55.8c0,6.7-4,12.6-10.2,15C567.6,682.3,566.3,682.6,565.1,683z M571.7,603.9c-2.6-3-5.7-4.3-9.5-4.3
		c-29.2,0-58.4,0-87.5,0c-0.9,0-1.8,0.1-2.6,0.2c-2.1,0.4-4,1.3-5.6,2.8c0.2,0.3,0.4,0.4,0.6,0.6c16.9,16.9,33.7,33.7,50.6,50.6
		c1.5,1.5,2.6,1.5,4.1,0c13.4-13.4,26.8-26.7,40.2-40.1C565.1,610.4,568.4,607.2,571.7,603.9z M466.1,675.1c2.3,2.2,5.2,3.3,8.5,3.3
		c20.4,0,40.8,0,61.1,0c8.9,0,17.9,0,26.8,0c3.4,0,6.3-1.3,8.6-3.7c-10.6-10.7-21.2-21.3-32-32.1c-0.2,0.3-0.4,0.7-0.7,1
		c-4.5,4.6-9.1,9.1-13.7,13.7c-3.1,3.1-7.2,3.1-10.3,0c-4.8-4.8-9.6-9.6-14.4-14.4c-0.3-0.3-0.6-0.6-0.9-0.8
		C488.2,653.1,477.2,664.1,466.1,675.1z M495.3,638.7c-10.5-10.6-21.1-21.2-32-32.1c-0.3,1.6-0.7,3.2-0.7,4.7c0,18.5,0,37,0,55.5
		c0,1.3,0.4,2.7,0.6,4.1C474,660,484.7,649.2,495.3,638.7z M574,608.3c-10.5,10.5-20.8,20.8-31,31c10.2,10.2,20.5,20.5,30.9,30.9
		c0.1-1.1,0.4-2.3,0.4-3.4c0-18.4,0-36.9,0-55.3C574.4,610.4,574.2,609.4,574,608.3z"/>
</g>
<g id="phone">
	<g>
		<path d="M729.3,683c-9.4-1.6-20.2-5.1-29.9-11.1c-13.9-8.6-26-19.5-34.2-33.3c-4.6-7.7-7.8-16.2-10.4-24.7
			c-2.9-9.6,1.1-18.1,7.8-25.4c3.4-3.7,8.6-3.8,13.3-4.2c1-0.1,2.6,1.3,3.3,2.4c3.9,6.1,7.5,12.3,11.3,18.5c1.4,2.4,1,4.5-1,6.2
			c-2.7,2.4-5.6,4.7-8.4,7c-2.9,2.4-3.1,4.9-1.3,8.1c7.6,13.9,18.6,24.4,33.1,31.8c3.5,1.8,6.2,1.7,8.7-1.4c2.1-2.6,4.5-5.1,6.8-7.6
			c2-2.2,4.2-2.8,7-1.1c6.1,3.6,12.4,7,18.6,10.3c2.4,1.3,3.2,3,2.7,5.7C754.6,675.6,744.3,683.2,729.3,683z"/>
	</g>
</g>
<g id="linkedin">
	<g>
		<path d="M886.3,607.6c13.9-7.6,28.9-5.3,37.7,5.5c4.3,5.2,6.5,11.4,6.7,18.1c0.3,14.2,0.2,28.4,0.3,42.6c0,3-1.4,4.1-4.3,4.1
			c-6.9-0.1-13.8,0-20.6,0c-4.3,0-4.8-0.5-4.8-4.8c0-11.8,0-23.5,0-35.3c0-1.7-0.2-3.3-0.5-4.9c-0.7-3.6-2.6-5.4-5.9-5.8
			c-4-0.4-6.7,1-7.9,4.6c-0.6,1.6-0.8,3.5-0.8,5.2c-0.1,12,0,24,0,35.9c0,4.4-0.6,5.1-5,5.1c-6.9,0-13.8-0.1-20.6,0
			c-3.1,0.1-4.4-1.3-4.4-4.4c0-22.1,0-44.1,0-66.2c0-3.1,1.6-4.3,4.6-4.3c6.8,0.1,13.5,0.1,20.3,0C884.2,603,886.2,604,886.3,607.6z
			 M862.4,609.2c0,21.1,0,41.9,0,62.7c6,0,11.7,0,17.7,0c0-1.3,0-2.4,0-3.5c0-10.3,0-20.6,0-30.9c0-2.1,0.2-4.2,0.7-6.2
			c1.6-6.8,7.1-10.7,14-10.2c6.8,0.5,11.4,5.2,12,12.3c0.1,1.7,0.2,3.3,0.2,5c0,10,0,20,0,29.9c0,1.2,0.1,2.3,0.2,3.4
			c6.2,0,12,0,17.5,0c0-14.3,0.6-28.2-0.2-42.2c-0.5-9-5.2-16.4-14.5-19.3c-9.4-2.9-18-1.8-24.5,6.6c-0.6,0.8-2.3,1.4-3.1,1.1
			c-1-0.4-2-1.8-2.2-2.9c-0.4-1.9-0.1-3.9-0.1-6C874,609.2,868.3,609.2,862.4,609.2z"/>
		<path d="M823.3,640.4c0-10.8,0-21.5,0-32.3c0-4.3,0.7-5,5-5c6.7,0,13.3,0,20,0c3.9,0,4.7,0.8,4.7,4.6c0,21.9,0,43.7,0,65.6
			c0,4-0.6,4.6-4.7,4.6c-6.8,0-13.5,0-20.3,0c-4.2,0-4.7-0.6-4.7-4.9C823.3,662.1,823.3,651.2,823.3,640.4z M829.3,671.9
			c6.2,0,11.9,0,17.8,0c0-21,0-41.7,0-62.7c-6,0-11.8,0-17.8,0C829.3,630.2,829.3,650.9,829.3,671.9z"/>
		<path d="M823.4,587.5c0-8.3,6.3-14.5,15-14.4c8.4,0.1,14.5,6,14.6,14.1c0.1,8.4-6.1,14.3-15,14.2
			C829.5,601.4,823.5,595.6,823.4,587.5z M838.2,579.1c-5.4,0-9.2,3.6-9,8.5c0.1,4.8,3.9,8.2,9.1,8.1c5.2-0.1,9-3.5,9-8.2
			C847.3,582.5,843.6,579.1,838.2,579.1z"/>
	</g>
</g>
</svg>
