<!--?xml version="1.0" encoding="utf-8"?-->
<!-- Generator: Adobe Illustrator 19.1.1, SVG Export Plug-In . SVG Version: 6.00 Build 0)  -->
<svg version="1.1" id="_x31_0" xmlns="http://www.w3.org/2000/svg" xmlns:xlink="http://www.w3.org/1999/xlink" x="0px" y="0px" viewBox="0 0 512 512" style="width: 256px; height: 256px; opacity: 1;" xml:space="preserve">
<style type="text/css">
	.st0{fill:#374149;}
</style>
<g>
	<path class="st0" d="M256,0.002c-141.16,0-256,114.84-256,256c0,141.156,114.84,255.996,256,255.996
		c141.156,0,256-114.84,256-255.996C512,114.842,397.156,0.002,256,0.002z M256,477.404c-122.086,0-221.406-99.32-221.406-221.402
		c0-122.086,99.321-221.406,221.406-221.406c122.082,0,221.402,99.321,221.402,221.406C477.402,378.084,378.082,477.404,256,477.404
		z" style="fill: rgb(75, 75, 75);"></path>
	<path class="st0" d="M199.324,210.49c-0.234-1.277-0.542-2.316-0.918-3.105c-0.383-0.786-0.863-1.5-1.446-2.141
		c-0.871-0.992-1.969-1.797-3.281-2.406c-1.313-0.614-2.813-0.918-4.508-0.918c-1.688,0-3.191,0.305-4.504,0.918
		c-1.313,0.61-2.434,1.414-3.367,2.406c-0.582,0.641-1.066,1.355-1.442,2.141c-0.382,0.789-0.687,1.828-0.918,3.105
		c-0.234,1.286-0.394,2.906-0.481,4.856c-0.09,1.953-0.133,4.418-0.133,7.39c0,2.977,0.043,5.442,0.133,7.398
		c0.086,1.953,0.246,3.554,0.481,4.809c0.23,1.254,0.535,2.274,0.918,3.058c0.375,0.789,0.859,1.504,1.442,2.149
		c0.934,0.992,2.054,1.804,3.367,2.445c1.313,0.641,2.816,0.961,4.504,0.961c1.695,0,3.195-0.32,4.508-0.961
		c1.312-0.641,2.41-1.453,3.281-2.445c0.582-0.645,1.062-1.36,1.446-2.149c0.375-0.785,0.683-1.805,0.918-3.058
		c0.234-1.254,0.406-2.856,0.524-4.809c0.117-1.957,0.175-4.422,0.175-7.398c0-2.973-0.058-5.438-0.175-7.39
		C199.73,213.396,199.558,211.776,199.324,210.49z" style="fill: rgb(75, 75, 75);"></path>
	<path class="st0" d="M145.875,211.018c0-2.566-0.805-4.637-2.406-6.211c-1.606-1.574-3.809-2.363-6.606-2.363h-11.371v17.058
		h11.371c2.797,0,5-0.77,6.606-2.317C145.07,215.639,145.875,213.584,145.875,211.018z" style="fill: rgb(75, 75, 75);"></path>
	<path class="st0" d="M378.738,202.444h-11.457v16.449h11.457c2.687,0,4.828-0.762,6.434-2.277c1.602-1.516,2.406-3.5,2.406-5.95
		c0-2.449-0.805-4.434-2.406-5.946C383.566,203.201,381.426,202.444,378.738,202.444z" style="fill: rgb(75, 75, 75);"></path>
	<path class="st0" d="M256,59.197c-108.695,0-196.805,88.11-196.805,196.805c0,108.691,88.11,196.805,196.805,196.805
		c108.691,0,196.805-88.114,196.805-196.805C452.805,147.307,364.691,59.197,256,59.197z M367.282,229.037v24.844h-12.161v-62.286
		h24.406c3.149,0,5.981,0.512,8.485,1.535c2.511,1.02,4.64,2.39,6.386,4.11c1.754,1.722,3.078,3.73,3.985,6.035
		c0.902,2.301,1.351,4.766,1.351,7.39c0,2.219-0.301,4.199-0.918,5.95c-0.61,1.75-1.446,3.308-2.489,4.683
		c-1.05,1.371-2.266,2.535-3.637,3.492c-1.32,0.934-2.718,1.637-4.179,2.161l-0.004,0.003l0,0c-0.051,0.016-0.094,0.055-0.141,0.07
		l9.598,18.539l4.226,8.317h-14l-12.164-24.844H367.282z M264.137,290.392v46.586c0,0.617-0.504,1.121-1.118,1.121h-14.038
		c-0.618,0-1.122-0.504-1.122-1.121v-46.586c0-0.617,0.504-1.121,1.122-1.121h14.038
		C263.633,289.272,264.137,289.776,264.137,290.392z M294.402,191.635l-16.695,62.246h-10.149l-11.461-37.794l-11.457,37.794
		h-10.149l-13.32-49.906l-3.262-12.379h12.644l5.153,21.039l4.312,18.195l0.078-0.266l0.078,0.313l11.374-39.282h9.098l6.066,20.965
		l5.148,18.278l0.066-0.27l0.09,0.309l9.711-39.282h10.187L294.402,191.635z M287.836,145.377c0,5.774-4.68,10.457-10.453,10.457
		h-42.77c-5.774,0-10.454-4.683-10.454-10.457c0-5.774,4.68-10.454,10.454-10.454h42.77
		C283.156,134.924,287.836,139.604,287.836,145.377z M212.05,230.791c-0.086,2.391-0.335,4.594-0.742,6.602
		c-0.41,2.016-1.039,3.863-1.883,5.555c-0.843,1.695-2.054,3.324-3.629,4.898c-2.102,2.102-4.492,3.718-7.176,4.859
		c-2.679,1.133-5.832,1.699-9.449,1.699c-3.614,0-6.778-0.566-9.489-1.699c-2.71-1.141-5.117-2.758-7.214-4.859
		c-1.578-1.574-2.786-3.203-3.637-4.898c-0.844-1.692-1.453-3.539-1.836-5.555c-0.379-2.007-0.61-4.21-0.695-6.602
		c-0.094-2.394-0.133-5.078-0.133-8.054c0-2.973,0.039-5.652,0.133-8.047c0.086-2.39,0.316-4.594,0.695-6.602
		c0.383-2.015,0.992-3.863,1.836-5.558c0.851-1.687,2.058-3.32,3.637-4.898c2.098-2.098,4.504-3.714,7.214-4.855
		c2.711-1.137,5.875-1.707,9.489-1.707c3.617,0,6.77,0.57,9.449,1.707c2.684,1.141,5.074,2.758,7.176,4.855
		c1.574,1.578,2.786,3.211,3.629,4.898c0.844,1.695,1.473,3.543,1.883,5.558c0.406,2.008,0.656,4.211,0.742,6.602
		c0.086,2.395,0.133,5.074,0.133,8.047C212.183,225.713,212.137,228.396,212.05,230.791z M228.012,384.885
		c-2.649-1.79-5.141-3.844-7.398-6.11c-2.266-2.258-4.317-4.75-6.11-7.398c-1.809-2.676-3.359-5.535-4.618-8.504
		c-1.277-3.023-2.258-6.188-2.922-9.406c-0.672-3.301-1.012-6.691-1.012-10.078c0-3.39,0.34-6.781,1.012-10.074
		c0.664-3.223,1.645-6.383,2.922-9.41c1.258-2.969,2.809-5.828,4.618-8.504c1.793-2.648,3.844-5.141,6.11-7.402
		c2.258-2.262,4.75-4.316,7.398-6.106l0.042,0.066l0.008,0.008l9.058,13.414c-1.789,1.206-3.472,2.598-5.004,4.129
		c-1.527,1.527-2.918,3.21-4.129,5.004c-1.214,1.801-2.266,3.73-3.113,5.734c-0.856,2.031-1.52,4.16-1.961,6.324
		c-0.454,2.226-0.688,4.519-0.688,6.816c0,2.297,0.234,4.59,0.688,6.817c0.441,2.164,1.105,4.293,1.965,6.328
		c0.843,2,1.894,3.93,3.113,5.73c1.207,1.793,2.598,3.477,4.125,5.004c1.532,1.531,3.215,2.922,5.004,4.129
		c1.805,1.222,3.734,2.27,5.734,3.114c2.035,0.859,4.164,1.519,6.328,1.965c4.454,0.91,9.18,0.91,13.63,0
		c2.168-0.446,4.297-1.106,6.328-1.965c2-0.844,3.93-1.891,5.734-3.114c1.793-1.207,3.473-2.598,5.004-4.129
		c1.531-1.527,2.922-3.211,4.133-5.004c1.214-1.801,2.262-3.73,3.109-5.734c0.86-2.031,1.52-4.16,1.965-6.328
		c0.454-2.222,0.688-4.516,0.688-6.813c0-2.297-0.234-4.59-0.688-6.816c-0.445-2.164-1.105-4.293-1.965-6.328
		c-0.847-2-1.894-3.93-3.113-5.734c-1.207-1.79-2.598-3.473-4.129-5c-1.531-1.531-3.211-2.922-5.004-4.129l3.058-4.528l6.305-8.769
		h0.004c2.55,1.75,4.957,3.726,7.144,5.914c2.262,2.262,4.317,4.754,6.11,7.402c1.805,2.676,3.359,5.535,4.614,8.504
		c1.281,3.027,2.262,6.187,2.922,9.406c0.676,3.297,1.016,6.687,1.016,10.078c0,3.387-0.34,6.778-1.016,10.078
		c-0.66,3.218-1.641,6.383-2.918,9.402c-1.258,2.973-2.813,5.832-4.618,8.504c-1.793,2.652-3.847,5.145-6.11,7.402
		c-2.262,2.266-4.754,4.32-7.402,6.11c-2.671,1.804-5.534,3.359-8.503,4.617c-3.02,1.278-6.188,2.258-9.402,2.918
		c-3.297,0.676-6.688,1.016-10.078,1.016c-3.39,0-6.782-0.34-10.078-1.016c-3.218-0.66-6.382-1.64-9.406-2.922
		C233.547,388.244,230.683,386.689,228.012,384.885z M314.363,202.444v14.609h24.578V227.9h-24.344h-0.074l0,0h-0.16v15.133h28.867
		v10.848h-41.031v-62.286h41.031v10.848H314.363z M125.652,230.436L125.652,230.436h-0.16v23.446h-12.16v-62.286h24.145
		c3.206,0,6.094,0.512,8.66,1.535c2.562,1.02,4.726,2.418,6.473,4.195c1.754,1.782,3.094,3.852,4.023,6.211
		c0.934,2.363,1.398,4.859,1.398,7.481c0,2.625-0.465,5.117-1.398,7.48c-0.93,2.363-2.27,4.434-4.023,6.207
		c-1.746,1.781-3.91,3.18-6.473,4.203c-2.566,1.019-5.454,1.527-8.66,1.527h-11.75H125.652z" style="fill: rgb(75, 75, 75);"></path>
</g>
</svg>
