<?xml version="1.0" encoding="utf-8"?>
<!-- Generator: Adobe Illustrator 21.1.0, SVG Export Plug-In . SVG Version: 6.00 Build 0)  -->
<svg version="1.1" xmlns="http://www.w3.org/2000/svg" xmlns:xlink="http://www.w3.org/1999/xlink" x="0px" y="0px"
	 viewBox="0 0 1366 768" style="enable-background:new 0 0 1366 768;" xml:space="preserve">
<style type="text/css">
	.st0{fill:url(#SVGID_1_);}
	.st1{fill:url(#SVGID_2_);}
	.st2{fill:url(#SVGID_3_);}
	.st3{fill:#E3E0DF;}
	.st4{fill:url(#SVGID_4_);}
	.st5{fill:#FFFFFF;}
	.st6{fill:url(#SVGID_5_);}
	.st7{fill:url(#SVGID_6_);}
	.st8{fill:url(#SVGID_7_);}
	.st9{fill:url(#SVGID_8_);}
	.st10{fill:url(#SVGID_9_);}
	.st11{fill:url(#SVGID_10_);}
	.st12{fill:#231F20;}
	.st13{fill:url(#SVGID_11_);}
	.st14{fill:url(#SVGID_12_);}
	.st15{fill:url(#SVGID_13_);}
	.st16{fill:url(#SVGID_14_);}
	.st17{display:none;}
	.st18{display:inline;}
	.st19{display:none;fill:#FFFFFF;}
</style>
<g id="Layer_1">
	<g>

			<linearGradient id="SVGID_1_" gradientUnits="userSpaceOnUse" x1="1732.0463" y1="-2812.2556" x2="1763.4064" y2="-2812.2556" gradientTransform="matrix(1.1275 0 0 0.257 -1237.4116 851.4117)">
			<stop  offset="5.650000e-03" style="stop-color:#DBDCDD"/>
			<stop  offset="8.228178e-02" style="stop-color:#DFE0E1"/>
			<stop  offset="0.1642" style="stop-color:#ECECED"/>
			<stop  offset="0.1864" style="stop-color:#F1F1F2"/>
			<stop  offset="0.4972" style="stop-color:#9C9EA1"/>
			<stop  offset="0.8539" style="stop-color:#FFFFFF"/>
			<stop  offset="0.891" style="stop-color:#F2F2F2"/>
			<stop  offset="0.9598" style="stop-color:#CED0D1"/>
			<stop  offset="1" style="stop-color:#B7B9BB"/>
		</linearGradient>
		<rect x="716.1" y="120" class="st0" width="35.4" height="17.3"/>

			<radialGradient id="SVGID_2_" cx="1118.0619" cy="1351.3102" r="40.6576" gradientTransform="matrix(2.3079 0 0 0.595 -1843.361 -367.4231)" gradientUnits="userSpaceOnUse">
			<stop  offset="0" style="stop-color:#ADAAB3"/>
			<stop  offset="0.272" style="stop-color:#CDCBD1"/>
			<stop  offset="0.5612" style="stop-color:#E8E8EA"/>
			<stop  offset="0.8137" style="stop-color:#F9F9FA"/>
			<stop  offset="1" style="stop-color:#FFFFFF"/>
		</radialGradient>
		<path class="st1" d="M827.6,436.8c0,13.4-42,24.2-93.8,24.2c-51.8,0-93.8-10.8-93.8-24.2c0-13.3,42-24.2,93.8-24.2
			C785.6,412.6,827.6,423.5,827.6,436.8z"/>
		<g>
			<linearGradient id="SVGID_3_" gradientUnits="userSpaceOnUse" x1="720.3414" y1="287.8856" x2="746.2739" y2="287.8856">
				<stop  offset="5.650000e-03" style="stop-color:#DBDCDD"/>
				<stop  offset="8.228178e-02" style="stop-color:#DFE0E1"/>
				<stop  offset="0.1642" style="stop-color:#ECECED"/>
				<stop  offset="0.1864" style="stop-color:#F1F1F2"/>
				<stop  offset="0.4972" style="stop-color:#9C9EA1"/>
				<stop  offset="0.8539" style="stop-color:#FFFFFF"/>
				<stop  offset="0.891" style="stop-color:#F2F2F2"/>
				<stop  offset="0.9598" style="stop-color:#CED0D1"/>
				<stop  offset="1" style="stop-color:#B7B9BB"/>
			</linearGradient>
			<path class="st2" d="M720.8,137.3v298.2c0,0,13,6.6,25.9,0V137.3H720.8z"/>
		</g>
		<path class="st3" d="M667.3,146.4c-6.2,0-11.2,5-11.2,11.2v169.2c0,6.2,5,11.2,11.2,11.2h132.9c6.2,0,11.2-5,11.2-11.2V157.5
			c0-6.2-5-11.2-11.2-11.2H667.3z"/>
		<radialGradient id="SVGID_4_" cx="729.1231" cy="242.8297" r="141.8821" gradientUnits="userSpaceOnUse">
			<stop  offset="0" style="stop-color:#0092D5"/>
			<stop  offset="0.4052" style="stop-color:#0190D3"/>
			<stop  offset="0.5657" style="stop-color:#0289CD"/>
			<stop  offset="0.6828" style="stop-color:#057DC2"/>
			<stop  offset="0.7789" style="stop-color:#0A6CB3"/>
			<stop  offset="0.862" style="stop-color:#10559F"/>
			<stop  offset="0.9349" style="stop-color:#173A87"/>
			<stop  offset="1" style="stop-color:#1F1A6B"/>
		</radialGradient>
		<path class="st4" d="M667.3,146.4c-6.2,0-11.2,5-11.2,11.2v169.2c0,6.2,5,11.2,11.2,11.2h132.9c6.2,0,11.2-5,11.2-11.2V157.5
			c0-6.2-5-11.2-11.2-11.2H667.3z"/>
		<path class="st5" d="M667.3,149.6c-4.4,0-8,3.6-8,8v169.2c0,4.4,3.6,8,8,8h132.9c4.4,0,8-3.6,8-8V157.5c0-4.4-3.6-8-8-8H667.3z"/>
		<radialGradient id="SVGID_5_" cx="729.4719" cy="242.7847" r="132.3613" gradientUnits="userSpaceOnUse">
			<stop  offset="0" style="stop-color:#0092D5"/>
			<stop  offset="0.4052" style="stop-color:#0190D3"/>
			<stop  offset="0.5657" style="stop-color:#0289CD"/>
			<stop  offset="0.6828" style="stop-color:#057DC2"/>
			<stop  offset="0.7789" style="stop-color:#0A6CB3"/>
			<stop  offset="0.862" style="stop-color:#10559F"/>
			<stop  offset="0.9349" style="stop-color:#173A87"/>
			<stop  offset="1" style="stop-color:#1F1A6B"/>
		</radialGradient>
		<path class="st6" d="M667.3,152.2c-2.9,0-5.3,2.4-5.3,5.3v169.2c0,2.9,2.4,5.3,5.3,5.3h132.9c3,0,5.3-2.4,5.3-5.3V157.5
			c0-2.9-2.4-5.3-5.3-5.3H667.3z"/>
		<linearGradient id="SVGID_6_" gradientUnits="userSpaceOnUse" x1="720.3414" y1="138.9176" x2="746.2739" y2="138.9176">
			<stop  offset="5.650000e-03" style="stop-color:#CFD0D2"/>
			<stop  offset="9.630550e-02" style="stop-color:#D3D4D6"/>
			<stop  offset="0.1864" style="stop-color:#DFE0E1"/>
			<stop  offset="0.4944" style="stop-color:#818385"/>
			<stop  offset="0.8539" style="stop-color:#E8E8E9"/>
			<stop  offset="0.8901" style="stop-color:#DBDBDC"/>
			<stop  offset="0.9575" style="stop-color:#B7B9BB"/>
			<stop  offset="1" style="stop-color:#9EA0A3"/>
		</linearGradient>
		<rect x="720.8" y="137.5" class="st7" width="25.9" height="2.8"/>
		<g>
			<radialGradient id="SVGID_7_" cx="733.752" cy="324.5583" r="2.2828" gradientUnits="userSpaceOnUse">
				<stop  offset="0" style="stop-color:#0092D5"/>
				<stop  offset="0.4052" style="stop-color:#0190D3"/>
				<stop  offset="0.5657" style="stop-color:#0289CD"/>
				<stop  offset="0.6828" style="stop-color:#057DC2"/>
				<stop  offset="0.7789" style="stop-color:#0A6CB3"/>
				<stop  offset="0.862" style="stop-color:#10559F"/>
				<stop  offset="0.9349" style="stop-color:#173A87"/>
				<stop  offset="1" style="stop-color:#1F1A6B"/>
			</radialGradient>
			<path class="st8" d="M736,326.8c-1.3,1.3-3.3,1.3-4.6,0c-1.3-1.3-1.3-3.3,0-4.6c1.3-1.3,3.3-1.3,4.6,0
				C737.3,323.5,737.3,325.6,736,326.8z"/>

				<radialGradient id="SVGID_8_" cx="-797.1569" cy="-3957.4707" r="3.1227" gradientTransform="matrix(4.630000e-02 4.630000e-02 -4.630000e-02 4.630000e-02 587.4708 548.5445)" gradientUnits="userSpaceOnUse">
				<stop  offset="0" style="stop-color:#CCCECF"/>
				<stop  offset="1" style="stop-color:#4D4D4F"/>
			</radialGradient>
			<path class="st9" d="M731.8,326.5c-1.1-1.1-1.1-2.9,0-3.9c1.1-1.1,2.9-1.1,3.9,0c1.1,1.1,1.1,2.8,0,3.9
				C734.6,327.6,732.9,327.6,731.8,326.5z"/>

				<radialGradient id="SVGID_9_" cx="-978.0844" cy="-5003.771" r="61.1383" gradientTransform="matrix(3.780000e-02 3.780000e-02 -3.780000e-02 3.780000e-02 582.3946 547.3357)" gradientUnits="userSpaceOnUse">
				<stop  offset="0" style="stop-color:#C5C7C9"/>
				<stop  offset="2.122778e-02" style="stop-color:#BFC1C3"/>
				<stop  offset="0.1978" style="stop-color:#909091"/>
				<stop  offset="0.3728" style="stop-color:#696769"/>
				<stop  offset="0.5431" style="stop-color:#4A4849"/>
				<stop  offset="0.7072" style="stop-color:#353132"/>
				<stop  offset="0.8626" style="stop-color:#272425"/>
				<stop  offset="1" style="stop-color:#231F20"/>
			</radialGradient>
			<path class="st10" d="M735.2,325.7c0.1-0.1,0.1-0.3,0-0.4l-0.7-0.7c-0.1-0.1-0.1-0.3,0-0.4l0.7-0.7c0.1-0.1,0.1-0.3,0-0.4
				L735,323c-0.1-0.1-0.3-0.1-0.4,0l-0.7,0.7c-0.1,0.1-0.3,0.1-0.4,0l-0.7-0.7c-0.1-0.1-0.3-0.1-0.4,0l-0.1,0.1
				c-0.1,0.1-0.1,0.3,0,0.4l0.7,0.7c0.1,0.1,0.1,0.3,0,0.4l-0.7,0.7c-0.1,0.1-0.1,0.3,0,0.4l0.1,0.1c0.1,0.1,0.3,0.1,0.4,0l0.7-0.7
				c0.1-0.1,0.3-0.1,0.4,0l0.7,0.7c0.1,0.1,0.3,0.1,0.4,0L735.2,325.7z"/>

				<radialGradient id="SVGID_10_" cx="-941.6285" cy="-4951.3784" r="123.4404" gradientTransform="matrix(3.780000e-02 3.780000e-02 -3.780000e-02 3.780000e-02 582.3946 547.3357)" gradientUnits="userSpaceOnUse">
				<stop  offset="0" style="stop-color:#CCCECF"/>
				<stop  offset="1" style="stop-color:#4D4D4F"/>
			</radialGradient>
			<path class="st11" d="M735.3,325.6c0,0,0,0.1-0.1,0.1l-0.2,0.1c-0.1,0.1-0.3,0.1-0.4,0l-0.7-0.7c-0.1-0.1-0.3-0.1-0.4,0l-0.7,0.7
				c-0.1,0.1-0.3,0.1-0.4,0l-0.1-0.1c0,0-0.1-0.1-0.1-0.1c0,0.1,0,0.2,0.1,0.2l0.1,0.2c0.1,0.1,0.3,0.1,0.4,0l0.7-0.7
				c0.1-0.1,0.3-0.1,0.4,0l0.7,0.7c0.1,0.1,0.3,0.1,0.4,0l0.2-0.2C735.3,325.7,735.3,325.7,735.3,325.6z"/>
			<path class="st12" d="M732.3,323.4c0,0,0-0.1,0.1-0.1l0.2-0.1c0.1-0.1,0.3-0.1,0.4,0l0.7,0.7c0.1,0.1,0.3,0.1,0.4,0l0.7-0.7
				c0.1-0.1,0.3-0.1,0.4,0l0.2,0.1c0,0,0.1,0.1,0.1,0.1c0-0.1,0-0.2-0.1-0.2L735,323c-0.1-0.1-0.3-0.1-0.4,0l-0.7,0.7
				c-0.1,0.1-0.3,0.1-0.4,0l-0.7-0.7c-0.1-0.1-0.3-0.1-0.4,0l-0.1,0.1C732.3,323.2,732.2,323.3,732.3,323.4z"/>
		</g>
		<g>
			<radialGradient id="SVGID_11_" cx="733.752" cy="158.0698" r="2.2828" gradientUnits="userSpaceOnUse">
				<stop  offset="0" style="stop-color:#0092D5"/>
				<stop  offset="0.4052" style="stop-color:#0190D3"/>
				<stop  offset="0.5657" style="stop-color:#0289CD"/>
				<stop  offset="0.6828" style="stop-color:#057DC2"/>
				<stop  offset="0.7789" style="stop-color:#0A6CB3"/>
				<stop  offset="0.862" style="stop-color:#10559F"/>
				<stop  offset="0.9349" style="stop-color:#173A87"/>
				<stop  offset="1" style="stop-color:#1F1A6B"/>
			</radialGradient>
			<path class="st13" d="M736,160.4c-1.3,1.3-3.3,1.3-4.6,0c-1.3-1.3-1.3-3.3,0-4.6c1.3-1.3,3.3-1.3,4.6,0
				C737.3,157,737.3,159.1,736,160.4z"/>

				<radialGradient id="SVGID_12_" cx="-2595.0886" cy="-5755.4014" r="3.1227" gradientTransform="matrix(4.630000e-02 4.630000e-02 -4.630000e-02 4.630000e-02 587.4708 548.5445)" gradientUnits="userSpaceOnUse">
				<stop  offset="0" style="stop-color:#CCCECF"/>
				<stop  offset="1" style="stop-color:#4D4D4F"/>
			</radialGradient>
			<path class="st14" d="M731.8,160c-1.1-1.1-1.1-2.9,0-3.9c1.1-1.1,2.9-1.1,3.9,0c1.1,1.1,1.1,2.8,0,3.9
				C734.6,161.1,732.9,161.1,731.8,160z"/>

				<radialGradient id="SVGID_13_" cx="-3180.332" cy="-7206.0039" r="61.149" gradientTransform="matrix(3.780000e-02 3.780000e-02 -3.780000e-02 3.780000e-02 582.3946 547.3357)" gradientUnits="userSpaceOnUse">
				<stop  offset="0" style="stop-color:#C5C7C9"/>
				<stop  offset="2.122778e-02" style="stop-color:#BFC1C3"/>
				<stop  offset="0.1978" style="stop-color:#909091"/>
				<stop  offset="0.3728" style="stop-color:#696769"/>
				<stop  offset="0.5431" style="stop-color:#4A4849"/>
				<stop  offset="0.7072" style="stop-color:#353132"/>
				<stop  offset="0.8626" style="stop-color:#272425"/>
				<stop  offset="1" style="stop-color:#231F20"/>
			</radialGradient>
			<path class="st15" d="M735.2,159.2c0.1-0.1,0.1-0.3,0-0.4l-0.7-0.7c-0.1-0.1-0.1-0.3,0-0.4l0.7-0.7c0.1-0.1,0.1-0.3,0-0.4
				l-0.2-0.1c-0.1-0.1-0.3-0.1-0.4,0l-0.7,0.7c-0.1,0.1-0.3,0.1-0.4,0l-0.7-0.7c-0.1-0.1-0.3-0.1-0.4,0l-0.1,0.1
				c-0.1,0.1-0.1,0.3,0,0.4l0.7,0.7c0.1,0.1,0.1,0.3,0,0.4l-0.7,0.7c-0.1,0.1-0.1,0.3,0,0.4l0.1,0.1c0.1,0.1,0.3,0.1,0.4,0l0.7-0.7
				c0.1-0.1,0.3-0.1,0.4,0l0.7,0.7c0.1,0.1,0.3,0.1,0.4,0L735.2,159.2z"/>

				<radialGradient id="SVGID_14_" cx="-3143.8784" cy="-7153.6099" r="123.4404" gradientTransform="matrix(3.780000e-02 3.780000e-02 -3.780000e-02 3.780000e-02 582.3946 547.3357)" gradientUnits="userSpaceOnUse">
				<stop  offset="0" style="stop-color:#CCCECF"/>
				<stop  offset="1" style="stop-color:#4D4D4F"/>
			</radialGradient>
			<path class="st16" d="M735.3,159.1c0,0,0,0.1-0.1,0.1l-0.2,0.1c-0.1,0.1-0.3,0.1-0.4,0l-0.7-0.7c-0.1-0.1-0.3-0.1-0.4,0l-0.7,0.7
				c-0.1,0.1-0.3,0.1-0.4,0l-0.1-0.1c0,0-0.1-0.1-0.1-0.1c0,0.1,0,0.2,0.1,0.2l0.1,0.2c0.1,0.1,0.3,0.1,0.4,0l0.7-0.7
				c0.1-0.1,0.3-0.1,0.4,0l0.7,0.7c0.1,0.1,0.3,0.1,0.4,0l0.2-0.2C735.3,159.3,735.3,159.2,735.3,159.1z"/>
			<path class="st12" d="M732.3,156.9c0,0,0-0.1,0.1-0.1l0.2-0.1c0.1-0.1,0.3-0.1,0.4,0l0.7,0.7c0.1,0.1,0.3,0.1,0.4,0l0.7-0.7
				c0.1-0.1,0.3-0.1,0.4,0l0.2,0.1c0,0,0.1,0.1,0.1,0.1c0-0.1,0-0.2-0.1-0.2l-0.2-0.1c-0.1-0.1-0.3-0.1-0.4,0l-0.7,0.7
				c-0.1,0.1-0.3,0.1-0.4,0l-0.7-0.7c-0.1-0.1-0.3-0.1-0.4,0l-0.1,0.1C732.3,156.7,732.2,156.8,732.3,156.9z"/>
		</g>
		<rect x="669.6" y="172.2" class="st5" width="127.4" height="118.8"/>
	</g>
</g>
<g id="Layer_2" class="st17">
	<g class="st18">
		<path class="st19" d="M783,217.4c0,15.9,0,31.7,0,47.6c-32,0-64,0-96,0c0-24.5,0-49,0-73.5c1,1.8,2.1,3.5,2.9,5.4
			c0.4,0.9,0.6,2.2,0.3,3.1c-1.1,2.7-0.2,4.8,1.6,6.6c1.5,1.5,3,3.3,4.9,4.1c3.9,1.8,6.2,5,8.7,8.1c2.1,2.5,2.5,5.2,0.9,8.2
			c-0.3,0.6-0.4,1.3-0.5,1.9c0.2,0.2,0.3,0.3,0.5,0.5c1.1-0.6,2.3-1.1,3.4-1.7c0,1.7,0.1,3.4,0,5.1c-0.1,1.6-0.4,3.3-0.7,4.9
			c-0.3,1.5-2.1,2.7-0.9,4.8c4.4-6.2,3.7-13,3.5-19.7c1,1.7,1.7,3.6,2.6,5.3c1.9,3.6,1.6,7.2,0.9,11.2c-0.9,5.3-3.4,10.8-0.3,16.4
			c0.9,1.6,1.5,2.1,2.9,2.2c1.7,0.1,3.3,0.1,5,0.1c0.7,0,1.4-0.5,2-0.8c-0.1-0.2-0.1-0.3-0.2-0.5c-1.5-0.5-2.9-1.1-4.9-1.8
			c1.3-0.5,2-0.7,2.8-1c0-0.7,0-1.2,0-1.8c-0.1-11.4-0.2-22.8-0.5-34.1c0-1.6,0.5-2.6,1.7-3.6c3.1-2.5,5.9-5.3,9-7.8
			c2.5-2,5.1-3.9,7.9-5.5c4.9-2.8,9.9-5.3,14.8-8.1c0.5-0.3,1.1-1.6,0.9-2.1c-1.2-3.3-2.6-6.5-4-9.7c10.2,0,20.4,0,30.7,0
			c0,12,0,23.9,0,35.9c-1.3-0.7-2.6-1.3-4.2-2.1c1-0.6,1.5-0.9,2.4-1.5c-3.3,0.3-6.1,0.5-9.2,0.7c0.6-2.9,0.7-5.3,3.7-6.1
			c1.2-0.3,2.3-1.1,3.3-2c1.8-1.6,1.7-4.8,0-6.6c-1.6-1.7-4.6-1.8-6.5-0.2c-0.6,0.5-1.4,0.8-1.9,1.4c-0.8,1-2.3,2.3-2.1,3.1
			c0.6,2.3-0.5,2.7-2.3,2.7c-0.6,0-1.3,0.1-1.9,0c-10-1-15.8,5.6-20.7,12.5c-3.4,4.7-4.6,10.9-5.5,16.8c-0.5,3.1,0.1,5.7,2.2,7.9
			c4.2,4.2,8.4,8.4,12.7,12.6c0.9,0.8,1.9,1.6,3.1,0.3c0.2-0.2,0.6,0,1.1,0c-0.2,0.7-0.4,1.2-0.5,1.7c2.4,0.6,2.9,0.2,3.2-1.8
			c0.2-1.2,0.5-2.6,1.2-3.6c1.6-2.3,1.7-2.2-0.7-3.8c0.9-1.5,0.1-2.3-1.1-3.3c-2.8-2.2-5.5-4.6-8.2-7c-0.6-0.6-1.3-1.5-1.4-2.3
			c-0.2-3.7-0.4-7.4,2.9-10.3c1.1-1,1.7-3,1.8-4.5c0-1.6,0.5-2.3,1.8-2.6c2.6-0.6,5.2-1.2,7.8-1.6c0.6-0.1,1.4,0.3,1.9,0.7
			c1.3,1,2.6,2.1,3.6,3.4c0.6,0.9,0.6,2.3,0.9,3.4c0,0.2,0,0.3,0.1,0.6c0.5-0.4,0.9-0.7,1.3-1.1c0.3,1,0.5,1.8,0.9,3.2
			c0.2-1.2,0.3-1.7,0.4-2.5c0.6,0.8,0.9,1.4,1.3,2c0.1-0.1,0.2-0.1,0.2-0.2c-0.1-0.7-0.3-1.4-0.5-2.3c0.6,0.3,0.9,0.6,1.4,0.9
			c-0.4-1.1-0.6-2-0.9-2.9c0.7-0.1,1.2-0.3,2.3-0.5c-2.5-1-5.6-0.8-5.2-4.2c2.5-0.7,4.5-0.1,5.8,3c0.1-1.1,0.1-1.5,0.2-2.1
			c0.7,0.6,1.3,1.2,1.8,1.7c0.1-0.1,0.1-0.1,0.2-0.2c-0.3-0.6-0.6-1.2-1.2-2.3c1.2,0.7,2,1.2,2.8,1.7c0.1-0.1,0.1-0.2,0.2-0.2
			c-0.5-0.6-1.1-1.3-1.7-2C781.2,217.2,782.1,217.3,783,217.4z"/>
		<path d="M752.3,181.1c1.3,3.2,2.8,6.4,4,9.7c0.2,0.6-0.3,1.8-0.9,2.1c-4.9,2.8-9.9,5.3-14.8,8.1c-2.8,1.6-5.4,3.5-7.9,5.5
			c-3.1,2.5-5.9,5.3-9,7.8c-1.2,1-1.8,2-1.7,3.6c0.2,11.4,0.3,22.8,0.5,34.1c0,0.6,0,1.1,0,1.8c-0.8,0.3-1.5,0.5-2.8,1
			c2,0.7,3.5,1.3,4.9,1.8c0.1,0.2,0.1,0.3,0.2,0.5c-0.7,0.3-1.3,0.7-2,0.8c-1.6,0.1-3.3,0-5-0.1c-1.5-0.1-2.1-0.6-2.9-2.2
			c-3.1-5.7-0.6-11.1,0.3-16.4c0.7-4,1-7.6-0.9-11.2c-0.9-1.7-1.7-3.6-2.6-5.3c0.2,6.8,0.9,13.5-3.5,19.7c-1.2-2.1,0.7-3.3,0.9-4.8
			c0.3-1.6,0.6-3.3,0.7-4.9c0.1-1.7,0-3.4,0-5.1c-1.1,0.6-2.3,1.1-3.4,1.7c-0.2-0.2-0.3-0.3-0.5-0.5c0.2-0.6,0.2-1.3,0.5-1.9
			c1.6-3,1.1-5.7-0.9-8.2c-2.5-3.1-4.8-6.3-8.7-8.1c-1.9-0.8-3.4-2.6-4.9-4.1c-1.9-1.8-2.7-3.9-1.6-6.6c0.4-0.9,0.1-2.2-0.3-3.1
			c-0.8-1.9-1.9-3.6-2.9-5.4c0-0.9,0-1.7,0-2.6c0.2-0.3,0.3-0.6,0.4-1c0.9-2.3,3-3.6,5.4-3.4c2.7,0.2,4.4,1.7,4.9,4.3
			c0.4,2,0.8,4,1.1,6.1c1.3,0.4,2.5,0.8,3.1-1.4c0.3-1,1.9-1.7,3.1-2.3c0.3-0.1,1.3,0.8,1.6,1.4c0.8,1.8,1.9,3.6,1.9,5.4
			c0.1,3.1,1.9,4.2,4.3,5c0.3,0.1,0.5,0.2,0.8,0.4c1.5,1,2.8,0.9,4.2-0.4c3-2.7,6.7-3.9,10.5-5.2c5.5-1.8,10.7-4.4,16-6.8
			c1.2-0.5,2.1-1.7,3.1-2.6c1.1-0.9,2.3-1.8,3.9-3.1c-0.1-0.9-0.3-2.6-0.5-4.3C751.4,181.1,751.9,181.1,752.3,181.1z"/>
		<path d="M783,217.4c-0.9-0.1-1.8-0.2-3-0.3c0.6,0.8,1.2,1.4,1.7,2c-0.1,0.1-0.1,0.2-0.2,0.2c-0.8-0.5-1.6-0.9-2.8-1.7
			c0.6,1.1,0.9,1.7,1.2,2.3c-0.1,0.1-0.1,0.1-0.2,0.2c-0.6-0.5-1.2-1-1.8-1.7c-0.1,0.5-0.1,1-0.2,2.1c-1.3-3-3.3-3.7-5.8-3
			c-0.4,3.5,2.7,3.2,5.2,4.2c-1.1,0.2-1.6,0.3-2.3,0.5c0.3,0.9,0.6,1.7,0.9,2.9c-0.5-0.3-0.9-0.5-1.4-0.9c0.2,0.9,0.3,1.6,0.5,2.3
			c-0.1,0.1-0.2,0.1-0.2,0.2c-0.4-0.6-0.8-1.1-1.3-2c-0.1,0.7-0.2,1.3-0.4,2.5c-0.4-1.4-0.6-2.2-0.9-3.2c-0.4,0.4-0.8,0.7-1.3,1.1
			c0-0.2,0-0.4-0.1-0.6c-0.3-1.2-0.3-2.5-0.9-3.4c-0.9-1.3-2.3-2.4-3.6-3.4c-0.5-0.4-1.3-0.8-1.9-0.7c-2.6,0.4-5.2,1-7.8,1.6
			c-1.3,0.3-1.8,1.1-1.8,2.6c0,1.6-0.7,3.6-1.8,4.5c-3.3,2.9-3.2,6.6-2.9,10.3c0.1,0.8,0.7,1.7,1.4,2.3c2.7,2.4,5.3,4.8,8.2,7
			c1.3,1,2,1.8,1.1,3.3c2.4,1.6,2.3,1.6,0.7,3.8c-0.7,1-1,2.3-1.2,3.6c-0.3,2-0.9,2.4-3.2,1.8c0.2-0.5,0.3-1,0.5-1.7
			c-0.4,0-0.9-0.1-1.1,0c-1.2,1.3-2.3,0.5-3.1-0.3c-4.3-4.2-8.5-8.3-12.7-12.6c-2.2-2.2-2.7-4.8-2.2-7.9c0.9-5.9,2.2-12.1,5.5-16.8
			c4.9-6.9,10.7-13.5,20.7-12.5c0.6,0.1,1.3,0,1.9,0c1.8,0,2.8-0.3,2.3-2.7c-0.2-0.8,1.3-2.1,2.1-3.1c0.5-0.6,1.3-0.9,1.9-1.4
			c1.8-1.6,4.9-1.5,6.5,0.2c1.7,1.9,1.8,5,0,6.6c-0.9,0.9-2.1,1.7-3.3,2c-3,0.8-3.1,3.2-3.7,6.1c3-0.2,5.8-0.5,9.2-0.7
			c-0.9,0.6-1.5,0.9-2.4,1.5c1.6,0.8,2.9,1.5,4.2,2.1C783,217.1,783,217.2,783,217.4z"/>
		<path class="st19" d="M751,181.1c0.2,1.7,0.4,3.4,0.5,4.3c-1.6,1.3-2.8,2.2-3.9,3.1c-1,0.9-1.9,2.1-3.1,2.6
			c-5.3,2.4-10.5,5-16,6.8c-3.8,1.2-7.5,2.5-10.5,5.2c-1.4,1.2-2.7,1.4-4.2,0.4c-0.2-0.2-0.5-0.3-0.8-0.4c-2.4-0.8-4.2-2-4.3-5
			c-0.1-1.8-1.1-3.7-1.9-5.4c-0.3-0.6-1.4-1.6-1.6-1.4c-1.2,0.6-2.8,1.3-3.1,2.3c-0.6,2.2-1.8,1.7-3.1,1.4c-0.4-2.1-0.7-4.1-1.1-6.1
			c-0.5-2.6-2.2-4.1-4.9-4.3c-2.4-0.2-4.5,1.1-5.4,3.4c-0.1,0.3-0.3,0.6-0.4,1c0-2.6,0-5.2,0-7.8C708.3,181.1,729.7,181.1,751,181.1
			z"/>
	</g>
</g>
<g id="Layer_3" class="st17">
	<g class="st18">
		<path class="st5" d="M703,233c0-19.3,0-38.7,0-58c22.2,0,44.3,0,66.5,0c0,31.7,0,63.3,0,95c-11,0-22,0-33,0
			c0.9-0.3,1.7-0.5,2.8-0.8c-1-0.3-1.8-0.7-2.6-0.8c-2.5-0.4-3.3-1.6-3-4.1c0.4-3.4,0.5-6.8,0.6-10.2c0.1-2.3-0.2-4.6,1.3-6.7
			c0.6-0.8,0.3-2.3,0.7-3.3c0.4-0.9,1-2.3,1.7-2.5c1.4-0.4,3.3-0.6,4.4,0.1c1.9,1.1,3.3,0.2,4.9,0c3.1-0.5,3.6-3.3,3-5.3
			c-0.7-2.2-3.4-3.4-5.7-2.6c-1.1,0.4-2.3,0.7-4.1,1.3c0.9-2.5,1.6-4.5,2.4-6.6c1.3,0.3,2.6,0.4,3.8,1c3.5,1.7,6.9,3.5,10.2,5.4
			c1.5,0.8,2.3,0.4,2.8-1.1c0.4-1.1,1.1-2.2,1.8-3.6c2.9,2.7,4.3,5.8,5.3,9.6c3-3.7,1.7-7.4,1.8-10.9c-2.2-0.4-4.3-0.3-5.8-1.1
			c-4.7-2.6-9.7-4.2-15-4.8c-0.8-0.1-1.5-0.8-2.2-1.3c-0.9-0.7-1.7-2-2.6-2.1c-3.2-0.3-5.5-2.5-8.3-3.6c-1.7-0.7-3.4-1.4-5.2-1.8
			c-3.2-0.6-3.9-1.4-3.5-4.8c0.2-1.4,0.9-3,0.5-4.1c-0.7-2,0.1-2.9,1.2-4.3c0.8-1,0.2-2.9,0.3-4.4c0-0.1,0.3-0.2,0.3-0.4
			c0.6-2.6,2.4-5.1-0.2-7.8c-1.7-1.7-1.6-3.9,0.1-5.9c1.2-1.3,2.4-2.5,3.4-3.9c0.5-0.7,0.5-1.7,0.7-2.5c-1.1,0.1-2.7-0.3-3.3,0.3
			c-1.4,1.3-2.8,3-3.5,4.8c-2,5.5-3.8,11-5.5,16.6c-0.5,1.8-0.3,3.8-0.7,5.6c-1.6,6-3.7,11.9-3.2,18.3c0,0.1-0.2,0.2-0.5,0.5
			c-1.8-0.6-3.9-3.1-5.3,0.5l0.1-0.1c-2.4,0.9-2.7,3.3-3.8,5.1C705.7,229.5,704.3,231.2,703,233z"/>
		<path d="M710.5,222.5c1.4-3.6,3.6-1.1,5.3-0.5c0.3-0.2,0.5-0.4,0.5-0.5c-0.5-6.4,1.7-12.3,3.2-18.3c0.5-1.8,0.2-3.8,0.7-5.6
			c1.7-5.6,3.5-11.1,5.5-16.6c0.7-1.8,2-3.5,3.5-4.8c0.6-0.6,2.2-0.2,3.3-0.3c-0.2,0.8-0.2,1.8-0.7,2.5c-1,1.4-2.3,2.6-3.4,3.9
			c-1.7,1.9-1.8,4.1-0.1,5.9c2.6,2.7,0.8,5.2,0.2,7.8c0,0.1-0.3,0.2-0.3,0.4c-0.1,1.5,0.4,3.5-0.3,4.4c-1.1,1.4-1.9,2.3-1.2,4.3
			c0.4,1.2-0.3,2.7-0.5,4.1c-0.5,3.3,0.2,4.1,3.5,4.8c1.8,0.4,3.5,1.1,5.2,1.8c2.8,1.1,5,3.3,8.3,3.6c0.9,0.1,1.7,1.4,2.6,2.1
			c0.7,0.5,1.4,1.2,2.2,1.3c5.3,0.6,10.2,2.3,15,4.8c1.6,0.9,3.7,0.7,5.8,1.1c-0.1,3.4,1.2,7.2-1.8,10.9c-1-3.8-2.4-6.9-5.3-9.6
			c-0.7,1.4-1.3,2.5-1.8,3.6c-0.6,1.5-1.4,1.9-2.8,1.1c-3.4-1.9-6.8-3.7-10.2-5.4c-1.2-0.6-2.5-0.7-3.8-1c-0.8,2.1-1.5,4.1-2.4,6.6
			c1.8-0.6,3-0.9,4.1-1.3c2.3-0.8,5.1,0.4,5.7,2.6c0.6,2,0.2,4.7-3,5.3c-1.7,0.3-3.1,1.2-4.9,0c-1.1-0.7-3-0.5-4.4-0.1
			c-0.8,0.2-1.3,1.5-1.7,2.5c-0.4,1.1-0.1,2.5-0.7,3.3c-1.6,2.1-1.3,4.4-1.3,6.7c-0.1,3.4-0.2,6.8-0.6,10.2c-0.3,2.5,0.5,3.8,3,4.1
			c0.8,0.1,1.6,0.5,2.6,0.8c-1.1,0.3-1.9,0.6-2.8,0.8c-1.3,0-2.7,0-4,0c-3.9-6.7-3.3-14.1-3.4-21.5c0-0.5,0.1-1,0.4-1.4
			c1-1.4,0.4-2.5-0.7-3.5c-0.8-0.8-1.6-1.7-2.5-2.4c-4.8-3.8-7.7-8.7-8.8-14.8C716.9,222.7,714.1,221.3,710.5,222.5z M733.2,225.7
			c-0.2,0.3-0.3,0.7-0.5,1c1.1,0.6,2.2,1.1,3.4,1.6c0.2,0.1,0.8-0.3,0.9-0.6c0.1-0.3-0.2-0.9-0.4-1
			C735.4,226.3,734.3,226,733.2,225.7z"/>
		<path class="st5" d="M710.5,222.5c3.6-1.2,6.4,0.1,7.1,3.8c1.1,6.1,4,11,8.8,14.8c0.9,0.7,1.7,1.6,2.5,2.4c1,1,1.7,2,0.7,3.5
			c-0.3,0.4-0.4,0.9-0.4,1.4c0.1,7.3-0.5,14.7,3.4,21.5c-9.8,0-19.7,0-29.5,0c0-11.8,0-23.7,0-35.5c0.7,0.1,1.4,0.2,1.9,0.3
			c1.3-3.6,2.5-7,3.8-10.5c0.3,0.1,0.7,0.2,1,0.3c-0.5,2.2-1.1,4.4-1.6,6.6c1.6,0.5,1.7,0.4,1.8-1.1
			C710.1,227.5,710.3,225,710.5,222.5L710.5,222.5z"/>
		<path d="M710.5,222.5c-0.2,2.5-0.4,5.1-0.6,7.6c-0.1,1.5-0.2,1.6-1.8,1.1c0.5-2.2,1.1-4.4,1.6-6.6c-0.3-0.1-0.7-0.2-1-0.3
			c-1.2,3.5-2.5,6.9-3.8,10.5c-0.5-0.1-1.2-0.2-1.9-0.3c0-0.5,0-1,0-1.5c1.3-1.8,2.7-3.5,3.8-5.4
			C707.9,225.7,708.1,223.3,710.5,222.5z"/>
		<path class="st5" d="M733.2,225.7c1.1,0.3,2.3,0.6,3.4,1c0.2,0.1,0.5,0.7,0.4,1c-0.1,0.3-0.7,0.7-0.9,0.6
			c-1.2-0.5-2.3-1.1-3.4-1.6C732.8,226.3,733,226,733.2,225.7z"/>
	</g>
</g>
<g id="Layer_4">
	<g>
		<path class="st19" d="M795,192.7c0,29,0,57.9,0,86.9c-28.4,0-56.9,0-85.3,0c0.9-0.1,1.7-0.2,2.6-0.3c3.2-0.1,3.7-0.6,4.5-3.6
			c0.2-0.8,0.3-1.5,0.5-2.3c0.4-1.8,0.8-3.6,1.4-5.3c1.1-3.5,1.8-7,1.3-10.7c-0.1-0.8,0-1.6,0.1-2.3c0-2,0.1-4,0-6
			c-0.1-2.3-0.6-4.6,1-6.6c0.2-0.2,0.2-0.5,0.3-0.7c1.1-1.8,2-3.7,3.2-5.3c2.6-3.2,4.6-6.7,5.3-10.8c0.4-2.3,0.8-4.5,1.3-6.8
			c0.1-0.7,0.5-1.3,0.6-1.6c1.2-0.1,2.1,0,2.9-0.2c1.2-0.4,2.4-1,3.6-1.5c3.6-1.7,7.3-3.4,10.9-5c0.5-0.2,0.9-0.6,1.4-0.6
			c3-0.3,5.6-2.3,8.7-2c0.2,0,0.4-0.1,0.6-0.2c4.7-1.4,8.7-4.2,12.6-7.1c3.4-2.5,7.4-3.6,11.4-4.5C787.7,195.3,791.7,195,795,192.7z
			"/>
		<path class="st19" d="M709.4,279.5c-12.5,0-24.9,0-37.4,0c0-22.2,0-44.5,0-66.7c0.5,1.1,1.4,2,2.6,1.6c1.5-0.6,2.9-1.7,4.2-2.8
			c1.1-0.9,1.9-2.1,2.8-3.2c1.7-2.1,4.2-2.7,6.5-1.5c0.3,0.2,0.7,0.7,0.7,1.1c-0.1,1.2,0.6,1.6,1.6,2c2.9,1,5.9,1.7,8.4,3.7
			c2.7,2.1,3.5,4.9,3.8,7.9c0.3,2.2,0.6,4.3,2.3,6c1.1,1.1,1.4,2.5,1,4.2c-0.8,0-1.6,0.1-2.3,0c-2-0.3-3.9,1.3-4.4,3.3
			c-0.5,2.5,0.2,5,3,5.8c2.3,0.6,4.6,1.5,7.1,0.9c0.6-0.2,1.3-0.1,1.9-0.1c1.1,0,1.9,0.7,1.8,1.7c-0.4,1.9,0.3,3.7,0.8,5.5
			c0.7,2.8,1.4,5.6,0.7,8.6c-0.5,2.1-0.6,4.4-0.7,6.6c-0.1,3.3,0.1,6.5,0.1,9.8c0,1.2-0.3,2.4-1.7,2.6c-1.5,0.3-3,0.3-4.5,0.6
			c-1.5,0.3-2.9,0.7-4.3,1c0,0.2,0,0.4,0.1,0.7c1.1,0.1,2.2,0.1,3.2,0.3C707.7,279,708.5,279.3,709.4,279.5z"/>
		<path d="M709.4,279.5c-0.9-0.2-1.8-0.6-2.6-0.7c-1.1-0.2-2.1-0.2-3.2-0.3c0-0.2,0-0.4-0.1-0.7c1.4-0.3,2.9-0.8,4.3-1
			c1.5-0.3,3-0.3,4.5-0.6c1.4-0.3,1.7-1.4,1.7-2.6c0-3.3-0.2-6.5-0.1-9.8c0-2.2,0.2-4.4,0.7-6.6c0.7-3,0-5.8-0.7-8.6
			c-0.5-1.8-1.1-3.5-0.8-5.5c0.2-1-0.6-1.8-1.8-1.7c-0.6,0-1.3,0-1.9,0.1c-2.5,0.7-4.8-0.3-7.1-0.9c-2.9-0.8-3.6-3.3-3-5.8
			c0.5-2,2.4-3.6,4.4-3.3c0.8,0.1,1.5,0,2.3,0c0.4-1.7,0.1-3.1-1-4.2c-1.7-1.7-2.1-3.8-2.3-6c-0.4-3-1.1-5.8-3.8-7.9
			c-2.6-2-5.5-2.7-8.4-3.7c-1-0.4-1.7-0.7-1.6-2c0-0.3-0.4-0.9-0.7-1.1c-2.4-1.2-4.8-0.6-6.5,1.5c-0.9,1.1-1.7,2.3-2.8,3.2
			c-1.3,1.1-2.7,2.1-4.2,2.8c-1.1,0.5-2-0.5-2.6-1.6c0-0.2,0-0.3,0-0.5c0.6-1.5,0.9-3.1,1.8-4.4c1.8-2.5,3.7-5,4.8-7.9
			c0.1-0.2,0.3-0.4,0.5-0.6c1-1.2,2.3-1.2,3.4-0.2c2.8,2.5,9.6,3.2,12.9,1.4c0.2-0.1,0.3-0.3,0.4-0.5c0.3-0.4,0.6-0.7,0.8-1.1
			c0.4,0.5,0.8,0.9,1.2,1.4c0.4,0.4,0.6,1.2,1,1.3c1.9,0.7,3.8,1.4,5.7,1.7c1.9,0.2,4-0.2,5.9-0.3c3.9-0.2,7.8-0.4,11.5,1.2
			c1.8,0.8,3.6,1,5.5,0.6c4.6-0.9,9.2-1.7,13.7-2.6c2.2-0.5,4.5-1,6.7-1.7c2-0.7,3.9-1.7,5.8-2.6c2-0.9,4-1.8,5.9-2.7
			c3.1-1.5,6.4-1.8,9.7-2.3c1.2-0.2,1.8,0,1.9,1.1c0.1,0.9,0.6,1,1.4,0.7c1.3-0.5,2.6-0.7,3.8-1.4c1.1-0.6,2-1.6,2.9-2.4
			c0.7-0.6,1.3-1.3,1.9-1.9c0.1,0,0.2,0,0.3,0c0.9,0.4,1.9,0.7,2.6,1.3c2.4,2.1,5.3,1.5,8.1,1.5c1,0,1.9,0.2,2.9,0.3
			c0,0.2,0,0.3,0,0.5c-3.3,2.3-7.3,2.6-11.1,3.4c-4.1,0.9-8,2-11.4,4.5c-3.9,2.8-7.8,5.7-12.6,7.1c-0.2,0.1-0.4,0.2-0.6,0.2
			c-3.1-0.3-5.7,1.8-8.7,2c-0.5,0-1,0.4-1.4,0.6c-3.6,1.7-7.3,3.4-10.9,5c-1.2,0.5-2.4,1.1-3.6,1.5c-0.8,0.2-1.7,0.1-2.9,0.2
			c-0.1,0.3-0.5,0.9-0.6,1.6c-0.5,2.3-0.9,4.5-1.3,6.8c-0.7,4.1-2.7,7.6-5.3,10.8c-1.3,1.6-2.2,3.5-3.2,5.3
			c-0.1,0.2-0.1,0.5-0.3,0.7c-1.6,2-1.2,4.3-1,6.6c0.1,2,0,4,0,6c0,0.8-0.2,1.6-0.1,2.3c0.5,3.7-0.2,7.2-1.3,10.7
			c-0.5,1.7-0.9,3.5-1.4,5.3c-0.2,0.8-0.3,1.5-0.5,2.3c-0.8,3.1-1.3,3.5-4.5,3.6c-0.9,0-1.7,0.2-2.6,0.3
			C709.6,279.5,709.5,279.5,709.4,279.5z M709.2,222c0.1,0,0.3,0,0.4,0c0-0.2,0.2-0.6,0.1-0.7c-1-1.4-0.8-2.7,0-4
			c0.5-0.7,0.9-1.5,1.3-2.3c-1.5-0.7-2.9-0.2-4.3,0.5C707.6,217.7,708.4,219.8,709.2,222z M713.4,217.8c0.1-1.3-0.4-2.2-1.3-2.2
			c-1,0-1.3,0.6-1.4,1.5c-0.1,0.7-0.4,1.4-0.5,2.1c-0.1,0.3,0,0.8,0.1,0.9c0.3,0.1,0.9,0.2,1.2,0.1
			C712.5,219.7,713.8,219.1,713.4,217.8z"/>
		<path class="st19" d="M781.1,189c-0.6,0.6-1.3,1.3-1.9,1.9c-1,0.8-1.9,1.8-2.9,2.4c-1.2,0.6-2.5,0.9-3.8,1.4
			c-0.8,0.3-1.2,0.2-1.4-0.7c-0.2-1.2-0.8-1.3-1.9-1.1c-3.3,0.5-6.7,0.7-9.7,2.3c-1.9,1-3.9,1.8-5.9,2.7c-1.9,0.9-3.8,1.9-5.8,2.6
			c-2.2,0.8-4.4,1.3-6.7,1.7c-4.6,0.9-9.1,1.7-13.7,2.6c-1.9,0.4-3.6,0.2-5.5-0.6c-3.7-1.6-7.6-1.4-11.5-1.2c-2,0.1-4,0.5-5.9,0.3
			c-1.9-0.2-3.8-1-5.7-1.7c-0.4-0.2-0.7-0.9-1-1.3c-0.4-0.5-0.8-0.9-1.2-1.4c-0.3,0.4-0.6,0.7-0.8,1.1c-0.1,0.2-0.2,0.4-0.4,0.5
			c-3.3,1.8-10,1.1-12.9-1.4c-1.2-1-2.4-0.9-3.4,0.2c-0.2,0.2-0.4,0.4-0.5,0.6c-1.1,2.9-3,5.4-4.8,7.9c-0.9,1.3-1.2,2.9-1.8,4.4
			c0-7.8,0-15.5,0-23.3C708.4,189,744.8,189,781.1,189z"/>
		<path class="st19" d="M795,192.1c-1-0.1-1.9-0.4-2.9-0.3c-2.8,0-5.6,0.7-8.1-1.5c-0.7-0.6-1.8-0.9-2.6-1.3c4.5,0,9.1,0,13.6,0
			C795,190,795,191.1,795,192.1z"/>
		<path class="st19" d="M709.2,222c-0.8-2.1-1.6-4.3-2.4-6.5c1.4-0.7,2.8-1.3,4.3-0.5c-0.5,0.8-0.9,1.5-1.3,2.3c-0.8,1.3-1,2.7,0,4
			c0.1,0.1-0.1,0.5-0.1,0.7C709.5,222,709.4,222,709.2,222z"/>
		<path class="st19" d="M713.4,217.8c0.3,1.4-0.9,1.9-2,2.5c-0.3,0.2-0.8,0.1-1.2-0.1c-0.1-0.1-0.1-0.6-0.1-0.9
			c0.1-0.7,0.4-1.4,0.5-2.1c0.1-0.9,0.4-1.5,1.4-1.5C713,215.6,713.6,216.5,713.4,217.8z"/>
	</g>
</g>
</svg>
