<?xml version="1.0" encoding="utf-8"?>
<!-- Generator: Adobe Illustrator 21.1.0, SVG Export Plug-In . SVG Version: 6.00 Build 0)  -->
<svg version="1.1" xmlns="http://www.w3.org/2000/svg" xmlns:xlink="http://www.w3.org/1999/xlink" x="0px" y="0px"
	 viewBox="0 0 1366 768" style="enable-background:new 0 0 1366 768;" xml:space="preserve">
<style type="text/css">
	.st0{fill:url(#SVGID_1_);}
	.st1{fill:url(#SVGID_2_);}
	.st2{fill:url(#SVGID_3_);}
	.st3{fill:url(#SVGID_4_);}
	.st4{fill:#FFFFFF;stroke:#000000;stroke-width:0.5;stroke-miterlimit:10;}
	.st5{fill:#1961AC;stroke:#727272;stroke-width:0.5;stroke-miterlimit:10;}
	.st6{fill:#FFFFFF;}
	.st7{fill:#1961AC;}
</style>
<g id="Layer_1">
	<g>
		<g>

				<linearGradient id="SVGID_1_" gradientUnits="userSpaceOnUse" x1="1695.5562" y1="-2107.1257" x2="1709.8716" y2="-2107.1257" gradientTransform="matrix(1.1275 0 0 0.257 -1237.4116 851.4117)">
				<stop  offset="5.650000e-03" style="stop-color:#DBDCDD"/>
				<stop  offset="8.228178e-02" style="stop-color:#DFE0E1"/>
				<stop  offset="0.1642" style="stop-color:#ECECED"/>
				<stop  offset="0.1864" style="stop-color:#F1F1F2"/>
				<stop  offset="0.4972" style="stop-color:#9C9EA1"/>
				<stop  offset="0.8539" style="stop-color:#FFFFFF"/>
				<stop  offset="0.891" style="stop-color:#F2F2F2"/>
				<stop  offset="0.9598" style="stop-color:#CED0D1"/>
				<stop  offset="1" style="stop-color:#B7B9BB"/>
			</linearGradient>
			<rect x="674.6" y="305.9" class="st0" width="16.1" height="7.9"/>

				<radialGradient id="SVGID_2_" cx="1095.163" cy="1374.5824" r="18.5597" gradientTransform="matrix(2.3079 0 0 0.595 -1843.361 -367.4231)" gradientUnits="userSpaceOnUse">
				<stop  offset="0" style="stop-color:#ADAAB3"/>
				<stop  offset="0.272" style="stop-color:#CDCBD1"/>
				<stop  offset="0.5612" style="stop-color:#E8E8EA"/>
				<stop  offset="0.8137" style="stop-color:#F9F9FA"/>
				<stop  offset="1" style="stop-color:#FFFFFF"/>
			</radialGradient>
			<path class="st1" d="M725.5,450.6c0,6.1-19.2,11.1-42.8,11.1c-23.7,0-42.8-4.9-42.8-11.1c0-6.1,19.2-11,42.8-11
				C706.3,439.5,725.5,444.5,725.5,450.6z"/>
			<linearGradient id="SVGID_3_" gradientUnits="userSpaceOnUse" x1="676.5542" y1="382.5638" x2="688.3921" y2="382.5638">
				<stop  offset="5.650000e-03" style="stop-color:#DBDCDD"/>
				<stop  offset="8.228178e-02" style="stop-color:#DFE0E1"/>
				<stop  offset="0.1642" style="stop-color:#ECECED"/>
				<stop  offset="0.1864" style="stop-color:#F1F1F2"/>
				<stop  offset="0.4972" style="stop-color:#9C9EA1"/>
				<stop  offset="0.8539" style="stop-color:#FFFFFF"/>
				<stop  offset="0.891" style="stop-color:#F2F2F2"/>
				<stop  offset="0.9598" style="stop-color:#CED0D1"/>
				<stop  offset="1" style="stop-color:#B7B9BB"/>
			</linearGradient>
			<path class="st2" d="M676.8,313.8V450c0,0,5.9,3,11.8,0V313.8H676.8z"/>
			<linearGradient id="SVGID_4_" gradientUnits="userSpaceOnUse" x1="676.5542" y1="314.562" x2="688.3921" y2="314.562">
				<stop  offset="5.650000e-03" style="stop-color:#CFD0D2"/>
				<stop  offset="9.630550e-02" style="stop-color:#D3D4D6"/>
				<stop  offset="0.1864" style="stop-color:#DFE0E1"/>
				<stop  offset="0.4944" style="stop-color:#818385"/>
				<stop  offset="0.8539" style="stop-color:#E8E8E9"/>
				<stop  offset="0.8901" style="stop-color:#DBDBDC"/>
				<stop  offset="0.9575" style="stop-color:#B7B9BB"/>
				<stop  offset="1" style="stop-color:#9EA0A3"/>
			</linearGradient>
			<rect x="676.8" y="313.9" class="st3" width="11.8" height="1.3"/>
		</g>
		<g>
			<g>
				<circle class="st4" cx="682.5" cy="356.5" r="37.5"/>
				<circle class="st5" cx="682.5" cy="356.5" r="35.3"/>
			</g>
		</g>
	</g>
</g>
<g id="Layer_2">
	<g>
		<path class="st6" d="M683.2,374.7l-3.1-10.3h-11.5l-2.9,10.3h-9.4l12.3-40h11.9l12.4,40H683.2z M706.7,374.7h-9v-29h9V374.7z
			 M702.1,342.1c-2.8,0-4.8-2-4.7-4.5c-0.1-2.6,1.8-4.6,4.8-4.6s4.7,2,4.8,4.6C707,340.1,705.1,342.1,702.1,342.1L702.1,342.1z
			 M702.1,342.1"/>
		<path class="st7" d="M674.3,341.5h-0.1c-0.6,2.4-1.2,5.4-1.8,7.7l-2.4,8.5h8.9l-2.5-8.5C675.6,346.8,674.9,343.9,674.3,341.5
			L674.3,341.5z M674.3,341.5"/>
	</g>
</g>
</svg>
