<svg xmlns="http://www.w3.org/2000/svg" viewBox="0 0 1366 768">
  <style>
    .st1{fill:#390}
  </style>
  <circle cx="592.5" cy="207.5" r="97.5" fill="#fbd41c" id="sun"/>
  <g id="mountains">
    <path class="st1" d="M352 305c11.1-49.5 33.6-145.2 202.1-17.2 0 0-206.2 58.8 6.2 134s258.6 142.9 6.1 195.9c-252.6 53-247.6 16.2-253.4-52.7-5.1-60.2 36.4-248.2 39-260z"/>
    <path class="st1" d="M832.6 158.3s-51.6-61.8-169 37c0 0-103 77.9-116.4 98.5-14.3 21.9-72.1 64.4 28.7 73.4s290.2 28.8 319.9 61.9c26.7 29.8-9.4-122.1-14.3-142.6-4.9-20.4-16.4-94.8-48.9-128.2z"/>
  </g>
</svg>
