<?xml version="1.0" encoding="utf-8"?>
<!-- Generator: Adobe Illustrator 21.1.0, SVG Export Plug-In . SVG Version: 6.00 Build 0)  -->
<svg version="1.1" id="Layer_1" xmlns="http://www.w3.org/2000/svg" xmlns:xlink="http://www.w3.org/1999/xlink" x="0px" y="0px"
	 viewBox="0 0 1366 768" style="enable-background:new 0 0 1366 768;" xml:space="preserve">
<style type="text/css">
	.st0{fill:#155289;stroke:#155289;stroke-width:2;stroke-miterlimit:10;}
	.st1{fill:#FFFFFF;stroke:#FFFFFF;stroke-width:2;stroke-miterlimit:10;}
	.st2{fill:#FFFFFF;stroke:#FFFFFF;stroke-width:3;stroke-miterlimit:10;}
</style>
<g id="Street_name">
	<g id="Sign">
		<path id="blue_sign_2_" class="st0" d="M1344,614.3H27.3c-6.6,0-12-5.4-12-12V169c0-6.6,5.4-12,12-12H1344c6.6,0,12,5.4,12,12
			v433.3C1356,608.9,1350.6,614.3,1344,614.3z"/>
	</g>
	<g id="Marketer">
		<path id="M" class="st1" d="M190,488.4c-1.8,5.3-3.7,10.6-5.4,15.9c-1.9,5.9-3.4,12-5.3,17.8c-2.7,8.3-10,5.6-15.1,5.9
			c-2.2,0.1-5,0-6.6-7.5c-2.2-10.4-6.5-21.5-9.6-31.7c-0.2-0.5-0.6-0.5-2.3-1.1c-0.4,2.6-0.7,4.4-0.7,6.1c0,15.8,0.1,31.5,0.1,47.3
			c0,10.1-0.2,10.4-11.7,8.5c0-3.2,0-6.6,0-10c0-18.3,0.1-36.5-0.1-54.8c-0.1-5,1.5-6.4,6.4-6.4c16.3-0.1,16.3-0.3,21.1,16.7
			c1.1,3.6,2.3,7,3.4,10.7c1.2,3.5,2.3,7,4.1,12.3c1.6-3.4,3-5.4,3.7-7.8c2.5-8,4.8-16.1,6.9-24.2c1.5-5.7,4.5-7.8,10.7-7.6
			c16,0.5,13.9-1,13.9,13.6c0.1,17,0,34.1,0.1,51c0,4,0.3,7.6-5.4,7.8c-6,0.2-5.4-3.6-5.4-7.5c0-17.9,0-36,0-53.9
			C191.8,489,191,488.6,190,488.4z"/>
		<path id="B" class="st1" d="M564.4,512.1c9,7.7,11.1,16.4,7.6,26.7c-2.5,7.2-8.1,11.5-16,11.6c-8.4,0.2-17-0.1-25.4,0.1
			c-4.6,0.1-6.3-1.6-6.3-6.1c0.2-20.2,0.1-40.4,0-60.7c0-4.2,1.7-5.2,5.4-5.2c9.3,0.1,18.5-0.3,27.8,0.1c11.4,0.5,18.5,16.4,12,26.7
			C568.1,507.7,566.4,509.5,564.4,512.1z M535.5,528.9c0.1,13.6-1.3,12.3,11.2,12.3c10.6,0.1,15-3.3,15.2-11.5
			c0.1-9.5-3.7-12.2-17.1-12.2C535.5,517.6,535.5,517.6,535.5,528.9z M546.6,487.9c-11.1,0-11.1,0-11.1,7.8c0,12.2,0,12.2,10,12.2
			c11.5,0,14-1.8,13.9-10.7C559.3,489.7,556.9,487.9,546.6,487.9z"/>
		<path id="k" class="st1" d="M311.3,522.4c3-4.4,6-8.6,8.9-13.1c3-4.7,6.8-6,13.3-3.6c-3.7,5.4-6.9,10.7-10.8,15.4
			c-3.6,4.3-3,7.6,0.4,11.6c4.2,4.9,7.6,10.4,11.6,16c-7.3,3.5-11.2,1.3-14.5-4.5c-2.7-4.7-6.2-9.1-9.4-13.6
			c-0.6,0.1-1.3,0.3-1.9,0.4c0,4.3,0,8.5,0,12.9c0,3.2,0.4,6.5-4.5,6.5c-4.5,0-4.2-3.1-4.2-6.1c0-17.9-0.1-36,0.2-53.9
			c0-1.9,2-5,3.7-5.4c4-1.1,4.7,2,4.7,5.3c0,9.4,0,18.9,0.1,28.3c0,1.1,0.3,2,0.4,3.1C310.2,521.9,310.8,522.2,311.3,522.4z"/>
		<path id="u" class="st1" d="M613.9,546.7c-7.2,4.8-13.1,4-18.5,3.5c-6.4-0.5-12.1-4.2-12.4-11.9c-0.5-12.6-1.1-25.2-1-37.8
			c0-1.8,3.2-5.7,5.9-5.4c2.5,0.1,4.6,3.6,4.6,5.6c0.5,9.7,0.4,19.4,0.2,29.2c-0.1,6,1.5,10.7,8.2,11c7.3,0.3,9.4-5.2,9.7-10.9
			c0.5-8.9,0.1-17.8,0.1-26.8c0-3.6-0.7-7.7,5-7.9c6.5-0.2,5.3,4.5,5.3,8.2c0.1,12.4,0.1,24.8,0,37.1c0,2.7,0.6,6.7-1.7,8.1
			C617.2,549.9,614.5,547,613.9,546.7z"/>
		<path id="n" class="st1" d="M708.5,500.5c4.2-6.4,11.5-6.6,18.7-3.8c8,3.2,10.4,10.5,10.3,18.7c-0.1,9.2-0.2,18.4,0,27.6
			c0.1,4.6-0.7,7.8-6.2,7.7c-5.6-0.1-6-3.6-6-8c0.1-9.4,0-18.9,0-28.3c0-5.6-2.1-9.4-8.3-8.9c-5.7,0.4-8.1,3.8-8,9.5
			c0.1,9.4-0.1,18.9,0.1,28.3c0.1,4.9-1.4,7.5-6.6,7.4c-5.1-0.1-5.9-3.1-5.8-7.4c0.1-12.4-0.1-24.7,0.1-37.1c0.1-2.9,1.4-7.2,2.1-10
			C706.9,492.7,704,500.8,708.5,500.5z"/>
		<path id="t" class="st1" d="M389.7,524.4c0-3.5,0.4-7-0.1-10.4c-0.3-2.2-1.7-4.7-3.4-6.1c-3.4-2.9-3.8-6.8-0.6-8.3
			c4.3-2.1,4.6-4.9,4.3-8.8c-0.3-3.7,1-5.4,4.7-5.4c3.6,0,5.9,1.2,5.6,5.6c-0.3,4.8,0.3,8.4,6.2,7.9c1-0.1,3,2.7,2.9,4
			c-0.1,1.7-1.7,4.9-2.8,4.9c-6.2,0-5.6,4.5-5.6,8.8c0,4.7,0.1,9.4-0.1,14.2c-0.2,5,0.1,9.2,5.8,11c1.3,0.4,2.3,4.3,2.2,6.5
			c-0.1,1-3.5,2.7-5.2,2.5c-9.1-1.1-13.8-7.2-13.9-17.1C389.7,530.4,389.7,527.4,389.7,524.4z"/>
		<path id="dot" class="st1" d="M502.3,546.5c0.3,2.7-1.4,4.1-4.6,4.1c-3.3,0-5.4-1.2-5.4-4.6c0-3.2,1.9-5,5.1-5.1
			C500.6,540.8,502.3,542.8,502.3,546.5z"/>
		<path id="a2" class="st1" d="M241.8,544.9c-7.5,6.1-14,6.9-21.6,2.6c-7.3-4.2-7.7-11-6.6-17.9c1-6.5,9.1-12.1,17.1-13.3
			c3.6-0.6,7-2.7,10.3-4.6c0.2-0.1-1.9-6-2.7-5.9c-4,0.3-7.8,1.9-11.7,2.7c-3,0.6-6.1,0.7-9.2,1.1c0.6-3.2,0.3-7.2,2.1-9.4
			c5.8-6.8,14.1-5.8,21.6-4.3c6.5,1.3,10.8,6.4,11.1,13c0.7,11.6,0.9,23.4,0.9,35c0,1.4-2.3,4.1-3.4,4.1
			C247.1,547.7,244.9,546.2,241.8,544.9z M241.4,528.7c-0.6-0.6-2.6-4.1-4.2-3.8c-5.4,0.5-12.3,1.1-12.4,8.3c0,2.5,3.7,6.5,6.4,7.3
			C236.6,541.8,240.8,537.1,241.4,528.7z"/>
		<path id="r2" class="st1" d="M273.8,499.3c4.6-1.7,8.6-3.8,12.9-4.4c1.7-0.2,5,3.1,5.6,5.3c1,4-1.7,5-5.7,4.9
			c-8.2-0.2-10.5,2.5-10.6,10.9c-0.1,8.8-0.2,17.5,0,26.4c0.1,4.5-0.3,7.8-6,7.9c-5.4,0.1-6.5-2.8-6.5-7.5c0.1-13-0.1-26.1,0.2-39.1
			c0.1-2.6,0.3-6.5,2.8-7.6C269,495.2,271.7,498.5,273.8,499.3z"/>
		<path id="e2" class="st1" d="M351.3,525.8c-0.6,6.3-2.2,12.4,4.9,14.4c2.3,0.6,5.3-1.2,7.9-2.2c3.2-1.2,6.2-2.8,9.8-4.4
			c1.5,7.6,0,12-5,14c-15.1,6.2-27.4,2.7-29.7-17.4c-0.9-8.2,0.9-17.1,2.8-25.3c1.7-7.4,9.2-10.6,18.6-9.7
			c7.2,0.6,12.2,5.3,13.7,12.6c3.5,17.9,3.5,17.9-14.2,18.2C357.2,525.9,354.4,525.8,351.3,525.8z M367.2,516
			c-2.6-4.6-3.7-8.4-6.3-10.6c-1.3-1.2-5.9-0.6-7.2,0.7c-2,2.2-2.5,6-3.8,9.8C356.2,516,360.4,516,367.2,516z"/>
		<path id="e3" class="st1" d="M430.3,525.7c-0.6,6.3-2.3,12.5,5.2,14.5c2.5,0.6,5.6-1.2,8.3-2.2c3.3-1.3,6.5-2.8,10.3-4.4
			c1.5,7.6,0,12.1-5.2,14.1c-15.7,6.2-28.7,2.7-31-17.6c-1-8.3,1-17.2,2.9-25.5c1.7-7.4,9.6-10.7,19.4-9.8
			c7.5,0.6,12.7,5.3,14.2,12.7c3.7,18,3.7,18-14.8,18.3C436.5,525.7,433.5,525.7,430.3,525.7z M446.9,515.7c-2.7-4.7-4-8.4-6.5-10.7
			c-1.4-1.2-6.1-0.6-7.5,0.7c-2.1,2.2-2.6,6.1-4.1,9.9C435.4,515.7,439.9,515.7,446.9,515.7z"/>
		<path id="r3" class="st1" d="M478.1,499.2c4.7-1.7,8.9-3.8,13.2-4.4c1.7-0.2,5.1,3.1,5.7,5.3c1,4-1.7,5-5.8,4.9
			c-8.4-0.2-10.7,2.5-10.8,10.9c-0.1,8.8-0.2,17.5,0,26.4c0.1,4.5-0.3,7.8-6.1,7.9c-5.6,0.1-6.7-2.8-6.6-7.5
			c0.1-13-0.1-26.1,0.2-39.1c0.1-2.6,0.3-6.5,2.8-7.6C473.2,494.9,475.9,498.3,478.1,499.2z"/>
		<path id="s2" class="st1" d="M646.9,550.2c-5.2-0.6-10.3-3.4-14.5-6.4c-1.9-1.4-4.2-6.6-2.1-9c2-2.2,6,0.4,8.9,1.1
			c1.3,0.3,2.3,2.7,3.4,2.6c3.8-0.3,9.1,0,11.2-2.2c3.4-3.6-1-6.1-4.1-8.2c-6.2-4.3-12.8-8.2-17.8-13.7c-2-2.2-1.5-8.5,0.3-11.7
			c5.6-10,25.5-10,30.8-0.4c1.1,2,2.7,5.4,1,7.2c-2.2,2.3-6.6-0.2-9.7-1c-2.1-0.5-3.8-3.2-5.9-3.4c-2-0.2-5.4,0.3-6.3,2.3
			c-1,2.2,1.4,5.1,3.1,6.5c2.8,2.3,6.4,3.6,9.7,5.3c9,4.7,13,11.7,10.9,19.5C664,544.9,657.2,551.4,646.9,550.2z"/>
		<g id="i2">
			<path class="st1" d="M686.8,527.2c0,6.2,0.4,12.3-0.2,18.4c-0.2,1.9-3.2,4.9-4.7,4.8c-1.9-0.1-5.2-2.9-5.3-4.5
				c-0.4-13-0.4-25.9,0-39c0.1-1.6,3.5-4,5.7-4.2c1.3-0.2,4.2,2.9,4.4,4.6C687.1,514,686.8,520.6,686.8,527.2z"/>
			<path class="st1" d="M683.6,480.3c2.3,1.3,3.3,4.5,3.7,7c0.6,3.8-1.4,6.3-5.8,6c-3.8-0.2-6.3-1.5-6.4-5.9
				C675.1,482.9,677.9,477.3,683.6,480.3z"/>
		</g>
		<path id="e4" class="st1" d="M759.1,525.8c-0.6,6.3-2.3,12.4,5.1,14.4c2.3,0.6,5.6-1.2,8.2-2.2c3.3-1.2,6.5-2.8,10.3-4.4
			c1.5,7.6,0,12-5.2,14.1c-15.6,6.2-28.6,2.7-30.9-17.5c-1-8.3,1-17.1,2.9-25.4c1.7-7.4,9.6-10.7,19.3-9.8
			c7.4,0.6,12.7,5.3,14.2,12.6c3.7,17.9,3.7,17.9-14.8,18.3C765.3,525.8,762.3,525.8,759.1,525.8z M775.6,515.9
			c-2.7-4.7-4-8.4-6.5-10.7c-1.4-1.2-6.1-0.6-7.5,0.7c-2.1,2.2-2.6,6-4.1,9.9C764.2,515.9,768.6,515.9,775.6,515.9z"/>
		<path id="s3" class="st1" d="M811.4,550.3c-5.2-0.6-10.3-3.4-14.5-6.4c-1.9-1.4-4.2-6.6-2.1-9c2-2.2,6,0.4,8.9,1.1
			c1.3,0.3,2.3,2.7,3.4,2.6c3.8-0.3,9.1,0,11.2-2.2c3.4-3.6-1-6.1-4.1-8.2c-6.2-4.3-12.8-8.2-17.8-13.7c-2-2.2-1.5-8.5,0.3-11.7
			c5.6-10,25.5-10,30.8-0.4c1.1,2,2.7,5.4,1,7.2c-2.2,2.3-6.6-0.2-9.7-1c-2.1-0.5-3.8-3.2-5.9-3.4c-2-0.2-5.4,0.3-6.3,2.3
			c-1,2.2,1.4,5.1,3.1,6.5c2.8,2.3,6.4,3.6,9.7,5.3c9,4.7,13,11.7,10.9,19.5C828.5,545.1,821.8,551.5,811.4,550.3z"/>
		<path id="s4" class="st1" d="M857.9,550.3c-5.2-0.6-10.3-3.4-14.5-6.4c-1.9-1.4-4.2-6.6-2.1-9c2-2.2,6,0.4,8.9,1.1
			c1.3,0.3,2.3,2.7,3.4,2.6c3.8-0.3,9.1,0,11.2-2.2c3.4-3.6-1-6.1-4.1-8.2c-6.2-4.3-12.8-8.2-17.8-13.7c-2-2.2-1.5-8.5,0.3-11.7
			c5.6-10,25.5-10,30.8-0.4c1.1,2,2.7,5.4,1,7.2c-2.2,2.3-6.6-0.2-9.7-1c-2.1-0.5-3.8-3.2-5.9-3.4c-2-0.2-5.4,0.3-6.3,2.3
			c-1,2.2,1.4,5.1,3.1,6.5c2.8,2.3,6.4,3.6,9.7,5.3c9,4.7,13,11.7,10.9,19.5C874.9,545.1,868.2,551.7,857.9,550.3z"/>
		<path id="e5" class="st1" d="M914.8,525.8c-0.6,6.3-2.3,12.4,5.1,14.4c2.3,0.6,5.6-1.2,8.2-2.2c3.3-1.2,6.4-2.8,10.3-4.4
			c1.5,7.6,0,12-5.2,14c-15.6,6.2-28.5,2.7-30.8-17.4c-1-8.2,1-17.1,2.9-25.3c1.7-7.4,9.5-10.6,19.2-9.7c7.4,0.6,12.6,5.3,14.1,12.6
			c3.7,17.9,3.7,17.9-14.7,18.2C921,525.8,918,525.8,914.8,525.8z M931.3,515.9c-2.7-4.6-4-8.4-6.5-10.6c-1.4-1.2-6.1-0.6-7.4,0.7
			c-2,2.2-2.6,6-4.1,9.8C919.9,515.9,924.4,515.9,931.3,515.9z"/>
		<path id="x" class="st1" d="M970.8,527.5c-3.1,6.2-5,11.2-7.9,15.6c-1.9,2.9-4.9,6.1-8,6.9c-4.6,1.3-6.6-1.5-4.3-6.2
			c0.7-1.4,1.6-2.8,2.7-4.1c10.3-12.4,8.9-24.5-0.3-36.8c-1.4-1.8-0.4-5.3-0.5-8c3.5,1.4,8.2,1.8,10.1,4.4
			c3.5,4.6,5.2,10.6,8.5,17.5c2.9-4.7,5.1-8.4,7.3-12.1c1.5-2.6,2.5-5.9,4.6-7.6c1.9-1.5,5.2-1.2,7.9-1.7c0,2.1,0,4.4-0.1,6.5
			c0,0.4-0.5,1-0.9,1.4c-11.2,13.3-8.8,26.2,1,39.1c1.3,1.7,0.3,4.9,0.4,7.5c-3.1-0.9-7.4-0.7-9-2.8
			C978.2,541.6,975.1,535.1,970.8,527.5z"/>
		<path id="p_2_" class="st1" d="M1014.8,546.4c0,5.6,0.5,10.1-0.2,14.6c-0.4,2.5-3.1,4.6-4.8,6.8c-2-2-5.7-4.2-5.7-6.2
			c-0.4-20-0.3-39.8-0.2-59.8c0-1.7,1.8-4.9,2.7-4.8c2.3,0.2,4.7,1.6,7.4,2.8c11.3-7.3,21.8-6.5,26.3,3.3
			c5.8,12.8,5.7,26.5,0.2,39.4C1036.6,551.4,1027,552.8,1014.8,546.4z M1032.9,523.1C1033,523.1,1032.9,523.1,1032.9,523.1
			c-0.2-3.8,0.3-7.9-1-11.3c-1.2-2.9-4.3-6.3-6.9-6.7c-2.3-0.3-7.4,2.9-7.7,5c-1,8.3-1.2,16.9-0.3,25.1c0.2,2.1,5.8,5.7,8.2,5.2
			c2.8-0.4,5.7-4.5,7-7.6C1033.4,530.2,1032.9,526.4,1032.9,523.1z"/>
		<path id="l" class="st1" d="M1055.2,513.8c0-7.6,0-15.2,0-22.7c0-3.4,0.4-6.2,4.9-6.4c4.8-0.1,4.7,3.1,4.7,6.3
			c0,13.6,0.1,27.2,0,40.8c0,4.4,0.4,8.2,4.5,11.2c1.3,1,2.5,4,1.2,5.9c-1.4,2.1-4,1.9-5.7,1.2c-5.3-2.1-8.9-5-9.1-10.8
			C1055.4,530.8,1055.2,522.3,1055.2,513.8C1055,513.8,1055.3,513.8,1055.2,513.8z"/>
		<path id="o2" class="st1" d="M1120.9,523.2c0,2.8-0.1,5.6,0,8.3c1.1,18.8-20.1,22.3-31.2,16.2c-0.9-0.5-1.7-1.1-2.6-1.7
			c-10-8.3-9.3-39.6,1.2-47.3c7-5.1,15.1-4.5,22.4-1.7c6.9,2.6,10.3,8.6,10.1,16.2C1120.8,516.6,1120.8,519.9,1120.9,523.2z
			 M1111.7,522.6c0-4.2-0.6-8.5-2.6-11.9c-1.6-2.7-5.7-5.6-8.4-5.4c-2.8,0.1-7.5,3.5-7.8,6c-1,7.6-0.9,15.6,0.1,23.2
			c0.3,2.3,4.8,5.9,7.4,5.9c3,0,7.2-2.6,8.6-5.3C1110.9,531.6,1111.7,527,1111.7,522.6z"/>
		<path id="r4_1_" class="st1" d="M1141.7,499.5c4.6-1.6,8.8-3.8,13.1-4.4c1.7-0.2,5.1,3.1,5.7,5.3c1,4-1.7,5-5.8,4.9
			c-8.3-0.2-10.7,2.5-10.7,10.9c-0.1,8.8-0.2,17.5,0,26.3c0.1,4.5-0.3,7.8-6.1,7.9c-5.6,0.1-6.6-2.8-6.6-7.5c0.1-13-0.1-25.9,0.2-39
			c0.1-2.6,0.3-6.4,2.8-7.5C1136.8,495.4,1139.5,498.6,1141.7,499.5z"/>
		<path id="e6" class="st1" d="M1176.3,525.9c-0.6,6.3-2.3,12.4,5.1,14.3c2.3,0.6,5.6-1.2,8.2-2.2c3.3-1.2,6.4-2.8,10.3-4.4
			c1.5,7.6,0,12-5.2,14c-15.6,6.2-28.4,2.7-30.8-17.4c-1-8.2,1-17.1,2.9-25.3c1.7-7.3,9.5-10.6,19.2-9.7c7.4,0.6,12.6,5.3,14.1,12.6
			c3.7,17.8,3.7,17.8-14.7,18.2C1182.5,525.9,1179.5,525.9,1176.3,525.9z M1192.9,516.1c-2.7-4.6-4-8.3-6.5-10.6
			c-1.4-1.2-6.1-0.6-7.4,0.7c-2,2.2-2.6,6-4.1,9.8C1181.4,516.1,1185.8,516.1,1192.9,516.1z"/>
		<path id="r5" class="st1" d="M1219.4,499.2c4.7-1.7,8.9-3.8,13.2-4.4c1.7-0.2,5.1,3.1,5.7,5.3c1,4-1.7,5-5.8,4.9
			c-8.4-0.2-10.7,2.5-10.8,10.9c-0.1,8.8-0.2,17.6,0,26.4c0.1,4.5-0.3,7.8-6.1,7.9c-5.6,0.1-6.7-2.8-6.6-7.5
			c0.1-13-0.1-26.1,0.2-39.1c0.1-2.6,0.3-6.5,2.8-7.6S1217.2,498.4,1219.4,499.2z"/>
		<path id="dot2" class="st1" d="M1245,546.5c0.3,2.6-1.5,4.1-4.9,4.1s-5.8-1.2-5.8-4.5c0-3.1,2-5,5.3-5
			C1243.1,540.9,1245,542.8,1245,546.5z"/>
	</g>
	<g id="Rosa_Pires">
		<path id="R_1_" class="st2" d="M286.4,399.4c-18,6-30.1,5.3-37.1-12.7c-5.4-13.9-14.2-26.6-19.7-40.5
			c-5.2-13.1-15.3-14.6-25.3-11.3c-4.3,1.4-7.4,11.2-8,17.5c-1.3,12.7-0.8,25.6-0.5,38.4c0.2,9.3-4.8,13.8-12.8,11.3
			c-4.9-1.5-11.7-7.9-11.7-12.2c-0.8-47.1-0.3-94.2-0.7-141.3c-0.1-10.9,4.5-14.1,14.7-13.8c19.2,0.5,38.4-0.1,57.6,0.1
			c18,0.2,30.6,9.8,35.6,27.3c7.3,25.6,6.9,49.4-17.7,66.7c-9.7,6.8-4.8,14-0.9,21.2C268.6,366.2,277.2,382.3,286.4,399.4z
			 M196,311.4c15.7,0,29.1,1.5,42.1-0.4c16.1-2.3,18.5-15.6,17.7-29.2c-0.7-13-4.4-24.1-20.3-25.5c-40.3-3.4-40.3-3.4-39.5,36.7
			C196,298.2,196,303.3,196,311.4z"/>
		<path id="s_3_" class="st2" d="M475.1,402.3c-12.4-1.6-24.2-7.8-34.2-14.7c-4.5-3.1-9.9-15.2-4.9-20.5c4.7-5.1,14.1,0.9,20.9,2.5
			c3.1,0.7,5.6,6.1,8.1,5.9c9.1-0.7,21.4,0,26.4-5.2c8.1-8.4-2.1-13.9-9.7-19c-14.6-9.8-30.2-19-41.9-31.4
			c-4.7-5.1-3.5-19.7,0.7-27.1c13.1-23,60-23.2,72.4-1c2.6,4.6,6.4,12.5,2.4,16.5c-5.3,5.4-15.6-0.4-22.9-2.2
			c-5-1.3-9.1-7.3-13.9-7.8c-4.7-0.4-9.9,3.5-14.9,5.5c2.3,5.1,3.2,11.8,7.2,15c6.6,5.3,15.2,8.4,23,12.3
			c21.3,10.8,30.6,27.1,25.6,44.9C515.5,390.5,499.6,405.3,475.1,402.3z"/>
		<path id="a_1_" class="st2" d="M607.8,390.5c-16.8,14-31.4,15.8-48.2,5.8c-16.2-9.6-17.3-25-14.9-41c2.2-14.9,20.2-27.4,38.1-30.4
			c8.1-1.4,15.8-6.1,23-10.5c0.6-0.4-4.3-13.6-6-13.5c-8.8,0.7-17.4,4.3-26.2,6.1c-6.7,1.4-13.7,1.6-20.5,2.3
			c1.5-7.2,0.7-16.3,4.9-21.3c12.8-15.6,31.6-13.1,48.3-9.8c14.5,2.8,24,14.5,24.9,29.8c1.6,26.6,1.9,53.2,1.9,79.8
			c0,3.3-5.2,9.3-7.7,9.2C619.9,396.8,614.7,393.3,607.8,390.5z M606.9,353.3c-1.5-1.5-5.8-9.2-9.4-8.8c-12.2,1.1-27.4,2.3-27.7,19
			c-0.1,5.7,8.2,14.8,14.4,16.5C596.1,383.4,605.8,372.6,606.9,353.3z"/>
		<path id="o_1_" class="st2" d="M407.9,340.2c0,6.4-0.3,12.8,0.1,19.1c2.4,43.1-45.9,51.2-71.6,37.2c-2-1.1-4-2.4-5.8-3.8
			c-23-19.2-21.4-90.8,2.7-108.5c16.1-11.8,34.5-10.2,51.4-3.9c15.9,5.9,23.5,19.8,23.2,37.3C407.8,325.1,407.9,332.7,407.9,340.2z
			 M386.9,338.8c-1.8-9.4-1.4-19.6-5.8-27.1c-3.6-6.2-12.9-12.7-19.5-12.4c-6.4,0.2-17.2,8.1-17.9,13.7c-2.3,17.5-2,35.7,0.2,53.2
			c0.7,5.4,11,13.5,16.8,13.5c6.9,0,16.4-6,19.9-12.1C385.2,359.4,385,348.6,386.9,338.8z"/>
		<path id="e_1_" class="st2" d="M1031.9,346.5c-1.5,14.5-5.4,28.6,11.9,33.2c5.5,1.5,12.8-2.8,19-5.1c7.6-2.8,14.9-6.3,23.6-10.1
			c3.5,17.5,0,27.5-12,32.3c-35.9,14.2-65.7,6.1-70.9-40.2c-2.1-19,2.1-39.4,6.6-58.4c4-16.9,22-24.4,44.5-22.5
			c17,1.5,29.2,12.2,32.6,29c8.5,41.3,8.5,41.3-34,41.9C1046.3,346.5,1039.4,346.5,1031.9,346.5z M1070,323.6
			c-6.2-10.7-9-19.4-15-24.5c-3.2-2.7-14-1.6-17.1,1.8c-4.8,5.2-5.9,13.8-9.3,22.7C1043.8,323.6,1053.9,323.6,1070,323.6z"/>
		<path id="r_1_" class="st2" d="M941.8,285.2c10.7-3.8,20.3-8.9,30.3-10c4-0.4,11.7,7.2,12.9,12.3c2.2,9.2-3.9,11.6-13.3,11.4
			c-19.3-0.4-24.5,5.6-24.7,25c-0.2,20.2-0.4,40.3,0,60.5c0.2,10.3-0.8,18-14,18.2c-12.8,0.2-15.3-6.4-15.2-17.3
			c0.3-29.9-0.2-59.9,0.4-89.8c0.1-5.8,0.7-14.9,6.4-17.3C930.6,275.6,936.7,283.2,941.8,285.2z"/>
		<path id="s_2_" class="st2" d="M1161.7,402.3c-12.1-1.6-23.7-7.8-33.4-14.7c-4.4-3.1-9.7-15.2-4.8-20.5c4.6-5.1,13.8,0.9,20.4,2.5
			c3,0.7,5.5,6.1,8,5.9c8.9-0.7,20.9,0,25.8-5.2c7.9-8.4-2.1-14-9.5-19c-14.3-9.8-29.6-19-41-31.5c-4.6-5.1-3.4-19.7,0.7-27.1
			c12.8-23.1,58.7-23.2,70.8-1c2.5,4.6,6.2,12.5,2.3,16.5c-5.2,5.4-15.2-0.4-22.4-2.2c-4.9-1.3-8.9-7.3-13.6-7.8
			c-4.6-0.4-9.7,3.5-14.6,5.5c2.2,5.1,3.1,11.8,7,15c6.5,5.3,14.8,8.4,22.5,12.3c20.8,10.8,29.9,27.1,25.1,45
			C1201.2,390.4,1185.6,405.3,1161.7,402.3z"/>
		<g id="i_1_">
			<path class="st2" d="M884.9,349.9c0,14,0.9,28-0.5,41.9c-0.4,4.3-7.4,11.1-11,11c-4.5-0.2-12.3-6.4-12.4-10.3
				c-1-29.5-1-59.1,0.1-88.6c0.1-3.6,8.3-8.9,13.3-9.6c3-0.4,9.8,6.5,10.1,10.5C885.6,319.7,884.9,334.8,884.9,349.9z"/>
			<path class="st2" d="M877.3,243.2c5.5,2.8,7.8,10.3,8.7,15.9c1.5,8.8-3.3,14.2-13.4,13.7c-8.8-0.5-14.8-3.5-14.9-13.4
				C857.7,249.1,864.2,236.4,877.3,243.2z"/>
		</g>
		<path id="P_1_" class="st2" d="M726.8,317c0-22.6,0.4-45.2-0.2-67.7c-0.3-10.5,3.2-14.6,13.5-14.3c18.6,0.5,37.3,1.1,55.8,0
			c19.2-1.2,29.8,10.4,36.6,25.3c18.2,40-7.1,79-50.2,79.1c-33.9,0.1-28.2-4-28.8,29.2c-0.1,6.4-0.4,12.8,0,19.1
			c0.6,9.7-1.7,15.5-12.9,14.9c-9.6-0.5-14.3-3.5-14-14.4C727.1,364.5,726.8,340.8,726.8,317L726.8,317z M753.4,256.8
			c0,11.5-0.1,20.6,0,29.7c0.6,32.7-5.1,29,29.1,28c23.8-0.7,26.8-4.3,27.6-29.3c0.6-20.5-4-31.2-27.5-28.5
			C773.9,257.7,764.9,256.8,753.4,256.8z"/>
	</g>
</g>
</svg>
