<?xml version="1.0" encoding="utf-8"?>
<!-- Generator: Adobe Illustrator 21.1.0, SVG Export Plug-In . SVG Version: 6.00 Build 0)  -->
<svg version="1.1" id="Layer_1" xmlns="http://www.w3.org/2000/svg" xmlns:xlink="http://www.w3.org/1999/xlink" x="0px" y="0px"
	 viewBox="0 0 1366 768" style="enable-background:new 0 0 1366 768;" xml:space="preserve">
<style type="text/css">
	.st0{fill:#FFFFFF;stroke:#345E5D;stroke-width:2;stroke-miterlimit:10;}
	.st1{fill:#FFFFFF;stroke:#345E5D;stroke-width:18;stroke-miterlimit:10;}
	.st2{fill:#345E5D;stroke:#6F6F6F;stroke-width:3;stroke-miterlimit:10;}
	.st3{fill:#345E5D;stroke:#6F6F6F;stroke-width:2;stroke-miterlimit:10;}
</style>
<g id="Street_name">
	<g id="Sign">
		<path id="blue_sign_2_" class="st0" d="M1344,614.3H27.3c-6.6,0-12-5.4-12-12V169c0-6.6,5.4-12,12-12H1344c6.6,0,12,5.4,12,12
			v433.3C1356,608.9,1350.6,614.3,1344,614.3z"/>
		<g id="green_line">
			<path class="st1" d="M1326.9,599.9H46.3c-6.7,0-12.1-5.6-12.1-12.4V184.4c0-6.8,5.5-12.4,12.1-12.4h1280.6
				c6.7,0,12.1,5.6,12.1,12.4v403.2C1339,594.3,1333.5,599.9,1326.9,599.9z"/>
		</g>
		<ellipse class="st2" cx="85.2" cy="223.8" rx="7" ry="13.5"/>
		<ellipse class="st2" cx="83.8" cy="543.9" rx="7" ry="13.6"/>
		<ellipse class="st2" cx="1285.7" cy="548.5" rx="6.8" ry="13.6"/>
		<ellipse class="st2" cx="1289.5" cy="229" rx="7.4" ry="15.5"/>
	</g>
	<g id="Marketer">
		<path id="M" class="st3" d="M224.4,453.8c-1.7,5-3.5,9.9-5.1,14.9c-1.8,5.5-3.2,11.2-5,16.7c-2.5,7.8-9.4,5.2-14.1,5.5
			c-2.1,0.1-4.7,0-6.2-7c-2.1-9.7-6.1-20.1-9-29.7c-0.2-0.5-0.6-0.5-2.2-1c-0.4,2.4-0.7,4.1-0.7,5.7c0,14.8,0.1,29.5,0.1,44.3
			c0,9.5-0.2,9.7-11,8c0-3,0-6.2,0-9.4c0-17.1,0.1-34.2-0.1-51.3c-0.1-4.7,1.4-6,6-6c15.3-0.1,15.3-0.3,19.8,15.6
			c1,3.4,2.2,6.6,3.2,10c1.1,3.3,2.2,6.6,3.8,11.5c1.5-3.2,2.8-5.1,3.5-7.3c2.3-7.5,4.5-15.1,6.5-22.7c1.4-5.3,4.2-7.3,10-7.1
			c15,0.5,13-0.9,13,12.7c0.1,15.9,0,31.9,0.1,47.8c0,3.7,0.3,7.1-5.1,7.3c-5.6,0.2-5.1-3.4-5.1-7c0-16.8,0-33.7,0-50.5
			C226.1,454.3,225.3,454,224.4,453.8z"/>
		<path id="B" class="st3" d="M575,476c8.4,7.2,10.4,15.4,7.1,25c-2.3,6.7-7.6,10.8-15,10.9c-7.9,0.2-15.9-0.1-23.8,0.1
			c-4.3,0.1-5.9-1.5-5.9-5.7c0.2-18.9,0.1-37.8,0-56.8c0-3.9,1.6-4.9,5.1-4.9c8.7,0.1,17.3-0.3,26,0.1c10.7,0.5,17.3,15.4,11.2,25
			C578.5,471.8,576.9,473.5,575,476z M547.9,491.7c0.1,12.7-1.2,11.5,10.5,11.5c9.9,0.1,14-3.1,14.2-10.8c0.1-8.9-3.5-11.4-16-11.4
			C547.9,481.1,547.9,481.1,547.9,491.7z M558.3,453.3c-10.4,0-10.4,0-10.4,7.3c0,11.4,0,11.4,9.4,11.4c10.8,0,13.1-1.7,13-10
			C570.2,455,568,453.3,558.3,453.3z"/>
		<path id="k" class="st3" d="M338,485.6c2.8-4.1,5.6-8.1,8.3-12.3c2.8-4.4,6.4-5.6,12.5-3.4c-3.5,5.1-6.5,10-10.1,14.4
			c-3.4,4-2.8,7.1,0.4,10.9c3.9,4.6,7.1,9.7,10.9,15c-6.8,3.3-10.5,1.2-13.6-4.2c-2.5-4.4-5.8-8.5-8.8-12.7
			c-0.6,0.1-1.2,0.3-1.8,0.4c0,4,0,8,0,12.1c0,3,0.4,6.1-4.2,6.1c-4.2,0-3.9-2.9-3.9-5.7c0-16.8-0.1-33.7,0.2-50.5
			c0-1.8,1.9-4.7,3.5-5.1c3.7-1,4.4,1.9,4.4,5c0,8.8,0,17.7,0.1,26.5c0,1,0.3,1.9,0.4,2.9C336.9,485.1,337.5,485.4,338,485.6z"/>
		<path id="u" class="st3" d="M621.3,508.4c-6.7,4.5-12.3,3.7-17.3,3.3c-6-0.5-11.3-3.9-11.6-11.1c-0.5-11.8-1-23.6-0.9-35.4
			c0-1.7,3-5.3,5.5-5.1c2.3,0.1,4.3,3.4,4.3,5.2c0.5,9.1,0.4,18.2,0.2,27.3c-0.1,5.6,1.4,10,7.7,10.3c6.8,0.3,8.8-4.9,9.1-10.2
			c0.5-8.3,0.1-16.7,0.1-25.1c0-3.4-0.7-7.2,4.7-7.4c6.1-0.2,5,4.2,5,7.7c0.1,11.6,0.1,23.2,0,34.7c0,2.5,0.6,6.3-1.6,7.6
			C624.4,511.4,621.9,508.6,621.3,508.4z"/>
		<path id="n" class="st3" d="M709.9,465.1c3.9-6,10.8-6.2,17.5-3.6c7.5,3,9.7,9.8,9.6,17.5c-0.1,8.6-0.2,17.2,0,25.8
			c0.1,4.3-0.7,7.3-5.8,7.2c-5.2-0.1-5.6-3.4-5.6-7.5c0.1-8.8,0-17.7,0-26.5c0-5.2-2-8.8-7.8-8.3c-5.3,0.4-7.6,3.6-7.5,8.9
			c0.1,8.8-0.1,17.7,0.1,26.5c0.1,4.6-1.3,7-6.2,6.9c-4.8-0.1-5.5-2.9-5.4-6.9c0.1-11.6-0.1-23.1,0.1-34.7c0.1-2.7,1.3-6.7,2-9.4
			C708.4,457.8,705.7,465.4,709.9,465.1z"/>
		<path id="t" class="st3" d="M411.4,487.5c0-3.3,0.4-6.6-0.1-9.7c-0.3-2.1-1.6-4.4-3.2-5.7c-3.2-2.7-3.6-6.4-0.6-7.8
			c4-2,4.3-4.6,4-8.2c-0.3-3.5,0.9-5.1,4.4-5.1c3.4,0,5.5,1.1,5.2,5.2c-0.3,4.5,0.3,7.9,5.8,7.4c0.9-0.1,2.8,2.5,2.7,3.7
			c-0.1,1.6-1.6,4.6-2.6,4.6c-5.8,0-5.2,4.2-5.2,8.2c0,4.4,0.1,8.8-0.1,13.3c-0.2,4.7,0.1,8.6,5.4,10.3c1.2,0.4,2.2,4,2.1,6.1
			c-0.1,0.9-3.3,2.5-4.9,2.3c-8.5-1-12.9-6.7-13-16C411.4,493.1,411.4,490.3,411.4,487.5z"/>
		<path id="dot" class="st3" d="M516.8,508.2c0.3,2.5-1.3,3.8-4.3,3.8c-3.1,0-5.1-1.1-5.1-4.3c0-3,1.8-4.7,4.8-4.8
			C515.2,502.8,516.8,504.7,516.8,508.2z"/>
		<path id="a2" class="st3" d="M272.9,506.7c-7,5.7-13.1,6.5-20.2,2.4c-6.8-3.9-7.2-10.3-6.2-16.8c0.9-6.1,8.5-11.3,16-12.5
			c3.4-0.6,6.6-2.5,9.6-4.3c0.2-0.1-1.8-5.6-2.5-5.5c-3.7,0.3-7.3,1.8-11,2.5c-2.8,0.6-5.7,0.7-8.6,1c0.6-3,0.3-6.7,2-8.8
			c5.4-6.4,13.2-5.4,20.2-4c6.1,1.2,10.1,6,10.4,12.2c0.7,10.9,0.8,21.9,0.8,32.8c0,1.3-2.2,3.8-3.2,3.8
			C277.9,509.3,275.8,507.9,272.9,506.7z M272.5,491.5c-0.6-0.6-2.4-3.8-3.9-3.6c-5.1,0.5-11.5,1-11.6,7.8c0,2.3,3.5,6.1,6,6.8
			C268,503.8,272,499.4,272.5,491.5z"/>
		<path id="r2" class="st3" d="M302.9,464c4.3-1.6,8.1-3.6,12.1-4.1c1.6-0.2,4.7,2.9,5.2,5c0.9,3.7-1.6,4.7-5.3,4.6
			c-7.7-0.2-9.8,2.3-9.9,10.2c-0.1,8.2-0.2,16.4,0,24.7c0.1,4.2-0.3,7.3-5.6,7.4c-5.1,0.1-6.1-2.6-6.1-7c0.1-12.2-0.1-24.4,0.2-36.6
			c0.1-2.4,0.3-6.1,2.6-7.1C298.4,460.1,300.9,463.2,302.9,464z"/>
		<path id="e2" class="st3" d="M375.4,488.8c-0.6,5.9-2.1,11.6,4.6,13.5c2.2,0.6,5-1.1,7.4-2.1c3-1.1,5.8-2.6,9.2-4.1
			c1.4,7.1,0,11.2-4.7,13.1c-14.1,5.8-25.7,2.5-27.8-16.3c-0.8-7.7,0.8-16,2.6-23.7c1.6-6.9,8.6-9.9,17.4-9.1
			c6.7,0.6,11.4,5,12.8,11.8c3.3,16.8,3.3,16.8-13.3,17C381,488.9,378.3,488.8,375.4,488.8z M390.3,479.6c-2.4-4.3-3.5-7.9-5.9-9.9
			c-1.2-1.1-5.5-0.6-6.7,0.7c-1.9,2.1-2.3,5.6-3.6,9.2C380,479.6,384,479.6,390.3,479.6z"/>
		<path id="e3" class="st3" d="M449.4,488.7c-0.6,5.9-2.2,11.7,4.9,13.6c2.3,0.6,5.2-1.1,7.8-2.1c3.1-1.2,6.1-2.6,9.6-4.1
			c1.4,7.1,0,11.3-4.9,13.2c-14.7,5.8-26.9,2.5-29-16.5c-0.9-7.8,0.9-16.1,2.7-23.9c1.6-6.9,9-10,18.2-9.2c7,0.6,11.9,5,13.3,11.9
			c3.5,16.9,3.5,16.9-13.9,17.1C455.2,488.7,452.4,488.7,449.4,488.7z M465,479.3c-2.5-4.4-3.7-7.9-6.1-10c-1.3-1.1-5.7-0.6-7,0.7
			c-2,2.1-2.4,5.7-3.8,9.3C454.2,479.3,458.4,479.3,465,479.3z"/>
		<path id="r3" class="st3" d="M494.2,463.9c4.4-1.6,8.3-3.6,12.4-4.1c1.6-0.2,4.8,2.9,5.3,5c0.9,3.7-1.6,4.7-5.4,4.6
			c-7.9-0.2-10,2.3-10.1,10.2c-0.1,8.2-0.2,16.4,0,24.7c0.1,4.2-0.3,7.3-5.7,7.4c-5.2,0.1-6.3-2.6-6.2-7c0.1-12.2-0.1-24.4,0.2-36.6
			c0.1-2.4,0.3-6.1,2.6-7.1C489.6,459.9,492.1,463,494.2,463.9z"/>
		<path id="s2" class="st3" d="M652.2,511.6c-4.9-0.6-9.6-3.2-13.6-6c-1.8-1.3-3.9-6.2-2-8.4c1.9-2.1,5.6,0.4,8.3,1
			c1.2,0.3,2.2,2.5,3.2,2.4c3.6-0.3,8.5,0,10.5-2.1c3.2-3.4-0.9-5.7-3.8-7.7c-5.8-4-12-7.7-16.7-12.8c-1.9-2.1-1.4-8,0.3-11
			c5.2-9.4,23.9-9.4,28.8-0.4c1,1.9,2.5,5.1,0.9,6.7c-2.1,2.2-6.2-0.2-9.1-0.9c-2-0.5-3.6-3-5.5-3.2s-5.1,0.3-5.9,2.2
			c-0.9,2.1,1.3,4.8,2.9,6.1c2.6,2.2,6,3.4,9.1,5c8.4,4.4,12.2,11,10.2,18.3C668.3,506.7,661.9,512.8,652.2,511.6z"/>
		<g id="i2">
			<path class="st3" d="M689.6,490.1c0,5.8,0.4,11.5-0.2,17.2c-0.2,1.8-3,4.6-4.4,4.5c-1.8-0.1-4.9-2.7-5-4.2
				c-0.4-12.2-0.4-24.3,0-36.5c0.1-1.5,3.3-3.7,5.3-3.9c1.2-0.2,3.9,2.7,4.1,4.3C689.9,477.7,689.6,483.9,689.6,490.1z"/>
			<path class="st3" d="M686.6,446.2c2.2,1.2,3.1,4.2,3.5,6.6c0.6,3.6-1.3,5.9-5.4,5.6c-3.6-0.2-5.9-1.4-6-5.5
				C678.7,448.6,681.3,443.4,686.6,446.2z"/>
		</g>
		<path id="e4" class="st3" d="M757.3,488.8c-0.6,5.9-2.2,11.6,4.8,13.5c2.2,0.6,5.2-1.1,7.7-2.1c3.1-1.1,6.1-2.6,9.6-4.1
			c1.4,7.1,0,11.2-4.9,13.2c-14.6,5.8-26.8,2.5-28.9-16.4c-0.9-7.8,0.9-16,2.7-23.8c1.6-6.9,9-10,18.1-9.2c6.9,0.6,11.9,5,13.3,11.8
			c3.5,16.8,3.5,16.8-13.9,17.1C763.1,488.8,760.3,488.8,757.3,488.8z M772.8,479.5c-2.5-4.4-3.7-7.9-6.1-10c-1.3-1.1-5.7-0.6-7,0.7
			c-2,2.1-2.4,5.6-3.8,9.3C762.1,479.5,766.2,479.5,772.8,479.5z"/>
		<path id="s3" class="st3" d="M806.3,511.7c-4.9-0.6-9.6-3.2-13.6-6c-1.8-1.3-3.9-6.2-2-8.4c1.9-2.1,5.6,0.4,8.3,1
			c1.2,0.3,2.2,2.5,3.2,2.4c3.6-0.3,8.5,0,10.5-2.1c3.2-3.4-0.9-5.7-3.8-7.7c-5.8-4-12-7.7-16.7-12.8c-1.9-2.1-1.4-8,0.3-11
			c5.2-9.4,23.9-9.4,28.8-0.4c1,1.9,2.5,5.1,0.9,6.7c-2.1,2.2-6.2-0.2-9.1-0.9c-2-0.5-3.6-3-5.5-3.2s-5.1,0.3-5.9,2.2
			c-0.9,2.1,1.3,4.8,2.9,6.1c2.6,2.2,6,3.4,9.1,5c8.4,4.4,12.2,11,10.2,18.3C822.3,506.9,816,512.9,806.3,511.7z"/>
		<path id="s4" class="st3" d="M849.8,511.7c-4.9-0.6-9.6-3.2-13.6-6c-1.8-1.3-3.9-6.2-2-8.4c1.9-2.1,5.6,0.4,8.3,1
			c1.2,0.3,2.2,2.5,3.2,2.4c3.6-0.3,8.5,0,10.5-2.1c3.2-3.4-0.9-5.7-3.8-7.7c-5.8-4-12-7.7-16.7-12.8c-1.9-2.1-1.4-8,0.3-11
			c5.2-9.4,23.9-9.4,28.8-0.4c1,1.9,2.5,5.1,0.9,6.7c-2.1,2.2-6.2-0.2-9.1-0.9c-2-0.5-3.6-3-5.5-3.2s-5.1,0.3-5.9,2.2
			c-0.9,2.1,1.3,4.8,2.9,6.1c2.6,2.2,6,3.4,9.1,5c8.4,4.4,12.2,11,10.2,18.3C865.8,506.9,859.5,513,849.8,511.7z"/>
		<path id="e5" class="st3" d="M903.1,488.8c-0.6,5.9-2.2,11.6,4.8,13.5c2.2,0.6,5.2-1.1,7.7-2.1c3.1-1.1,6-2.6,9.6-4.1
			c1.4,7.1,0,11.2-4.9,13.1c-14.6,5.8-26.7,2.5-28.8-16.3c-0.9-7.7,0.9-16,2.7-23.7c1.6-6.9,8.9-9.9,18-9.1
			c6.9,0.6,11.8,5,13.2,11.8c3.5,16.8,3.5,16.8-13.8,17C908.9,488.8,906.1,488.8,903.1,488.8z M918.6,479.5
			c-2.5-4.3-3.7-7.9-6.1-9.9c-1.3-1.1-5.7-0.6-6.9,0.7c-1.9,2.1-2.4,5.6-3.8,9.2C907.9,479.5,912.1,479.5,918.6,479.5z"/>
		<path id="x" class="st3" d="M955.6,490.4c-2.9,5.8-4.7,10.5-7.4,14.6c-1.8,2.7-4.6,5.7-7.5,6.5c-4.3,1.2-6.2-1.4-4-5.8
			c0.7-1.3,1.5-2.6,2.5-3.8c9.6-11.6,8.3-22.9-0.3-34.5c-1.3-1.7-0.4-5-0.5-7.5c3.3,1.3,7.7,1.7,9.5,4.1c3.3,4.3,4.9,9.9,8,16.4
			c2.7-4.4,4.8-7.9,6.8-11.3c1.4-2.4,2.3-5.5,4.3-7.1c1.8-1.4,4.9-1.1,7.4-1.6c0,2,0,4.1-0.1,6.1c0,0.4-0.5,0.9-0.8,1.3
			c-10.5,12.5-8.2,24.5,0.9,36.6c1.2,1.6,0.3,4.6,0.4,7c-2.9-0.8-6.9-0.7-8.4-2.6C962.5,503.6,959.6,497.5,955.6,490.4z"/>
		<path id="p_2_" class="st3" d="M996.8,508.1c0,5.2,0.5,9.5-0.2,13.7c-0.4,2.3-2.9,4.3-4.5,6.4c-1.9-1.9-5.3-3.9-5.3-5.8
			c-0.4-18.7-0.3-37.3-0.2-56c0-1.6,1.7-4.6,2.5-4.5c2.2,0.2,4.4,1.5,6.9,2.6c10.6-6.8,20.4-6.1,24.6,3.1c5.4,12,5.3,24.8,0.2,36.9
			C1017.2,512.8,1008.2,514.1,996.8,508.1z M1013.7,486.3C1013.8,486.3,1013.7,486.3,1013.7,486.3c-0.2-3.6,0.3-7.4-0.9-10.6
			c-1.1-2.7-4-5.9-6.5-6.3c-2.2-0.3-6.9,2.7-7.2,4.7c-0.9,7.8-1.1,15.8-0.3,23.5c0.2,2,5.4,5.3,7.7,4.9c2.6-0.4,5.3-4.2,6.6-7.1
			C1014.2,492.9,1013.7,489.4,1013.7,486.3z"/>
		<path id="l" class="st3" d="M1034.6,477.6c0-7.1,0-14.2,0-21.3c0-3.2,0.4-5.8,4.6-6c4.5-0.1,4.4,2.9,4.4,5.9
			c0,12.7,0.1,25.5,0,38.2c0,4.1,0.4,7.7,4.2,10.5c1.2,0.9,2.3,3.7,1.1,5.5c-1.3,2-3.7,1.8-5.3,1.1c-5-2-8.3-4.7-8.5-10.1
			C1034.8,493.5,1034.6,485.5,1034.6,477.6C1034.4,477.6,1034.7,477.6,1034.6,477.6z"/>
		<path id="o2" class="st3" d="M1096.1,486.4c0,2.6-0.1,5.2,0,7.8c1,17.6-18.8,20.9-29.2,15.2c-0.8-0.5-1.6-1-2.4-1.6
			c-9.4-7.8-8.7-37.1,1.1-44.3c6.6-4.8,14.1-4.2,21-1.6c6.5,2.4,9.6,8.1,9.5,15.2C1096,480.2,1096,483.3,1096.1,486.4z
			 M1087.5,485.8c0-3.9-0.6-8-2.4-11.1c-1.5-2.5-5.3-5.2-7.9-5.1s-7,3.3-7.3,5.6c-0.9,7.1-0.8,14.6,0.1,21.7
			c0.3,2.2,4.5,5.5,6.9,5.5c2.8,0,6.7-2.4,8.1-5C1086.8,494.2,1087.5,489.9,1087.5,485.8z"/>
		<path id="r4_1_" class="st3" d="M1115.6,464.2c4.3-1.5,8.2-3.6,12.3-4.1c1.6-0.2,4.8,2.9,5.3,5c0.9,3.7-1.6,4.7-5.4,4.6
			c-7.8-0.2-10,2.3-10,10.2c-0.1,8.2-0.2,16.4,0,24.6c0.1,4.2-0.3,7.3-5.7,7.4c-5.2,0.1-6.2-2.6-6.2-7c0.1-12.2-0.1-24.3,0.2-36.5
			c0.1-2.4,0.3-6,2.6-7C1111,460.3,1113.5,463.3,1115.6,464.2z"/>
		<path id="e6" class="st3" d="M1148,488.9c-0.6,5.9-2.2,11.6,4.8,13.4c2.2,0.6,5.2-1.1,7.7-2.1c3.1-1.1,6-2.6,9.6-4.1
			c1.4,7.1,0,11.2-4.9,13.1c-14.6,5.8-26.6,2.5-28.8-16.3c-0.9-7.7,0.9-16,2.7-23.7c1.6-6.8,8.9-9.9,18-9.1
			c6.9,0.6,11.8,5,13.2,11.8c3.5,16.7,3.5,16.7-13.8,17C1153.8,488.9,1151,488.9,1148,488.9z M1163.5,479.7
			c-2.5-4.3-3.7-7.8-6.1-9.9c-1.3-1.1-5.7-0.6-6.9,0.7c-1.9,2.1-2.4,5.6-3.8,9.2C1152.8,479.7,1156.9,479.7,1163.5,479.7z"/>
		<path id="r5" class="st3" d="M1188.4,463.9c4.4-1.6,8.3-3.6,12.4-4.1c1.6-0.2,4.8,2.9,5.3,5c0.9,3.7-1.6,4.7-5.4,4.6
			c-7.9-0.2-10,2.3-10.1,10.2c-0.1,8.2-0.2,16.5,0,24.7c0.1,4.2-0.3,7.3-5.7,7.4c-5.2,0.1-6.3-2.6-6.2-7c0.1-12.2-0.1-24.4,0.2-36.6
			c0.1-2.4,0.3-6.1,2.6-7.1S1186.3,463.1,1188.4,463.9z"/>
		<path id="dot2" class="st3" d="M1212.3,508.2c0.3,2.4-1.4,3.8-4.6,3.8s-5.4-1.1-5.4-4.2c0-2.9,1.9-4.7,5-4.7
			C1210.6,502.9,1212.3,504.7,1212.3,508.2z"/>
	</g>
	<g id="Rosa_Pires">
		<path id="R_1_" class="st2" d="M286.4,400.4c-18,6-30.1,5.3-37.1-12.7c-5.4-13.9-14.2-26.6-19.7-40.5
			c-5.2-13.1-15.3-14.6-25.3-11.3c-4.3,1.4-7.4,11.2-8,17.5c-1.3,12.7-0.8,25.6-0.5,38.4c0.2,9.3-4.8,13.8-12.8,11.3
			c-4.9-1.5-11.7-7.9-11.7-12.2c-0.8-47.1-0.3-94.2-0.7-141.3c-0.1-10.9,4.5-14.1,14.7-13.8c19.2,0.5,38.4-0.1,57.6,0.1
			c18,0.2,30.6,9.8,35.6,27.3c7.3,25.6,6.9,49.4-17.7,66.7c-9.7,6.8-4.8,14-0.9,21.2C268.6,367.2,277.2,383.3,286.4,400.4z
			 M196,312.4c15.7,0,29.1,1.5,42.1-0.4c16.1-2.3,18.5-15.6,17.7-29.2c-0.7-13-4.4-24.1-20.3-25.5c-40.3-3.4-40.3-3.4-39.5,36.7
			C196,299.2,196,304.3,196,312.4z"/>
		<path id="s_3_" class="st2" d="M475.1,403.3c-12.4-1.6-24.2-7.8-34.2-14.7c-4.5-3.1-9.9-15.2-4.9-20.5c4.7-5.1,14.1,0.9,20.9,2.5
			c3.1,0.7,5.6,6.1,8.1,5.9c9.1-0.7,21.4,0,26.4-5.2c8.1-8.4-2.1-13.9-9.7-19c-14.6-9.8-30.2-19-41.9-31.4
			c-4.7-5.1-3.5-19.7,0.7-27.1c13.1-23,60-23.2,72.4-1c2.6,4.6,6.4,12.5,2.4,16.5c-5.3,5.4-15.6-0.4-22.9-2.2
			c-5-1.3-9.1-7.3-13.9-7.8c-4.7-0.4-9.9,3.5-14.9,5.5c2.3,5.1,3.2,11.8,7.2,15c6.6,5.3,15.2,8.4,23,12.3
			c21.3,10.8,30.6,27.1,25.6,44.9C515.5,391.5,499.6,406.3,475.1,403.3z"/>
		<path id="a_1_" class="st2" d="M607.8,391.5c-16.8,14-31.4,15.8-48.2,5.8c-16.2-9.6-17.3-25-14.9-41c2.2-14.9,20.2-27.4,38.1-30.4
			c8.1-1.4,15.8-6.1,23-10.5c0.6-0.4-4.3-13.6-6-13.5c-8.8,0.7-17.4,4.3-26.2,6.1c-6.7,1.4-13.7,1.6-20.5,2.3
			c1.5-7.2,0.7-16.3,4.9-21.3c12.8-15.6,31.6-13.1,48.3-9.8c14.5,2.8,24,14.5,24.9,29.8c1.6,26.6,1.9,53.2,1.9,79.8
			c0,3.3-5.2,9.3-7.7,9.2C619.9,397.8,614.7,394.3,607.8,391.5z M606.9,354.3c-1.5-1.5-5.8-9.2-9.4-8.8c-12.2,1.1-27.4,2.3-27.7,19
			c-0.1,5.7,8.2,14.8,14.4,16.5C596.1,384.4,605.8,373.6,606.9,354.3z"/>
		<path id="o_1_" class="st2" d="M407.9,341.2c0,6.4-0.3,12.8,0.1,19.1c2.4,43.1-45.9,51.2-71.6,37.2c-2-1.1-4-2.4-5.8-3.8
			c-23-19.2-21.4-90.8,2.7-108.5c16.1-11.8,34.5-10.2,51.4-3.9c15.9,5.9,23.5,19.8,23.2,37.3C407.8,326.1,407.9,333.7,407.9,341.2z
			 M386.9,339.8c-1.8-9.4-1.4-19.6-5.8-27.1c-3.6-6.2-12.9-12.7-19.5-12.4c-6.4,0.2-17.2,8.1-17.9,13.7c-2.3,17.5-2,35.7,0.2,53.2
			c0.7,5.4,11,13.5,16.8,13.5c6.9,0,16.4-6,19.9-12.1C385.2,360.4,385,349.6,386.9,339.8z"/>
		<path id="e_1_" class="st2" d="M1031.9,347.5c-1.5,14.5-5.4,28.6,11.9,33.2c5.5,1.5,12.8-2.8,19-5.1c7.6-2.8,14.9-6.3,23.6-10.1
			c3.5,17.5,0,27.5-12,32.3c-35.9,14.2-65.7,6.1-70.9-40.2c-2.1-19,2.1-39.4,6.6-58.4c4-16.9,22-24.4,44.5-22.5
			c17,1.5,29.2,12.2,32.6,29c8.5,41.3,8.5,41.3-34,41.9C1046.3,347.5,1039.4,347.5,1031.9,347.5z M1070,324.6
			c-6.2-10.7-9-19.4-15-24.5c-3.2-2.7-14-1.6-17.1,1.8c-4.8,5.2-5.9,13.8-9.3,22.7C1043.8,324.6,1053.9,324.6,1070,324.6z"/>
		<path id="r_1_" class="st2" d="M941.8,286.2c10.7-3.8,20.3-8.9,30.3-10c4-0.4,11.7,7.2,12.9,12.3c2.2,9.2-3.9,11.6-13.3,11.4
			c-19.3-0.4-24.5,5.6-24.7,25c-0.2,20.2-0.4,40.3,0,60.5c0.2,10.3-0.8,18-14,18.2c-12.8,0.2-15.3-6.4-15.2-17.3
			c0.3-29.9-0.2-59.9,0.4-89.8c0.1-5.8,0.7-14.9,6.4-17.3C930.6,276.6,936.7,284.2,941.8,286.2z"/>
		<path id="s_2_" class="st2" d="M1161.7,403.3c-12.1-1.6-23.7-7.8-33.4-14.7c-4.4-3.1-9.7-15.2-4.8-20.5c4.6-5.1,13.8,0.9,20.4,2.5
			c3,0.7,5.5,6.1,8,5.9c8.9-0.7,20.9,0,25.8-5.2c7.9-8.4-2.1-14-9.5-19c-14.3-9.8-29.6-19-41-31.5c-4.6-5.1-3.4-19.7,0.7-27.1
			c12.8-23.1,58.7-23.2,70.8-1c2.5,4.6,6.2,12.5,2.3,16.5c-5.2,5.4-15.2-0.4-22.4-2.2c-4.9-1.3-8.9-7.3-13.6-7.8
			c-4.6-0.4-9.7,3.5-14.6,5.5c2.2,5.1,3.1,11.8,7,15c6.5,5.3,14.8,8.4,22.5,12.3c20.8,10.8,29.9,27.1,25.1,45
			C1201.2,391.4,1185.6,406.3,1161.7,403.3z"/>
		<g id="i_1_">
			<path class="st2" d="M884.9,350.9c0,14,0.9,28-0.5,41.9c-0.4,4.3-7.4,11.1-11,11c-4.5-0.2-12.3-6.4-12.4-10.3
				c-1-29.5-1-59.1,0.1-88.6c0.1-3.6,8.3-8.9,13.3-9.6c3-0.4,9.8,6.5,10.1,10.5C885.6,320.7,884.9,335.8,884.9,350.9z"/>
			<path class="st2" d="M877.3,244.2c5.5,2.8,7.8,10.3,8.7,15.9c1.5,8.8-3.3,14.2-13.4,13.7c-8.8-0.5-14.8-3.5-14.9-13.4
				C857.7,250.1,864.2,237.4,877.3,244.2z"/>
		</g>
		<path id="P_1_" class="st2" d="M726.8,318c0-22.6,0.4-45.2-0.2-67.7c-0.3-10.5,3.2-14.6,13.5-14.3c18.6,0.5,37.3,1.1,55.8,0
			c19.2-1.2,29.8,10.4,36.6,25.3c18.2,40-7.1,79-50.2,79.1c-33.9,0.1-28.2-4-28.8,29.2c-0.1,6.4-0.4,12.8,0,19.1
			c0.6,9.7-1.7,15.5-12.9,14.9c-9.6-0.5-14.3-3.5-14-14.4C727.1,365.5,726.8,341.8,726.8,318L726.8,318z M753.4,257.8
			c0,11.5-0.1,20.6,0,29.7c0.6,32.7-5.1,29,29.1,28c23.8-0.7,26.8-4.3,27.6-29.3c0.6-20.5-4-31.2-27.5-28.5
			C773.9,258.7,764.9,257.8,753.4,257.8z"/>
	</g>
</g>
</svg>
